<svg width="32" height="32" viewBox="0 0 32 32" fill="none" xmlns="http://www.w3.org/2000/svg">
<g clip-path="url(#clip0_54_213)">
<mask id="mask0_54_213" style="mask-type:luminance" maskUnits="userSpaceOnUse" x="-7" y="-7" width="46" height="46">
<path d="M-6.43201 -6.43037H38.368V38.3696H-6.43201V-6.43037Z" fill="white"/>
</mask>
<g mask="url(#mask0_54_213)">
<path d="M31.968 15.9692C31.968 7.13269 24.8046 -0.0307671 15.968 -0.0307671C7.13147 -0.0307671 -0.0319824 7.13269 -0.0319824 15.9692C-0.0319824 23.4729 5.13378 29.769 12.1028 31.4981V20.8586H8.80347V15.9692H12.1028V13.8624C12.1028 8.41653 14.5673 5.89237 19.9139 5.89237C20.9275 5.89237 22.6766 6.09109 23.3921 6.28987V10.7221C23.0144 10.6824 22.3585 10.6625 21.5436 10.6625C18.9201 10.6625 17.9064 11.6563 17.9064 14.2401V15.9692H23.1326L22.2348 20.8586H17.9064V31.8521C25.8287 30.8952 31.968 24.1496 31.968 15.9692Z" fill="white"/>
<path d="M22.2348 20.8586L23.1326 15.9692H17.9064V14.24C17.9064 11.6562 18.9201 10.6625 21.5436 10.6625C22.3585 10.6625 23.0144 10.6823 23.3921 10.7221V6.28988C22.6766 6.0911 20.9275 5.89231 19.9139 5.89231C14.5674 5.89231 12.1028 8.41654 12.1028 13.8624V15.9692H8.80347V20.8586H12.1028V31.4981C13.3407 31.8051 14.6351 31.9692 15.968 31.9692C16.6243 31.9692 17.2709 31.9288 17.9064 31.8521V20.8586H22.2348Z" fill="#21438D"/>
</g>
</g>
<defs>
<clipPath id="clip0_54_213">
<rect width="32" height="32" fill="white"/>
</clipPath>
</defs>
</svg>
