<svg width="52" height="52" viewBox="0 0 52 52" fill="none" xmlns="http://www.w3.org/2000/svg">
<path d="M38.7993 17.8647L38.8946 40.2743L30.8261 33.0819C30.8261 33.0819 17.2162 33.0549 12.6247 33.0819C7.35761 33.055 8.01255 28.7307 8.01255 28.7307C8.01255 28.7307 7.92874 21.9806 7.96529 17.0596C8.00173 12.1386 12.3493 12.6828 12.3493 12.6828C12.3493 12.6828 29.7561 13.1566 34.3682 13.4382C38.9803 13.7199 38.7993 17.8647 38.7993 17.8647Z" fill="#5B5A4D"/>
<path d="M38.7993 17.8647L38.8946 40.2743L30.8261 33.0819C30.8261 33.0819 17.2162 33.0549 12.6247 33.0819C7.35761 33.055 8.01255 28.7307 8.01255 28.7307C8.01255 28.7307 7.92874 21.9806 7.96529 17.0596C8.00173 12.1386 12.3493 12.6828 12.3493 12.6828C12.3493 12.6828 29.7561 13.1566 34.3682 13.4382C38.9803 13.7199 38.7993 17.8647 38.7993 17.8647Z" fill="white"/>
</svg>
