<svg width="456" height="320" viewBox="0 0 456 320" fill="none" xmlns="http://www.w3.org/2000/svg">
<path d="M455.333 282.44H0V292.64H455.333V282.44Z" fill="#E6E7E8"/>
<path d="M379.621 309.346C391.407 309.346 400.961 307.892 400.961 306.099C400.961 304.306 391.407 302.852 379.621 302.852C367.835 302.852 358.281 304.306 358.281 306.099C358.281 307.892 367.835 309.346 379.621 309.346Z" fill="#E6E7E8"/>
<path d="M374.867 204.923C375.45 198.497 377.878 192.384 381.693 187.196C386.239 181.015 390.848 177.454 398.438 176.277C405.896 175.12 415.303 177.647 418.201 185.419C419.252 188.237 419.161 191.599 417.421 194.052C415.682 196.505 412.122 197.691 409.469 196.276C410.101 197.931 409.66 199.941 408.394 201.179C407.128 202.417 405.109 202.814 403.468 202.146C403.787 204.004 401.909 205.651 400.032 205.818C398.155 205.985 396.356 205.123 394.669 204.283C394.52 203.885 395.394 203.939 395.358 204.362C395.322 204.785 394.829 204.991 394.414 205.077C392.523 205.469 390.517 205.281 388.732 204.545C388.111 204.289 387.453 203.961 386.799 204.116C386.389 204.213 386.047 204.49 385.742 204.78C383.175 207.221 382.306 210.913 381.681 214.399C380.236 222.458 379.439 230.627 379.163 238.81C379.128 239.851 378.931 241.137 377.944 241.47C376.505 241.956 375.599 239.944 375.419 238.436C374.089 227.313 373.838 216.102 374.867 204.923Z" fill="#76C198"/>
<path d="M372.741 252.287C373.307 251.096 373.877 249.896 374.225 248.624C374.573 247.351 374.691 245.988 374.348 244.715" stroke="white" stroke-width="0.2835" stroke-miterlimit="10" stroke-linecap="round" stroke-linejoin="round"/>
<path d="M378.823 244.256C378.698 239.939 378.568 235.583 377.531 231.391C376.71 228.071 375.335 224.914 373.856 221.83C370.422 214.665 365.743 207.231 358.19 204.765C355.287 203.817 352.167 203.697 349.126 203.978C340.029 204.819 330.68 210.085 327.959 218.806C327.235 221.127 327.037 223.76 328.186 225.902C329.335 228.044 332.149 229.386 334.324 228.299C333.032 231.265 334.18 235.084 336.893 236.846C339.606 238.608 343.562 238.104 345.746 235.718C346.658 237.11 348.463 237.851 350.09 237.503C351.717 237.154 353.059 235.738 353.32 234.095C356.515 235.801 360.773 235.224 363.4 232.73C364.329 231.848 364.686 229.81 363.409 229.702C364.017 230.792 365.407 231.094 366.518 231.661C369.166 233.012 370.405 236.084 371.138 238.965C372.196 243.13 372.652 247.422 373.027 251.702C373.704 259.424 374.13 267.167 374.304 274.916C374.326 275.888 374.357 276.909 374.846 277.749C375.336 278.589 376.452 279.15 377.31 278.693C377.879 278.39 378.172 277.751 378.395 277.147C380.249 272.13 379.47 266.655 379.319 261.427C379.154 255.703 378.988 249.979 378.823 244.256Z" fill="#448260"/>
<path d="M374.339 251.519C374.468 241.747 376.521 231.817 381.632 223.486C386.742 215.156 395.16 208.588 404.81 207.044C410.824 206.082 417.467 207.268 421.873 211.472C425.31 214.751 427.005 219.407 428.573 223.891C429.092 225.374 429.612 226.988 429.132 228.484C428.613 230.101 426.964 231.187 425.276 231.372C423.588 231.557 421.892 230.966 420.444 230.078C421.58 230.081 422.111 231.684 421.553 232.674C420.995 233.664 419.847 234.135 418.779 234.524C416.661 235.298 414.473 236.039 412.218 236.007C409.963 235.976 407.596 235.029 406.43 233.099C402.247 234.524 397.349 233.61 393.961 230.773C391.835 232.558 388.972 233.437 386.211 233.153C384.979 233.9 383.747 234.647 382.515 235.394C381.878 235.78 381.218 236.188 380.817 236.817C380.429 237.426 380.33 238.169 380.247 238.886C378.867 250.7 378.981 262.689 380.585 274.475C380.799 276.049 382.722 283.054 379.74 280.684C377.571 278.961 376.581 273.636 376.072 271.093C374.799 264.719 374.254 258.012 374.339 251.519Z" fill="#5EA782"/>
<path d="M386.91 216.72C386.91 216.72 412.227 200.359 417.588 226.762" stroke="white" stroke-width="0.2835" stroke-miterlimit="10" stroke-linecap="round" stroke-linejoin="round"/>
<path d="M411.612 214.865C407.543 217.995 404.744 222.729 403.963 227.802" stroke="white" stroke-width="0.2835" stroke-miterlimit="10" stroke-linecap="round" stroke-linejoin="round"/>
<path d="M400.918 211.841C398.323 214.871 396.335 218.42 395.106 222.216" stroke="white" stroke-width="0.2835" stroke-miterlimit="10" stroke-linecap="round" stroke-linejoin="round"/>
<path d="M408.147 212.539C411.168 211.801 413.81 211.749 416.917 211.898" stroke="white" stroke-width="0.2835" stroke-miterlimit="10" stroke-linecap="round" stroke-linejoin="round"/>
<path d="M374.985 224.267C374.985 224.267 358.349 194.484 341.462 222.215" stroke="white" stroke-width="0.2835" stroke-miterlimit="10" stroke-linecap="round" stroke-linejoin="round"/>
<path d="M349.409 213.017C349.409 213.017 344.501 210.828 336.751 217.744" stroke="white" stroke-width="0.2835" stroke-miterlimit="10" stroke-linecap="round" stroke-linejoin="round"/>
<path d="M352.763 211.194C352.763 211.194 357.025 218.662 352.763 226.078" stroke="white" stroke-width="0.2835" stroke-miterlimit="10" stroke-linecap="round" stroke-linejoin="round"/>
<path d="M358.224 210.401C358.224 210.401 355.75 205.662 347 207.995" stroke="white" stroke-width="0.2835" stroke-miterlimit="10" stroke-linecap="round" stroke-linejoin="round"/>
<path d="M375.759 226.078C375.759 226.078 372.501 191.078 392.668 183.245C412.835 175.412 413.168 188.863 413.168 188.863" stroke="white" stroke-width="0.2835" stroke-miterlimit="10" stroke-linecap="round" stroke-linejoin="round"/>
<path d="M398.012 181.53C398.012 181.53 407.562 185.632 405.808 196.822" stroke="white" stroke-width="0.2835" stroke-miterlimit="10" stroke-linecap="round" stroke-linejoin="round"/>
<path d="M392.42 183.343C392.42 183.343 398.724 192.935 395.106 201.991" stroke="white" stroke-width="0.2835" stroke-miterlimit="10" stroke-linecap="round" stroke-linejoin="round"/>
<path d="M395.394 182.274C395.394 182.274 401.045 176.637 407.515 178.188" stroke="white" stroke-width="0.2835" stroke-miterlimit="10" stroke-linecap="round" stroke-linejoin="round"/>
<path d="M387.102 186.505C387.102 186.505 387.789 181.176 391.867 179.706" stroke="white" stroke-width="0.2835" stroke-miterlimit="10" stroke-linecap="round" stroke-linejoin="round"/>
<path d="M359.308 271.557H396.992C396.992 271.557 401.443 306.199 380.375 307.572C359.308 308.944 359.308 286.096 359.308 271.557Z" fill="#22314F"/>
<path d="M351.236 101.768H320.762V109.321H351.236V101.768Z" fill="#1D886F"/>
<path d="M343.091 104.136H322.555V106.666H343.091V104.136Z" fill="white"/>
<path d="M347.373 105.401C347.373 106.059 346.839 106.593 346.181 106.593C345.522 106.593 344.989 106.059 344.989 105.401C344.989 104.743 345.523 104.209 346.181 104.209C346.839 104.209 347.373 104.743 347.373 105.401Z" fill="white"/>
<path d="M360.814 101.768H351.236V109.321H360.814V101.768Z" fill="#187059"/>
<path d="M360.815 102.955H352.105V107.848H360.815V102.955Z" fill="#EACFC5"/>
<path d="M346.881 94.2151H316.407V101.768H346.881V94.2151Z" fill="#F75454"/>
<path d="M338.736 96.583H318.2V99.113H338.736V96.583Z" fill="white"/>
<path d="M343.018 97.848C343.018 98.506 342.484 99.04 341.826 99.04C341.168 99.04 340.634 98.506 340.634 97.848C340.634 97.189 341.168 96.656 341.826 96.656C342.484 96.656 343.018 97.19 343.018 97.848Z" fill="white"/>
<path d="M356.459 94.2151H346.881V101.768H356.459V94.2151Z" fill="#D34C4C"/>
<path d="M356.459 95.4011H347.75V100.294H356.459V95.4011Z" fill="#EACFC5"/>
<path d="M369.744 78.978H362.191V109.452H369.744V78.978Z" fill="#F8A364"/>
<path d="M367.377 101.306V80.77H364.847V101.306H367.377Z" fill="white"/>
<path d="M366.111 105.589C365.453 105.589 364.919 105.055 364.919 104.397C364.919 103.739 365.453 103.205 366.111 103.205C366.77 103.205 367.303 103.739 367.303 104.397C367.304 105.055 366.77 105.589 366.111 105.589Z" fill="white"/>
<path d="M376.9 78.978H369.745V109.452H376.9V78.978Z" fill="#D18654"/>
<path d="M379.79 78.978H372.237V109.452H379.79V78.978Z" fill="#F8A364"/>
<path d="M377.422 101.307V80.7705H374.892V101.307H377.422Z" fill="white"/>
<path d="M376.157 105.589C375.498 105.589 374.965 105.055 374.965 104.397C374.965 103.739 375.499 103.205 376.157 103.205C376.815 103.205 377.349 103.739 377.349 104.397C377.349 105.055 376.815 105.589 376.157 105.589Z" fill="white"/>
<path d="M386.945 78.978H379.79V109.452H386.945V78.978Z" fill="#D18654"/>
<path d="M389.426 78.978H381.873V109.452H389.426V78.978Z" fill="#F75454"/>
<path d="M387.059 101.306V80.7703H384.529V101.306H387.059Z" fill="white"/>
<path d="M385.793 105.589C385.135 105.589 384.601 105.055 384.601 104.397C384.601 103.739 385.135 103.205 385.793 103.205C386.451 103.205 386.985 103.739 386.985 104.397C386.985 105.055 386.452 105.589 385.793 105.589Z" fill="white"/>
<path d="M396.582 78.978H389.427V109.452H396.582V78.978Z" fill="#D34C4C"/>
<path d="M400.557 78.978H393.004V109.452H400.557V78.978Z" fill="#1D886F"/>
<path d="M398.189 101.307V80.7708H395.658V101.307H398.189Z" fill="white"/>
<path d="M396.924 105.589C396.266 105.589 395.732 105.055 395.732 104.397C395.732 103.739 396.266 103.205 396.924 103.205C397.582 103.205 398.116 103.739 398.116 104.397C398.116 105.055 397.582 105.589 396.924 105.589Z" fill="white"/>
<path d="M407.712 78.978H400.557V109.452H407.712V78.978Z" fill="#187059"/>
<path d="M412.271 108.922H319.531V115.541H412.271V108.922Z" fill="#CCA38F"/>
<path d="M340.634 0.5H285.336V76.878H340.634V0.5Z" stroke="#22314F" stroke-miterlimit="10"/>
<path d="M400.557 0.5H360.814V46.537H400.557V0.5Z" stroke="#22314F" stroke-miterlimit="10"/>
<path d="M389.427 13.3931H371.945V33.6431H389.427V13.3931Z" stroke="#22314F" stroke-miterlimit="10"/>
<path d="M227.667 317.003C296.914 317.003 353.05 314.905 353.05 312.317C353.05 309.729 296.914 307.631 227.667 307.631C158.42 307.631 102.284 309.729 102.284 312.317C102.284 314.905 158.42 317.003 227.667 317.003Z" fill="#E6E7E8"/>
<path d="M315.368 187.737H311.174C307.464 187.737 304.456 184.729 304.456 181.019V165.224H322.087V181.019C322.087 184.729 319.079 187.737 315.368 187.737Z" fill="#F75454"/>
<path d="M304.456 181.018C304.456 184.729 307.464 187.736 311.174 187.736H315.368C316.774 187.736 318.079 187.302 319.158 186.563C305.395 183.992 305.661 169.869 306.137 165.222H304.456V181.018Z" fill="#DB3B3B"/>
<path d="M323.17 180.287H316.865V177.908H323.17C323.83 177.908 324.366 177.371 324.366 176.712V170.005C324.366 169.346 323.829 168.809 323.17 168.809H316.865V166.43H323.17C325.142 166.43 326.746 168.034 326.746 170.006V176.713C326.746 178.683 325.142 180.287 323.17 180.287Z" fill="#F75454"/>
<path d="M258.667 241.268H253.998V300.503H258.667V241.268Z" fill="#2A2A2B"/>
<path d="M280.637 233.582H232.028V239.87H280.637V233.582Z" fill="#808285"/>
<path d="M264.681 237.617H247.984V247.774H264.681V237.617Z" fill="#808285"/>
<path d="M295.191 219.043V148.045C295.191 130.631 280.943 116.383 263.529 116.383C246.115 116.383 231.867 130.631 231.867 148.045V219.043" fill="#17273F"/>
<path d="M213.975 236.389H294.184C296.988 236.389 299.282 234.095 299.282 231.291V221.833C299.282 219.029 296.988 216.735 294.184 216.735H213.975C213.649 216.735 213.383 217.001 213.383 217.327V235.798C213.383 236.123 213.65 236.389 213.975 236.389Z" fill="#17273F"/>
<path d="M230.556 309.499C233.973 306.116 238.078 303.693 242.507 301.948C246.934 300.227 251.727 299.346 256.504 299.46C261.277 299.568 266.024 300.553 270.399 302.346C270.945 302.572 271.497 302.785 272.036 303.023L273.632 303.784C274.709 304.265 275.716 304.875 276.748 305.433C277.763 306.022 278.729 306.69 279.717 307.313C280.678 307.978 281.612 308.68 282.546 309.376C282.92 309.655 282.998 310.184 282.719 310.558C282.46 310.906 281.983 310.997 281.616 310.783L281.578 310.761L278.648 309.036C277.644 308.515 276.666 307.951 275.649 307.469C273.628 306.484 271.588 305.539 269.465 304.844C265.257 303.366 260.861 302.492 256.446 302.413C254.239 302.348 252.028 302.5 249.848 302.856C247.661 303.18 245.514 303.742 243.401 304.423C241.294 305.12 239.232 305.992 237.268 307.055C235.29 308.069 233.359 309.301 231.645 310.637L231.592 310.679C231.249 310.946 230.755 310.885 230.487 310.542C230.241 310.224 230.276 309.775 230.556 309.499Z" fill="#2A2A2B"/>
<path d="M234.674 312.599C234.674 314.572 233.074 316.172 231.101 316.172C229.128 316.172 227.528 314.572 227.528 312.599C227.528 310.626 229.127 309.026 231.101 309.026C233.075 309.026 234.674 310.626 234.674 312.599Z" fill="#2A2A2B"/>
<path d="M256.333 318.823C257.717 318.823 258.839 317.223 258.839 315.25C258.839 313.276 257.717 311.677 256.333 311.677C254.949 311.677 253.827 313.276 253.827 315.25C253.827 317.223 254.949 318.823 256.333 318.823Z" fill="#2A2A2B"/>
<path d="M285.137 312.599C285.137 314.572 283.538 316.172 281.564 316.172C279.59 316.172 277.991 314.572 277.991 312.599C277.991 310.626 279.59 309.026 281.564 309.026C283.538 309.026 285.137 310.626 285.137 312.599Z" fill="#2A2A2B"/>
<path d="M257.811 300.915L257.063 312.599C257.037 313.002 256.689 313.309 256.286 313.283C255.914 313.259 255.625 312.962 255.602 312.599L254.854 300.915C254.802 300.098 255.421 299.394 256.238 299.342C257.055 299.29 257.759 299.909 257.811 300.726C257.815 300.787 257.815 300.856 257.811 300.915Z" fill="#2A2A2B"/>
<path d="M110.226 190.691H106.461V312.738H110.226V190.691Z" fill="#2A2A2B"/>
<path d="M348.5 190.691H344.735V312.738H348.5V190.691Z" fill="#2A2A2B"/>
<path d="M250.323 202.985L184.774 204.662L184.333 204.671C179.238 204.798 174.795 208.532 173.951 213.746L165.022 268.959C164.284 273.608 167.221 278.157 171.875 279.293C176.777 280.489 181.72 277.485 182.917 272.583L194.014 227.11L250.903 225.655C257.163 225.495 262.108 220.29 261.948 214.03C261.788 207.769 256.583 202.825 250.323 202.985Z" fill="#A05E47"/>
<path d="M204.497 226.842L250.903 225.655C252.669 225.61 254.324 225.152 255.795 224.393L219.002 203.786L203.241 204.189C204.961 207.707 209.672 218.912 204.497 226.842Z" fill="#8C4A38"/>
<path d="M279.114 209.097C276.452 203.429 269.699 200.992 264.031 203.654L201.578 232.987L201.265 233.131C196.985 235.145 194.366 239.81 195.154 244.713L204.928 305.532C205.728 310.445 210.23 313.979 215.251 313.477C220.472 312.956 224.281 308.301 223.76 303.081L218.472 250.106L273.671 224.18C279.339 221.518 281.776 214.765 279.114 209.097Z" fill="#A05E47"/>
<path d="M229.926 219.673L217.569 225.477C220.182 226.777 232.135 233.367 226.701 242.679C225.485 244.762 224.536 246.366 223.79 247.609L248.795 235.864L246.851 227.757C246.851 227.757 238.123 221.433 229.926 219.673Z" fill="#8C4A38"/>
<path d="M280.024 191.936C280.024 191.936 288.648 202.678 284.836 215.428C281.024 228.178 234.144 242.678 234.144 242.678C234.144 242.678 231.958 227.345 217.69 225.095C217.69 225.095 210.363 212.312 203.014 204.119C203.014 204.119 232.164 201.812 231.505 201.812C230.847 201.812 280.024 191.936 280.024 191.936Z" fill="#D1D3D4"/>
<path d="M284.286 206.397C284.012 201.378 282.532 197.283 282.47 197.111L281.531 197.455C281.591 197.617 287.342 213.728 277.849 220.325C270.259 225.6 244.711 235.824 233.558 240.174C233.663 240.531 233.75 240.857 233.823 241.149C244.957 236.819 270.609 226.573 278.419 221.146C282.625 218.223 284.653 213.123 284.286 206.397Z" fill="#8E8476"/>
<path d="M279.482 198.61L278.552 198.981C278.608 199.121 284.029 213.008 276.357 217.445C270.273 220.962 244.448 231.514 232.161 236.472C232.306 236.784 232.441 237.089 232.567 237.389C244.895 232.419 270.64 221.905 276.858 218.309C285.276 213.442 279.722 199.213 279.482 198.61Z" fill="#8E8476"/>
<path d="M276.684 211.418C278.794 205.739 276.014 199.758 275.895 199.506L274.991 199.934C275.018 199.992 277.71 205.798 275.744 211.077C274.673 213.955 272.41 216.174 269.02 217.673C260.106 221.614 240.373 229.231 230.25 233.1C230.445 233.385 230.633 233.671 230.809 233.956C241 230.06 260.551 222.51 269.424 218.587C273.073 216.973 275.515 214.562 276.684 211.418Z" fill="#8E8476"/>
<path d="M271.463 201.631L270.514 201.947C270.523 201.971 271.32 204.42 270.607 207.485C269.645 211.617 266.526 214.801 261.335 216.951C251.345 221.087 234.787 227.64 227.978 230.325C228.231 230.583 228.474 230.846 228.708 231.112C235.725 228.343 251.891 221.942 261.717 217.875C274.891 212.421 271.498 201.738 271.463 201.631Z" fill="#8E8476"/>
<path d="M267.113 203.814L266.121 203.697C265.499 208.98 261.756 213.566 258.651 214.534C256.1 215.328 234.481 224.618 225.739 228.388C226.049 228.615 226.348 228.85 226.636 229.091C235.637 225.212 256.522 216.245 258.948 215.489C262.338 214.432 266.424 209.667 267.113 203.814Z" fill="#8E8476"/>
<path d="M257.996 210.617C251.576 213.668 231.843 222.568 222.792 226.641C223.185 226.825 223.563 227.02 223.93 227.225C233.277 223.018 252.166 214.495 258.426 211.519L257.996 210.617Z" fill="#8E8476"/>
<path d="M253.628 209.943C246.621 213.208 226.488 222.197 219.27 225.415C219.788 225.539 220.285 225.684 220.768 225.842C228.751 222.281 247.367 213.963 254.05 210.849L253.628 209.943Z" fill="#8E8476"/>
<path d="M226.148 213.972L226.157 213.893L226.14 213.816C224.682 206.811 229.008 203.115 229.193 202.961L228.555 202.19C228.352 202.358 223.622 206.367 225.139 213.911C224.993 214.369 223.69 217.283 214.061 219.157C214.26 219.468 214.45 219.77 214.636 220.064C225.392 217.897 226.102 214.389 226.148 213.972Z" fill="#8E8476"/>
<path d="M228.932 215.07L228.969 214.947L228.943 214.821C227.658 208.842 233.59 202.993 233.651 202.934L232.955 202.216C232.695 202.468 226.659 208.412 227.934 214.877C227.634 215.505 225.593 218.919 215.76 221.866C215.953 222.181 216.13 222.471 216.298 222.747C227.512 219.335 228.875 215.262 228.932 215.07Z" fill="#8E8476"/>
<path d="M238.902 205.179L238.347 204.347C229.066 210.535 230.573 215.932 230.641 216.159L231.599 215.873C231.586 215.824 230.296 210.916 238.902 205.179Z" fill="#8E8476"/>
<path d="M233.726 216.882L234.697 217.118C236.418 210.044 243.278 207.444 243.346 207.419L243.002 206.48C242.7 206.59 235.575 209.278 233.726 216.882Z" fill="#8E8476"/>
<path d="M222.875 213.371L222.889 213.063C223.061 209.077 224.439 204.476 225.145 202.349C224.792 202.378 224.43 202.407 224.06 202.437C223.329 204.683 222.124 208.874 221.905 212.708C220.786 213.194 216.477 215.015 212.117 216.173C212.316 216.471 212.51 216.764 212.701 217.055C217.652 215.708 222.348 213.608 222.594 213.497L222.875 213.371Z" fill="#8E8476"/>
<path d="M221.865 202.615C221.52 202.643 221.172 202.671 220.82 202.699C220.507 203.857 219.943 205.451 218.938 207.084C216.943 210.326 214.038 212.466 210.297 213.502C210.499 213.793 210.7 214.083 210.897 214.37C218.589 212.053 221.101 205.621 221.865 202.615Z" fill="#8E8476"/>
<path d="M215.973 203.088C215.525 203.124 215.08 203.159 214.637 203.195C211.964 206.566 209.009 208.031 206.751 208.646C206.969 208.93 207.186 209.214 207.402 209.5C209.935 208.732 213.153 206.979 215.973 203.088Z" fill="#8E8476"/>
<path d="M284.836 215.428C287.66 205.982 283.66 197.643 281.397 193.953C280.797 194.253 280.231 194.635 279.717 195.058C278.411 196.136 277.341 197.472 276.072 198.593C273.108 201.214 269.174 202.543 265.241 202.969C261.307 203.395 257.335 202.981 253.41 202.48C249.155 201.937 244.868 201.273 240.834 199.853C235.198 201.004 231.318 201.81 231.506 201.81C231.691 201.81 229.521 201.992 226.306 202.254C226.311 202.265 226.312 202.276 226.317 202.287C226.688 203.118 226.741 204.032 227.11 204.889C227.491 205.774 228.063 206.577 228.769 207.233C229.573 207.98 230.556 208.538 231.625 208.798C232.855 209.098 234.148 209.039 235.383 209.315C237.472 209.781 239.22 211.151 241.029 212.297C245.126 214.893 249.866 216.465 254.703 216.83C256.087 216.935 257.52 216.935 258.811 216.426C261.768 215.262 263.417 211.686 266.519 210.995C268.722 210.504 271.205 211.617 273.199 210.561C275.192 209.505 275.687 206.804 277.431 205.374C277.746 205.115 278.136 204.894 278.541 204.945C278.986 205.001 279.322 205.367 279.583 205.731C281.704 208.68 281.494 212.706 280.614 216.231C280.006 218.665 279.103 221.021 277.966 223.257C281.523 220.666 284.064 218.011 284.836 215.428Z" fill="#D1D3D4"/>
<path d="M217.69 225.237C217.638 225.237 217.588 225.208 217.563 225.158C217.529 225.088 217.558 225.003 217.628 224.969C217.742 224.913 229.08 219.373 234.162 217.486C234.234 217.46 234.316 217.496 234.345 217.569C234.372 217.643 234.335 217.724 234.262 217.752C229.192 219.635 217.867 225.168 217.754 225.224C217.733 225.232 217.711 225.237 217.69 225.237Z" fill="#17273F"/>
<path d="M234.525 217.735C234.503 217.735 234.482 217.73 234.461 217.72C230.035 215.52 225.362 213.785 220.571 212.566C220.495 212.546 220.449 212.469 220.469 212.393C220.488 212.318 220.567 212.271 220.641 212.29C225.451 213.516 230.143 215.257 234.587 217.466C234.656 217.501 234.686 217.586 234.651 217.656C234.627 217.706 234.577 217.735 234.525 217.735Z" fill="#17273F"/>
<path d="M233.302 217.142C233.283 217.142 233.264 217.138 233.245 217.13C231.52 216.386 229.583 216.306 227.903 216.288C226.84 216.279 225.75 216.294 224.655 216.338C223.955 216.367 223.142 216.411 222.361 216.562C222.277 216.58 222.209 216.527 222.195 216.451C222.179 216.374 222.23 216.3 222.306 216.285C223.107 216.13 223.932 216.085 224.643 216.056C225.745 216.012 226.843 215.993 227.906 216.006C229.613 216.024 231.585 216.106 233.358 216.871C233.429 216.902 233.462 216.985 233.431 217.057C233.41 217.11 233.357 217.142 233.302 217.142Z" fill="#17273F"/>
<path d="M229.358 217.555C229.28 217.555 229.216 217.491 229.216 217.413C229.216 217.335 229.28 217.271 229.358 217.271L232.881 217.265C232.959 217.265 233.023 217.329 233.023 217.407C233.023 217.485 232.959 217.549 232.881 217.549L229.358 217.555Z" fill="#17273F"/>
<path d="M204.297 301.604C204.297 301.604 202.018 308.647 193.419 310.94C193.419 310.94 190.839 312.087 193.419 315.526C195.999 318.966 216.465 313.269 216.465 313.269C216.465 313.269 226.5 312.691 223.359 299.061C220.218 285.43 204.297 301.604 204.297 301.604Z" fill="#A05E47"/>
<path d="M165.877 263.367C165.877 263.367 160.867 268.817 152.096 267.314C152.096 267.314 149.273 267.28 150.183 271.482C151.093 275.684 172.07 279.045 172.07 279.045C172.07 279.045 181.431 282.706 184.263 269.008C187.094 255.31 165.877 263.367 165.877 263.367Z" fill="#A05E47"/>
<path d="M163.737 277.763C163.737 277.763 167.909 268.099 162.725 265.565C157.84 263.177 149.783 263.653 146.172 268.924C145.74 269.554 145.817 270.398 146.328 270.965C147.943 272.755 152.516 276.395 163.737 277.763Z" fill="#2B3990"/>
<path d="M163.737 277.763L182.829 281.737C183.313 281.838 183.789 281.534 183.902 281.053C184.018 280.558 183.707 280.063 183.21 279.954L162.485 275.402C162.485 275.402 161.378 276.869 163.737 277.763Z" fill="#2B3990"/>
<path d="M207.824 316.992C207.824 316.992 207.602 306.469 201.835 306.318C196.399 306.176 189.269 309.958 188.175 316.252C188.044 317.004 188.465 317.74 189.165 318.043C191.377 319 197.05 320.411 207.824 316.992Z" fill="#2B3990"/>
<path d="M207.824 316.992L226.841 312.673C227.323 312.563 227.63 312.089 227.533 311.605C227.433 311.106 226.944 310.786 226.447 310.893L205.704 315.365C205.704 315.365 205.307 317.159 207.824 316.992Z" fill="#2B3990"/>
<path d="M233.432 217.057C232.218 216.617 225.702 213.461 222.888 213.064C222.888 213.064 223.501 217.424 215.218 220.993C216.753 223.461 217.69 225.095 217.69 225.095C217.866 225.123 218.032 225.161 218.204 225.193L233.725 218C233.725 218 234.646 217.497 233.432 217.057Z" fill="#D1D3D4"/>
<path d="M182.487 188.444C178.092 188.444 174.367 185.061 174.018 180.604C173.651 175.922 177.149 171.829 181.832 171.462C211.435 169.143 222.797 139.18 223.267 137.906C224.885 133.51 229.762 131.235 234.163 132.84C238.565 134.444 240.847 139.292 239.258 143.699C238.648 145.393 223.837 185.231 183.161 188.418C182.935 188.436 182.71 188.444 182.487 188.444Z" fill="#6F93DD"/>
<path d="M221.685 144.297C221.744 147.121 222.476 149.798 223.257 152.663C223.291 152.787 223.325 152.912 223.358 153.037C224.73 158.177 225.329 163.487 225.924 168.773C226.363 172.674 226.798 176.66 225.956 180.494C225.613 182.053 225.265 183.505 225.143 185.087C225.007 186.852 225.658 188.522 226.118 190.195C226.607 191.973 226.865 193.856 226.495 195.663C226.285 196.688 225.777 197.807 226.069 198.855C226.305 199.703 226.352 200.436 226.374 201.333C226.42 203.164 226.807 204.756 228.408 205.842C230.414 207.202 233.332 206.829 235.612 207.723C238.011 208.664 240.147 210.154 242.327 211.5C243.62 212.298 244.946 213.058 246.372 213.584C247.826 214.121 249.363 214.407 250.906 214.545C254.592 214.875 258.491 214.306 261.521 212.182C263.471 210.816 265.086 208.813 267.389 208.21C269.442 207.672 271.86 208.31 273.565 207.047C274.23 206.554 274.683 205.831 275.282 205.26C276.616 203.988 278.534 203.576 280.126 202.647C284.452 200.122 282.187 190.298 281.947 186.036C281.569 179.325 281.191 172.615 280.811 165.904C280.32 157.231 280.353 148.335 279.305 139.707C279.206 138.893 276.604 119.438 248.459 123.226C242.233 124.064 235.855 125.707 230.569 129.228C227.438 131.313 224.751 134.11 223.142 137.536C222.615 138.659 222.133 139.89 221.92 141.119C221.731 142.21 221.663 143.263 221.685 144.297Z" fill="#8AAAF9"/>
<path d="M238.877 185.576H157.911V187.89H238.877V185.576Z" fill="#171E26"/>
<path d="M247.726 193.936C247.726 193.936 254.117 189.234 255.73 174.807C257.344 160.38 260.443 143.175 260.977 137.511C261.337 133.697 261.212 127.088 261.092 123.174C257.588 122.624 253.43 122.558 248.46 123.227C243.986 123.829 240.261 124.774 237.151 125.935C237.272 127.727 239.855 165.881 241.262 176.837C242.703 188.058 247.726 193.936 247.726 193.936Z" fill="white"/>
<path d="M245.754 136.877C245.748 136.877 245.742 136.877 245.738 136.876C243.769 136.68 241.916 135.592 240.783 133.969C239.651 132.345 239.27 130.232 239.764 128.317C239.787 128.225 239.883 128.171 239.972 128.193C240.064 128.216 240.119 128.311 240.096 128.401C239.626 130.222 239.988 132.23 241.063 133.773C242.14 135.317 243.901 136.349 245.771 136.537C245.865 136.546 245.933 136.63 245.924 136.723C245.915 136.811 245.841 136.877 245.754 136.877Z" fill="#A7A9AC"/>
<path d="M252.983 134.544C252.927 134.544 252.87 134.516 252.838 134.464C252.787 134.383 252.812 134.278 252.892 134.229C255.619 132.536 257.595 129.772 258.312 126.646C258.333 126.553 258.434 126.494 258.515 126.518C258.608 126.538 258.664 126.63 258.643 126.721C257.906 129.936 255.876 132.778 253.073 134.518C253.045 134.535 253.013 134.544 252.983 134.544Z" fill="#A7A9AC"/>
<path d="M258.181 111.701L257.37 123.498C257.342 123.902 257.201 124.29 256.963 124.618L252.039 131.396C248.935 135.669 242.183 133.638 241.951 128.362L241.824 125.478L242.563 115.333L258.181 111.701Z" fill="#A05E47"/>
<path d="M255.83 115.601L242.295 119.017L241.901 124.417C249.348 123.969 255.83 115.601 255.83 115.601Z" fill="#8C4A38"/>
<path d="M247.522 122.762L240.536 122.891C234.563 123.001 229.585 118.205 229.474 112.232L229.116 92.908C229.005 86.935 233.802 81.957 239.775 81.846L246.761 81.717C252.734 81.606 257.712 86.403 257.822 92.376L258.18 111.7C258.292 117.674 253.495 122.652 247.522 122.762Z" fill="#A05E47"/>
<path d="M231.717 93.6368C232.911 94.6668 234.845 94.7028 236.076 93.7168C236.956 94.4818 238.387 94.5118 239.297 93.7838C240.029 94.7848 241.607 95.0258 242.604 94.2888C243.409 95.0638 244.801 95.1238 245.669 94.4208C246.211 94.9308 247.097 95.0278 247.736 94.6468C247.815 95.1038 248.227 95.4458 248.67 95.5798C249.114 95.7148 249.588 95.6818 250.051 95.6468C249.887 96.1928 250.16 96.7978 250.588 97.1748C251.016 97.5518 251.574 97.7438 252.122 97.9008C251.817 98.4068 251.8 99.0738 252.079 99.5938C252.358 100.114 252.923 100.47 253.513 100.496C253.003 100.793 252.884 101.59 253.285 102.023C253.408 102.155 253.566 102.253 253.682 102.391C253.876 102.622 253.932 102.938 254.079 103.202C254.226 103.466 254.558 103.688 254.82 103.535C255.022 101.786 257.018 100.894 257.966 99.4108C258.618 98.3898 258.744 97.1028 258.559 95.9058C258.374 94.7088 257.904 93.5768 257.436 92.4598C257.03 91.4918 256.604 90.4968 255.851 89.7658C254.861 88.8038 253.453 88.4338 252.106 88.1358C246.064 86.7988 239.801 86.1808 233.672 87.0398C232.091 87.2618 230.44 87.6208 229.255 88.6908C227.921 89.8948 227.305 93.2108 229.492 93.8608C230.226 94.0788 231.046 94.0188 231.717 93.6368Z" fill="#8C4A38"/>
<path d="M243.313 103.123C243.382 103.703 243.759 104.135 244.155 104.088C244.551 104.041 244.817 103.533 244.748 102.953C244.679 102.373 244.302 101.941 243.906 101.988C243.51 102.034 243.244 102.542 243.313 103.123Z" fill="#15191C"/>
<path d="M232.009 103.683C232.078 104.263 232.455 104.695 232.851 104.648C233.247 104.601 233.513 104.093 233.444 103.513C233.375 102.933 232.998 102.501 232.602 102.548C232.205 102.594 231.94 103.103 232.009 103.683Z" fill="#15191C"/>
<path d="M230.17 100.09C230.047 100.09 229.922 100.052 229.815 99.9739C229.547 99.7779 229.488 99.4009 229.685 99.1329C231.685 96.3989 235.762 97.4268 235.937 97.4728C236.258 97.5558 236.45 97.8838 236.366 98.2058C236.281 98.5278 235.95 98.7189 235.632 98.6379C235.599 98.6269 232.17 97.7748 230.656 99.8428C230.538 100.004 230.355 100.09 230.17 100.09Z" fill="#171E26"/>
<path d="M238.362 114.339C236.826 114.339 235.782 114.131 235.749 114.124C235.657 114.105 235.599 114.015 235.617 113.922C235.636 113.83 235.724 113.772 235.819 113.79C235.921 113.815 246.122 115.84 249.845 106.795C249.881 106.709 249.979 106.662 250.067 106.702C250.154 106.737 250.196 106.837 250.16 106.924C247.524 113.328 241.746 114.339 238.362 114.339Z" fill="#442218"/>
<path d="M248.713 101.032C248.501 101.032 248.296 100.92 248.186 100.722C246.238 97.1959 241.375 98.8209 241.168 98.8909C240.852 98.9979 240.512 98.8319 240.403 98.5179C240.295 98.2039 240.461 97.8619 240.775 97.7529C242.85 97.0319 247.289 96.6059 249.24 100.138C249.401 100.43 249.295 100.795 249.005 100.956C248.912 101.008 248.812 101.032 248.713 101.032Z" fill="#171E26"/>
<path d="M231.619 91.9659C232.009 92.6499 232.784 93.0969 233.571 93.0909C234.358 93.0849 235.127 92.6269 235.506 91.9369C236.584 93.1079 238.701 93.0609 239.726 91.8439C239.764 92.7129 240.629 93.3659 241.494 93.4549C242.359 93.5439 243.207 93.2069 243.994 92.8379C244.448 93.5369 245.389 93.7869 246.212 93.6569C247.036 93.5269 247.773 93.0889 248.488 92.6599C248.598 93.3979 249.258 93.9589 249.972 94.1779C250.686 94.3979 251.451 94.3429 252.195 94.2869C251.677 94.9679 251.566 95.9359 251.915 96.7159C252.265 97.4969 253.061 98.0579 253.914 98.1239C253.32 98.6489 253.107 99.5609 253.406 100.295C253.706 101.029 254.497 101.531 255.288 101.49C254.673 101.448 254.17 102.113 254.235 102.726C254.3 103.339 254.794 103.839 255.359 104.087C255.869 104.311 256.525 104.342 256.928 103.959C256.77 104.432 257.054 105.005 257.525 105.167C257.996 105.329 258.572 105.05 258.738 104.581C260.106 105.375 261.852 104.668 263.153 103.768C263.883 103.262 264.61 102.64 264.85 101.785C265.09 100.93 264.601 99.8289 263.717 99.7399C264.822 99.3189 265.927 98.6649 266.427 97.5939C266.927 96.5229 266.529 94.9879 265.399 94.6389C266.348 93.9749 267.355 93.2349 267.71 92.1329C268.066 91.0309 267.34 89.5399 266.184 89.6089C266.744 88.7559 267.189 87.7659 267.1 86.7499C267.011 85.7339 266.239 84.7259 265.221 84.6629C265.266 84.0489 265.478 83.4589 265.58 82.8519C265.682 82.2439 265.658 81.5709 265.285 81.0799C264.912 80.5899 264.101 80.4129 263.674 80.8569C263.815 80.3259 263.955 79.7519 263.759 79.2389C263.563 78.7259 262.876 78.3729 262.444 78.7129C262.159 77.7429 260.963 77.1579 260.023 77.5269C260.292 76.3279 259.675 74.9859 258.589 74.4089C257.504 73.8319 256.046 74.0709 255.202 74.9639C254.634 74.2049 253.359 74.1299 252.706 74.8179C252.504 73.7969 251.037 73.3079 250.263 74.0039C249.298 73.0209 248.153 72.1099 246.793 71.8959C245.432 71.6809 243.847 72.3969 243.505 73.7309C243.227 73.2849 242.524 73.3019 242.112 73.6289C241.7 73.9549 241.505 74.4779 241.33 74.9739C240.421 74.1949 238.809 74.5199 238.273 75.5899C237.711 75.0339 236.979 74.5849 236.189 74.5989C235.399 74.6139 234.594 75.2319 234.59 76.0219C233.703 75.7039 232.668 75.6529 231.855 76.1299C231.042 76.6069 230.573 77.7089 231.001 78.5489C230.168 78.4559 229.299 78.8639 228.838 79.5629C228.377 80.2629 228.346 81.2229 228.76 81.9509C227.954 82.0719 227.157 82.5309 226.827 83.2759C226.497 84.0209 226.786 85.0409 227.541 85.3479C226.295 85.6759 225.824 87.5449 226.766 88.4239C226.978 88.6219 227.265 88.8299 227.229 89.1179C227.208 89.2879 227.075 89.4179 226.972 89.5539C226.502 90.1709 226.625 91.1559 227.232 91.6379C226.708 91.6309 226.356 92.2859 226.53 92.7809C226.704 93.2759 227.235 93.5699 227.755 93.6339C227.211 93.8969 226.862 94.5169 226.919 95.1189C226.976 95.7209 227.436 96.2639 228.02 96.4199C227.643 96.4789 227.673 97.0309 227.806 97.3879C227.915 97.6799 228.043 97.9959 228.315 98.1479C228.81 98.4259 229.452 97.9339 229.544 97.3739C229.671 96.5969 229.263 96.0049 229.383 95.2219C229.53 94.2679 229.68 93.4719 229.299 92.5319C229.728 92.8909 232.105 92.8179 231.619 91.9659Z" fill="#171E26"/>
<path d="M261.52 105.077C261.556 107.02 260.01 108.625 258.067 108.661C256.124 108.697 254.52 107.151 254.484 105.208C254.448 103.265 255.994 101.661 257.937 101.625C259.88 101.588 261.484 103.134 261.52 105.077Z" fill="#A05E47"/>
<path d="M258.107 107.742C258.056 107.742 258.006 107.72 257.972 107.676C257.914 107.602 257.929 107.494 258.003 107.436C258.935 106.714 259.396 105.942 259.373 105.144C259.334 103.75 257.84 102.703 257.825 102.694C257.747 102.64 257.727 102.534 257.78 102.457C257.835 102.378 257.941 102.361 258.017 102.412C258.085 102.459 259.67 103.569 259.715 105.135C259.741 106.048 259.235 106.914 258.212 107.707C258.18 107.73 258.144 107.742 258.107 107.742Z" fill="#663022"/>
<path d="M256.93 106.529C256.92 106.529 256.909 106.528 256.897 106.525C256.804 106.507 256.744 106.418 256.763 106.325C256.915 105.55 257.253 105.007 257.772 104.712C258.581 104.251 259.51 104.573 259.549 104.587C259.637 104.619 259.683 104.716 259.652 104.804C259.62 104.893 259.524 104.936 259.435 104.909C259.428 104.906 258.606 104.626 257.938 105.009C257.511 105.253 257.228 105.718 257.096 106.39C257.082 106.472 257.011 106.529 256.93 106.529Z" fill="#663022"/>
<path d="M234.664 105.467C233.95 106.262 233.975 107.611 234.717 108.38C235.273 108.956 236.096 109.172 236.881 109.328C237.659 109.483 238.453 109.603 239.244 109.544C240.035 109.484 240.831 109.231 241.431 108.713C241.954 108.261 242.307 107.617 242.406 106.934C242.471 106.488 242.426 106.014 242.206 105.62C241.987 105.226 241.575 104.925 241.125 104.908" stroke="#663022" stroke-width="0.4252" stroke-miterlimit="10" stroke-linecap="round" stroke-linejoin="round"/>
<path d="M240.121 109.388C240.121 109.388 239.96 107.034 242.405 106.933" stroke="#663022" stroke-width="0.4252" stroke-miterlimit="10" stroke-linecap="round" stroke-linejoin="round"/>
<path d="M234.144 106.933C234.144 106.933 236.028 107.249 236.136 109.15" stroke="#663022" stroke-width="0.4252" stroke-miterlimit="10" stroke-linecap="round" stroke-linejoin="round"/>
<path d="M247.394 213.917C243.259 199.132 247.862 193.936 247.862 193.936C247.862 193.936 254.433 187.13 255.73 174.807C256.919 163.51 260.085 144.28 260.085 144.28" stroke="#2F61B2" stroke-width="0.2835" stroke-miterlimit="10" stroke-linecap="round" stroke-linejoin="round"/>
<path d="M238.624 144.28C238.624 144.28 240.549 171.232 241.261 177.935C241.974 184.638 245.918 192.254 247.725 193.936" stroke="#2F61B2" stroke-width="0.2835" stroke-miterlimit="10" stroke-linecap="round" stroke-linejoin="round"/>
<path opacity="0.6" d="M281.948 186.036C281.57 179.325 281.192 172.615 280.813 165.904C280.322 157.231 280.355 148.335 279.307 139.707C279.3 139.651 279.279 139.498 279.241 139.277L265.409 144.091C265.552 144.677 275.573 171.394 252.813 176.414L240.371 185.577L231.259 189.095H225.8C225.909 189.462 226.019 189.829 226.12 190.196C226.609 191.974 226.867 193.857 226.498 195.664C226.288 196.689 225.78 197.808 226.072 198.856C226.308 199.704 226.355 200.437 226.377 201.334C226.381 201.489 226.391 201.639 226.401 201.791C238.033 198.64 262.284 193.615 282.242 199.671C283.461 195.646 282.129 189.256 281.948 186.036Z" fill="#6A93E5"/>
<path d="M225.599 165.934C225.599 165.934 223.763 153.38 222.382 149.283" stroke="#2F61B2" stroke-width="0.2835" stroke-miterlimit="10" stroke-linecap="round" stroke-linejoin="round"/>
<path d="M220.225 154.468C220.225 154.468 224.005 158.067 224.995 162.045" stroke="#2F61B2" stroke-width="0.2835" stroke-miterlimit="10" stroke-linecap="round" stroke-linejoin="round"/>
<path d="M225.358 183.533C223.638 183.466 221.969 182.573 220.959 181.18C220.779 180.932 220.61 180.661 220.347 180.504C219.9 180.239 219.331 180.381 218.841 180.553C216.41 181.405 214.159 182.814 211.625 183.279C211.272 183.344 210.872 183.379 210.59 183.158C210.171 182.831 210.274 182.155 210.562 181.708C211.504 180.248 213.848 179.802 214.15 178.09C212.915 177.561 211.56 178.378 210.245 178.652C209.485 178.81 208.658 178.774 207.982 178.394C207.306 178.014 206.821 177.244 206.922 176.474C207.079 175.281 208.392 174.674 209.491 174.183C211.33 173.362 213.044 172.285 214.684 171.116C216.912 169.528 219.277 167.675 222.01 167.796C224.336 167.899 226.324 169.423 228.508 170.232C230.358 170.917 232.537 171.189 233.782 172.72C234.364 173.436 234.655 174.339 234.922 175.222C235.533 177.236 236.334 182.043 232.865 181.567C232.282 181.487 231.725 181.232 231.142 181.161C230.211 181.047 230.125 181.404 229.48 181.995C228.37 183.013 226.869 183.592 225.358 183.533Z" fill="#A05E47"/>
<path d="M213.656 179.099C213.656 179.099 215.542 176.124 216.211 174.383" stroke="#663022" stroke-width="0.4252" stroke-miterlimit="10" stroke-linecap="round" stroke-linejoin="round"/>
<path d="M208.086 176.741C208.086 176.741 213.309 175.544 216.479 171.704" stroke="#663022" stroke-width="0.4252" stroke-miterlimit="10" stroke-linecap="round" stroke-linejoin="round"/>
<path d="M293.254 176.092L277.33 134.36C275.656 129.973 270.745 127.773 266.353 129.446C261.964 131.12 259.765 136.035 261.439 140.423L272.961 170.62H232.779C232.779 170.62 230.094 177.061 232.779 187.628H285.307C288.105 187.628 290.724 186.252 292.311 183.948C293.9 181.644 294.251 178.707 293.254 176.092Z" fill="#8AAAF9"/>
<path d="M262.839 144.091L272.962 170.62L239.173 170.845L232.781 170.62C232.781 170.62 229.913 177.203 232.781 187.628" stroke="#2F61B2" stroke-width="0.2835" stroke-miterlimit="10" stroke-linecap="round" stroke-linejoin="round"/>
<path d="M273.107 170.752C274.932 171.444 276.613 172.516 278.009 173.88" stroke="#2F61B2" stroke-width="0.2835" stroke-miterlimit="10" stroke-linecap="round" stroke-linejoin="round"/>
<path d="M273.591 170.27C274.545 170.576 275.512 170.841 276.489 171.063" stroke="#2F61B2" stroke-width="0.2835" stroke-miterlimit="10" stroke-linecap="round" stroke-linejoin="round"/>
<path d="M272.619 171.939C273.566 172.597 274.492 173.286 275.393 174.006" stroke="#2F61B2" stroke-width="0.2835" stroke-miterlimit="10" stroke-linecap="round" stroke-linejoin="round"/>
<path d="M279.06 138.892L290.613 169.17" stroke="#2F61B2" stroke-width="0.2835" stroke-miterlimit="10" stroke-linecap="round" stroke-linejoin="round"/>
<path d="M259.637 146.838C259.637 146.838 263.406 126.367 271.726 127.362L275.469 131.006C275.469 131.006 282.201 116.08 258.002 114.339L257.37 123.499C257.37 123.499 261.001 126.336 259.637 146.838Z" fill="#6A93E5"/>
<path d="M238.56 145.756C238.56 145.756 237.153 131 229.569 129.989C229.569 129.989 222.46 120.867 231.017 117.579C231.017 117.579 234.543 123.228 242.015 122.864L241.902 124.416C241.902 124.416 238.943 125.322 238.251 125.552C237.559 125.782 238.955 140.891 238.56 145.756Z" fill="#6A93E5"/>
<path opacity="0.6" d="M257.369 123.498C257.369 123.498 258.89 124.695 259.593 131.097C260.579 126.529 263.265 120.446 270.448 117.411C267.687 115.9 263.714 114.749 258.001 114.338L257.369 123.498Z" fill="#6A93E5"/>
<path opacity="0.6" d="M241.902 124.416L242.015 122.864C234.543 123.228 231.017 117.579 231.017 117.579C228.426 118.574 227.276 120.106 226.926 121.756C229.835 121.751 235.185 122.244 238.214 125.591C238.226 125.575 238.237 125.555 238.251 125.551C238.943 125.322 241.902 124.416 241.902 124.416Z" fill="#6A93E5"/>
<path d="M259.922 132.013C259.922 132.013 259.5 123.736 266.849 119.509" stroke="#2F61B2" stroke-width="0.2835" stroke-miterlimit="10" stroke-linecap="round" stroke-linejoin="round"/>
<path d="M231.257 121.847C231.257 121.847 236.53 122.911 238.25 125.552" stroke="#2F61B2" stroke-width="0.2835" stroke-miterlimit="10" stroke-linecap="round" stroke-linejoin="round"/>
<path d="M263.92 133.705C263.92 133.705 267.912 123.859 274.74 128.526" stroke="#2F61B2" stroke-width="0.2835" stroke-miterlimit="10" stroke-linecap="round" stroke-linejoin="round"/>
<path d="M212.038 187.89H157.912C157.754 187.89 157.609 187.761 157.59 187.603L152.706 147.821C152.687 147.663 152.8 147.534 152.958 147.534H207.084C207.242 147.534 207.387 147.663 207.406 147.821L212.291 187.603C212.309 187.761 212.195 187.89 212.038 187.89Z" fill="#2A2A2B"/>
<path d="M178.187 172.274C178.605 172.661 179.187 172.811 179.75 172.894C180.664 173.028 181.671 172.997 182.412 172.444C183.338 171.753 183.572 170.475 183.627 169.321C183.737 166.997 182.343 164.424 180.522 167.023C179.64 168.284 176.353 170.576 178.187 172.274Z" fill="white"/>
<path d="M178.86 162.311C178.86 162.311 176.995 165.212 180.637 165.934C180.637 165.934 182.179 163.288 178.86 162.311Z" fill="white"/>
<path d="M259.478 105.519C259.482 105.491 259.472 105.466 259.474 105.438C259.49 105.354 259.496 105.296 259.492 105.288C259.486 105.275 259.473 105.271 259.466 105.26C259.439 104.637 259.004 104.094 258.364 103.994C257.635 103.88 256.953 104.379 256.839 105.107C256.748 105.692 257.06 106.231 257.559 106.487C256.926 107.775 255.938 109.032 255.938 109.032C256.17 109.727 256.94 109.699 256.94 109.699C258.621 107.972 259.233 106.378 259.421 105.671C259.437 105.618 259.47 105.575 259.478 105.519Z" fill="white"/>
<path d="M183.052 300.984C185.438 290.961 179.248 280.902 169.225 278.516C159.202 276.129 149.143 282.32 146.757 292.343C144.371 302.365 150.561 312.425 160.584 314.811C170.607 317.197 180.666 311.006 183.052 300.984Z" fill="#C45233"/>
<path d="M147.587 289.739C147.587 289.739 157.868 301.659 183.166 300.503" stroke="#722C1C" stroke-miterlimit="10" stroke-linejoin="round"/>
<path d="M155.266 280.69C155.266 280.69 161.956 299.266 147.987 304.519" stroke="#722C1C" stroke-miterlimit="10" stroke-linejoin="round"/>
<path d="M182.233 289.739C182.233 289.739 172.482 295.315 174.053 312.923" stroke="#722C1C" stroke-miterlimit="10" stroke-linejoin="round"/>
<path d="M168.261 278.579C168.261 278.579 171.685 297.433 157.864 313.937" stroke="#722C1C" stroke-miterlimit="10" stroke-linejoin="round"/>
<path d="M183.564 296.662C183.564 286.359 175.212 278.007 164.909 278.007C161.153 278.007 157.664 279.127 154.737 281.036C155.886 280.815 157.069 280.69 158.282 280.69C168.585 280.69 176.937 289.042 176.937 299.345C176.937 305.892 173.557 311.642 168.454 314.971C177.06 313.313 183.564 305.751 183.564 296.662Z" fill="#D1D3D4"/>
<path d="M110.508 187.869C110.508 187.869 150.528 186.549 168.027 188.219C168.027 188.219 162.194 188.161 158.875 188.336C155.555 188.511 130.251 188.317 126.122 188.278C121.993 188.238 110.508 187.869 110.508 187.869Z" fill="#BCBEC0"/>
<path d="M149.113 164.629C149.113 164.629 150.186 159.612 152.158 158.178C152.158 158.178 154.132 161.761 153.952 165.525C153.952 165.525 161.118 163.733 163.986 170.006C163.986 170.006 166.316 164.093 169.362 165.167C172.409 166.242 169.72 172.335 167.928 173.231C167.928 173.231 166.673 181.473 163.807 182.729C160.941 183.984 169.801 181.996 169.362 185.955C168.923 189.913 168.204 188.763 166.407 188.763C164.61 188.763 159.326 187.165 159.326 187.165C159.326 187.165 156.462 191.033 150.009 188.763H141.586L139.973 187.165C139.973 187.165 138.001 189.091 132.984 187.165C127.967 185.239 125.51 186.115 121.695 187.165C117.88 188.215 106.461 189.183 106.461 178.43C106.461 167.677 113.629 169.111 113.629 169.111C113.629 169.111 117.571 156.028 132.267 156.745C146.962 157.461 149.113 164.629 149.113 164.629Z" fill="#FBB040"/>
<g opacity="0.4">
<path d="M135.917 184.118C133.155 183.086 129.786 183.489 126.973 184.063C124.043 184.66 120.756 185.881 117.721 185.582C114.095 185.226 111.05 183.544 109.255 180.306C107.869 177.804 107.865 174.986 108.449 172.255C108.552 171.775 108.628 171.296 108.658 170.841C107.431 172.176 106.459 174.474 106.459 178.429C106.459 189.182 117.877 188.213 121.693 187.164C125.508 186.114 127.965 185.238 132.982 187.164C137.999 189.09 139.971 187.164 139.971 187.164L139.996 187.189C139.982 187.145 139.971 187.088 139.957 187.049C139.411 185.565 137.332 184.648 135.917 184.118Z" fill="#BDB09B"/>
</g>
<path opacity="0.4" d="M113.016 172.797C112.823 174.162 114.232 175.095 115.164 175.856C117.187 177.508 119.561 178.513 122.206 178.589C124.98 178.667 127.335 177.352 129.909 176.688C130.681 178.472 133.846 177.207 135.248 177.773C136.02 178.086 137.045 178.773 137.856 179.164C138.665 179.553 139.129 180.21 139.605 180.92C137.089 179.344 134.011 178.96 131.056 179.249C128.39 179.509 125.897 180.718 123.243 180.959C119.166 181.331 112.888 179.778 112.676 174.835C112.646 174.123 112.752 173.521 113.016 172.909" fill="#BDB09B"/>
<path opacity="0.4" d="M146.281 167.42C145.699 168.441 144.978 169.362 144.413 170.398C143.806 171.506 143.432 172.723 142.995 173.905C142.386 175.55 141.952 177.564 142.405 179.301C142.766 180.685 143.249 182.265 144.411 183.201C145.144 183.792 146.222 184.779 147.254 184.692C146.344 183.472 145.344 182.555 144.809 181.063C144.288 179.609 143.842 178.214 143.662 176.687C143.441 174.825 143.804 172.778 144.425 171.031C144.875 169.764 145.685 168.638 146.447 167.559C146.417 167.538 146.387 167.518 146.357 167.499" fill="#8E8476"/>
<path d="M135.952 179.022C135.403 178.434 135.821 177.057 135.589 176.305C134.304 176.163 132.93 176.62 131.632 176.558C131.275 176.542 130.338 176.19 130.044 176.381C129.747 176.574 129.516 177.811 129.375 178.162C129.194 178.606 129.051 179.205 128.702 179.552H128.745C129.149 179.221 130.248 179.398 130.758 179.295C132.103 179.019 133.199 179.006 134.543 179.295C135.632 179.529 136.664 179.711 137.657 180.093C137.487 180.01 137.317 179.925 137.167 179.81C136.834 179.558 136.222 179.31 135.952 179.022Z" fill="white"/>
<path d="M150.122 189.102C156.575 191.372 159.439 187.503 159.439 187.503C159.439 187.503 164.723 189.102 166.52 189.102C168.317 189.102 169.036 190.253 169.475 186.294C169.912 182.35 161.123 184.308 163.897 183.079C163.828 183.058 163.761 183.029 163.69 183.012C162.012 182.598 160.953 184.453 159.675 185.191C159.337 185.388 159.172 185.474 158.742 185.308C158.303 185.138 157.806 184.802 157.388 184.566C156.655 184.157 155.892 183.633 155.023 183.757C154.094 183.888 153.208 184.221 152.311 184.492C151.205 184.827 150.357 185.639 149.271 186.016C148.428 186.31 147.287 185.796 146.426 185.657C146.24 185.627 145.969 185.483 145.804 185.485C145.372 185.489 145.282 186.032 144.933 186.184C144.138 186.536 142.446 185.747 141.784 185.267C141.579 185.118 141.462 184.998 141.381 184.863C141.31 185.757 140.96 186.557 140.32 187.262C140.277 187.308 140.2 187.409 140.111 187.528L141.699 189.102H150.122Z" fill="white"/>
<path opacity="0.4" d="M166.494 183.221C166.476 183.414 164.566 184.441 164.138 184.896C163.619 185.448 162.906 187.185 162.391 187.532C161.534 188.105 160.247 187.176 159.261 187.056C159.293 186.221 159.096 185.808 159.461 185.07C159.955 184.075 161.155 183.133 162.189 182.886C163.72 182.518 164.951 183.423 166.381 183.449" fill="#BDB09B"/>
<path d="M158.223 165.546C155.357 167.966 156.545 171.618 154.261 174.157C152.799 175.78 150.497 175.825 148.773 176.91C147.571 177.668 146.912 178.174 145.533 178.655C142.656 179.661 145.144 182.277 146.553 183.982C148.632 186.5 152.824 183.401 155.666 183.825C156.534 183.954 157.029 184.567 157.477 183.828C157.969 183.017 156.942 181.401 156.567 180.781C154.869 177.973 155.5 176.785 156.495 173.888C157.256 171.666 157.569 170.046 158.915 168.115C159.303 167.557 159.929 166.764 159.62 166.113C159.257 165.355 158.08 165.396 157.62 166.15" fill="white"/>
<path opacity="0.4" d="M152.377 159.336C151.784 160.343 151.055 161.068 150.798 162.252C150.582 163.251 150.637 164.247 150.506 165.26C150.373 166.281 150.023 166.91 149.501 167.792C148.72 169.107 147.915 170.35 147.251 171.726C146.456 173.369 146.3 175.336 146.465 177.15C146.663 179.336 148.265 183.293 150.944 183.206C152.443 183.158 153.784 182.44 155.251 182.206C156.531 182.002 157.88 183.337 159.112 182.473C159.376 182.289 159.413 182.002 159.656 181.818C159.81 181.701 160.15 181.604 160.33 181.515C160.72 181.329 160.985 181.256 161.403 181.235C162.612 181.175 163.214 180.63 164.275 180.12C164.879 179.831 166.099 179.229 166.118 180.506C166.125 181.041 165.559 181.658 165.203 182.028C164.495 182.761 163.348 182.75 162.408 183.057C161.769 183.264 161.302 183.496 160.767 183.91C160.264 184.298 159.584 185.107 158.923 185.202C158.325 185.287 157.445 184.476 156.942 184.191C156.273 183.812 155.386 183.302 154.589 183.297C153.27 183.286 152.153 184.623 150.916 185.011C149.548 185.441 148.068 185.788 146.912 184.744C146.269 184.165 145.915 183.377 145.476 182.65C144.855 181.62 144.354 180.637 144.053 179.462C143.742 178.239 143.703 176.92 143.515 175.666C143.318 174.363 143.501 173.356 143.811 172.083C144.301 170.063 145.707 168.273 147.109 166.758C147.84 165.967 148.663 165.211 149.288 164.327C149.708 163.734 149.87 163.006 150.141 162.339C150.499 161.459 150.722 160.537 151.263 159.737C151.492 159.397 152.077 158.413 152.518 158.415C152.511 158.601 152.557 158.792 152.672 158.946" fill="#BDB09B"/>
<path d="M139.767 187.272C141.348 185.962 141.93 184.252 140.811 182.393C139.6 180.38 136.449 179.343 134.22 179.231C129.259 178.981 124.772 181.311 119.785 181.072C117.112 180.944 113.249 178.613 112.732 175.805C112.566 174.899 112.589 173.774 112.888 172.91C113.079 172.361 113.529 171.901 113.578 171.308C113.607 170.956 113.433 170.667 113.392 170.327C113.275 169.336 114.026 168.295 114.497 167.457" stroke="#C1812B" stroke-width="0.5669" stroke-miterlimit="10" stroke-linecap="round" stroke-linejoin="round"/>
<path d="M128.62 179.801C128.62 179.801 134.083 172.968 127.478 165.847" stroke="#C1812B" stroke-width="0.5669" stroke-miterlimit="10" stroke-linecap="round" stroke-linejoin="round"/>
<path d="M135.69 179.114C135.69 179.114 135.058 175.552 136.781 174.462C138.503 173.372 139.767 168.663 139.767 168.663" stroke="#C1812B" stroke-width="0.5669" stroke-miterlimit="10" stroke-linecap="round" stroke-linejoin="round"/>
<path d="M151.79 180.507C150.266 181.276 148.904 179.974 149.163 178.399C150.09 178.314 154.056 179.365 151.79 180.507Z" fill="#F09BA2"/>
<path d="M165.58 172.541C165.69 172.27 165.583 171.85 165.576 171.573C165.557 170.831 165.693 170.178 165.952 169.477C166.322 168.468 167.037 167.323 168.057 166.845C169.518 166.16 169.647 167.654 169.454 168.769C169.215 170.145 168.192 171.522 167.009 172.249C166.473 172.58 165.58 173.007 165.531 172.051" fill="#F09BA2"/>
<path d="M151.391 166.233C150.6 166.985 150.41 165.847 150.419 165.309C150.437 164.298 150.252 163.385 150.545 162.381C150.711 161.8 150.954 160.897 151.505 160.595C152.121 161.393 151.948 162.895 151.937 163.847C151.928 164.569 151.972 165.681 151.391 166.233Z" fill="#F09BA2"/>
<path d="M156.706 176.894C156.706 176.894 157.138 179.025 159.93 178.277" stroke="#524A40" stroke-width="0.5669" stroke-miterlimit="10" stroke-linecap="round" stroke-linejoin="round"/>
<path d="M148.435 173.042C148.435 173.042 148.867 175.173 151.659 174.425" stroke="#524A40" stroke-width="0.5669" stroke-miterlimit="10" stroke-linecap="round" stroke-linejoin="round"/>
<path d="M352.35 193.953H103.749C103.364 193.953 103.049 193.638 103.049 193.253V188.128C103.049 187.743 103.364 187.428 103.749 187.428H352.35C352.735 187.428 353.05 187.743 353.05 188.128V193.254C353.05 193.638 352.735 193.953 352.35 193.953Z" fill="#DDA878"/>
</svg>
