<svg width="32" height="32" viewBox="0 0 32 32" fill="none" xmlns="http://www.w3.org/2000/svg">
<g clip-path="url(#clip0_54_225)">
<path fill-rule="evenodd" clip-rule="evenodd" d="M3.55556 32H28.4444C30.4081 32 32 30.4081 32 28.4444V3.55556C32 1.59188 30.4081 0 28.4444 0H3.55556C1.59188 0 0 1.59188 0 3.55556V28.4444C0 30.4081 1.59188 32 3.55556 32Z" fill="#007EBB"/>
<path fill-rule="evenodd" clip-rule="evenodd" d="M27.5556 27.5554H22.807V19.4675C22.807 17.25 21.9644 16.0108 20.2092 16.0108C18.2998 16.0108 17.3023 17.3004 17.3023 19.4675V27.5554H12.7259V12.148H17.3023V14.2234C17.3023 14.2234 18.6783 11.6773 21.9478 11.6773C25.2159 11.6773 27.5556 13.673 27.5556 17.8004V27.5554ZM7.26639 10.1306C5.70759 10.1306 4.44446 8.85752 4.44446 7.28745C4.44446 5.71738 5.70759 4.44434 7.26639 4.44434C8.82519 4.44434 10.0876 5.71738 10.0876 7.28745C10.0876 8.85752 8.82519 10.1306 7.26639 10.1306ZM4.90337 27.5554H9.6753V12.148H4.90337V27.5554Z" fill="white"/>
</g>
<defs>
<clipPath id="clip0_54_225">
<rect width="32" height="32" fill="white"/>
</clipPath>
</defs>
</svg>
