<svg width="369" height="540" viewBox="0 0 369 540" fill="none" xmlns="http://www.w3.org/2000/svg">
<g style="mix-blend-mode:plus-lighter" opacity="0.2">
<path fill-rule="evenodd" clip-rule="evenodd" d="M274.258 457.76L274.258 539.538L192.479 539.538L192.479 530.776C192.479 490.45 225.17 457.76 265.496 457.76L274.258 457.76Z" fill="#A3A3A3" fill-opacity="0.2"/>
<path fill-rule="evenodd" clip-rule="evenodd" d="M274.258 449.781L274.258 368.003L192.479 368.003L192.479 376.765C192.479 417.091 225.17 449.781 265.496 449.781L274.258 449.781Z" fill="#A3A3A3" fill-opacity="0.2"/>
<path fill-rule="evenodd" clip-rule="evenodd" d="M192.48 356.035L192.48 275.254L274.259 275.254L274.259 283.909C274.259 323.743 241.568 356.035 201.242 356.035L192.48 356.035Z" fill="#A3A3A3" fill-opacity="0.2"/>
<path fill-rule="evenodd" clip-rule="evenodd" d="M192.48 183.503L192.48 265.281L274.259 265.281L274.259 256.519C274.259 216.193 241.568 183.503 201.242 183.503L192.48 183.503Z" fill="#A3A3A3" fill-opacity="0.2"/>
<path fill-rule="evenodd" clip-rule="evenodd" d="M369.002 183.503L369.002 265.281L287.224 265.281L287.224 256.519C287.224 216.193 319.914 183.503 360.24 183.503L369.002 183.503Z" fill="#A3A3A3" fill-opacity="0.2"/>
<path fill-rule="evenodd" clip-rule="evenodd" d="M287.223 355.038L287.223 273.259L369.001 273.259L369.001 282.021C369.001 322.347 336.31 355.038 295.985 355.038L287.223 355.038Z" fill="#A3A3A3" fill-opacity="0.2"/>
<path fill-rule="evenodd" clip-rule="evenodd" d="M287.223 447.786L287.223 367.005L369.001 367.005L369.001 375.66C369.001 415.495 336.31 447.786 295.985 447.786L287.223 447.786Z" fill="#A3A3A3" fill-opacity="0.2"/>
<path d="M287.223 537.038L289.268 537.038L289.268 537.494L289.723 537.494L289.723 539.538L293.356 539.538L293.356 537.038L297.445 537.038L297.445 539.538L301.534 539.538L301.534 537.038L305.623 537.038L305.623 539.538L309.712 539.538L309.712 537.038L313.801 537.038L313.801 539.538L317.89 539.538L317.89 537.038L321.979 537.038L321.979 539.538L326.067 539.538L326.067 537.038L330.156 537.038L330.156 539.538L334.245 539.538L334.245 537.038L338.334 537.038L338.334 539.538L342.423 539.538L342.423 537.038L346.512 537.038L346.512 539.538L350.601 539.538L350.601 537.038L354.689 537.038L354.689 539.538L358.778 539.538L358.778 537.038L362.867 537.038L362.867 539.538L366.501 539.538L366.501 537.347L366.957 537.347L366.957 537.038L369.001 537.038L369.001 532.967L366.501 532.967L366.501 530.776C366.501 530.113 366.492 529.451 366.474 528.792L368.972 528.722C368.934 527.35 368.857 525.986 368.744 524.634L366.255 524.841C366.145 523.52 365.998 522.209 365.816 520.91L368.292 520.563C368.102 519.205 367.873 517.859 367.609 516.526L365.159 517.011C364.902 515.713 364.609 514.427 364.282 513.156L366.703 512.533L366.703 512.532C366.362 511.205 365.982 509.892 365.569 508.595L363.189 509.354C362.788 508.094 362.352 506.849 361.883 505.621L364.218 504.727C363.729 503.449 363.205 502.188 362.647 500.945L360.367 501.968C359.827 500.762 359.254 499.574 358.649 498.405L360.867 497.256C360.238 496.041 359.578 494.846 358.884 493.673L356.732 494.945C356.061 493.809 355.358 492.692 354.625 491.597L356.701 490.207C355.941 489.071 355.149 487.958 354.328 486.868L352.333 488.373C351.539 487.319 350.715 486.288 349.864 485.281L351.772 483.667C350.891 482.624 349.98 481.606 349.042 480.614L347.227 482.332C346.32 481.373 345.387 480.44 344.429 479.534L346.146 477.718C345.154 476.78 344.136 475.869 343.093 474.987L341.479 476.896C340.473 476.045 339.442 475.222 338.388 474.428L339.892 472.431C338.802 471.61 337.689 470.819 336.553 470.058L335.163 472.136C334.069 471.403 332.952 470.7 331.815 470.028L333.087 467.876C331.913 467.182 330.718 466.521 329.504 465.892L328.355 468.111C327.187 467.506 325.999 466.934 324.793 466.393L325.814 464.112C324.571 463.555 323.31 463.031 322.031 462.543L321.14 464.878C319.911 464.409 318.666 463.972 317.406 463.571L318.164 461.19C316.867 460.777 315.555 460.398 314.228 460.056L313.604 462.478C312.333 462.151 311.047 461.858 309.749 461.601L310.233 459.15C308.901 458.887 307.555 458.658 306.197 458.468L306.197 458.469L305.851 460.944C304.552 460.762 303.241 460.616 301.92 460.506L302.126 458.015C300.773 457.903 299.41 457.826 298.037 457.788L297.969 460.287C297.31 460.269 296.648 460.26 295.984 460.26L293.794 460.26L293.794 457.76L289.723 457.76L289.723 459.804L289.413 459.804L289.413 460.26L287.223 460.26L287.223 463.893L289.723 463.893L289.723 467.982L287.223 467.982L287.223 472.071L289.723 472.071L289.723 476.16L287.223 476.16L287.223 480.249L289.723 480.249L289.723 484.338L287.223 484.338L287.223 488.427L289.723 488.427L289.723 492.515L287.223 492.515L287.223 496.604L289.723 496.604L289.723 500.693L287.223 500.693L287.223 504.782L289.723 504.782L289.723 508.871L287.223 508.871L287.223 512.96L289.723 512.96L289.723 517.049L287.223 517.049L287.223 521.137L289.723 521.137L289.723 525.226L287.223 525.226L287.223 529.315L289.723 529.315L289.723 533.404L287.223 533.404L287.223 537.038Z" stroke="#A3A3A3" stroke-opacity="0.3" stroke-width="5" stroke-dasharray="4 4"/>
<path d="M81.7793 353.535L79.7344 353.535L79.7344 353.991L79.2793 353.991L79.2793 356.035L75.6455 356.035L75.6455 353.535L71.5566 353.535L71.5566 356.035L67.4678 356.035L67.4678 353.535L63.3789 353.535L63.3789 356.035L59.29 356.035L59.29 353.535L55.2012 353.535L55.2012 356.035L51.1123 356.035L51.1123 353.535L47.0234 353.535L47.0234 356.035L42.9346 356.035L42.9346 353.535L38.8457 353.535L38.8457 356.035L34.7568 356.035L34.7568 353.535L30.668 353.535L30.668 356.035L26.5791 356.035L26.5791 353.535L22.4902 353.535L22.4902 356.035L18.4014 356.035L18.4014 353.535L14.3125 353.535L14.3125 356.035L10.2236 356.035L10.2236 353.535L6.13476 353.535L6.13476 356.035L2.50097 356.035L2.50097 353.845L2.04492 353.845L2.04492 353.535L0.000973097 353.535L0.000973275 349.464L2.50097 349.464L2.50097 347.273C2.50097 346.61 2.51012 345.948 2.52832 345.289L0.0302703 345.22C0.0681803 343.847 0.145124 342.484 0.25781 341.131L2.74707 341.338C2.8571 340.017 3.00375 338.706 3.18554 337.407L0.709958 337.06C0.900041 335.702 1.12884 334.356 1.39258 333.023L3.84277 333.509C4.09961 332.21 4.39269 330.925 4.71972 329.653L2.29883 329.03L2.29883 329.029C2.64025 327.702 3.01955 326.39 3.43261 325.093L5.8125 325.851C6.21381 324.591 6.64998 323.346 7.11914 322.118L4.78418 321.225C5.27259 319.946 5.79744 318.685 6.35449 317.442L8.63476 318.465C9.17507 317.259 9.74757 316.071 10.3525 314.902L8.13476 313.753C8.76349 312.538 9.42444 311.343 10.1182 310.17L12.2695 311.442C12.9414 310.306 13.6442 309.189 14.377 308.095L12.3008 306.704C13.0612 305.568 13.8525 304.455 14.6738 303.365L16.6689 304.87C17.4634 303.816 18.2866 302.785 19.1377 301.778L17.2295 300.164C18.1112 299.121 19.022 298.103 19.96 297.111L21.7754 298.829C22.6818 297.871 23.6148 296.938 24.5732 296.031L22.8564 294.215C23.8482 293.277 24.866 292.366 25.9092 291.484L27.5225 293.393C28.5293 292.542 29.5603 291.719 30.6143 290.925L29.1104 288.929C30.2 288.107 31.3133 287.316 32.4492 286.556L33.8389 288.633C34.9334 287.9 36.0499 287.197 37.1865 286.525L35.915 284.373C37.0885 283.679 38.2835 283.018 39.498 282.39L40.6465 284.608C41.8151 284.003 43.0034 283.431 44.209 282.891L43.1875 280.609C44.4306 280.052 45.6919 279.528 46.9707 279.04L47.8623 281.375C49.0906 280.906 50.3356 280.47 51.5957 280.068L50.8379 277.687C52.1349 277.274 53.4471 276.895 54.7744 276.554L55.3975 278.975C56.6689 278.648 57.9547 278.355 59.2529 278.099L58.7686 275.647C60.1013 275.384 61.4469 275.155 62.8047 274.965L62.8047 274.966L63.1514 277.441C64.4504 277.26 65.761 277.113 67.082 277.003L66.876 274.513C68.2288 274.4 69.5921 274.323 70.9648 274.285L71.0332 276.784C71.6923 276.766 72.354 276.757 73.0176 276.757L75.208 276.757L75.208 274.257L79.2793 274.257L79.2793 276.302L79.5889 276.302L79.5889 276.757L81.7793 276.757L81.7793 280.391L79.2793 280.391L79.2793 284.479L81.7793 284.479L81.7793 288.568L79.2793 288.568L79.2793 292.657L81.7793 292.657L81.7793 296.746L79.2793 296.746L79.2793 300.835L81.7793 300.835L81.7793 304.924L79.2793 304.924L79.2793 309.013L81.7793 309.013L81.7793 313.101L79.2793 313.101L79.2793 317.19L81.7793 317.19L81.7793 321.279L79.2793 321.279L79.2793 325.368L81.7793 325.368L81.7793 329.457L79.2793 329.457L79.2793 333.546L81.7793 333.546L81.7793 337.635L79.2793 337.635L79.2793 341.724L81.7793 341.724L81.7793 345.812L79.2793 345.812L79.2793 349.901L81.7793 349.901L81.7793 353.535Z" stroke="#A3A3A3" stroke-opacity="0.3" stroke-width="5" stroke-dasharray="4 4"/>
<path fill-rule="evenodd" clip-rule="evenodd" d="M81.7793 266.278L81.7793 184.5L0.000924893 184.5L0.00092451 193.262C0.000922747 233.588 32.6915 266.278 73.0173 266.278L81.7793 266.278Z" fill="#A3A3A3" fill-opacity="0.2"/>
<path fill-rule="evenodd" clip-rule="evenodd" d="M0.00195312 172.532L0.00195666 91.7513L81.7803 91.7513L81.7803 100.406C81.7803 140.241 49.0898 172.532 8.76392 172.532L0.00195312 172.532Z" fill="#A3A3A3" fill-opacity="0.2"/>
<path fill-rule="evenodd" clip-rule="evenodd" d="M0.00195312 1.61295e-05L0.00194955 81.7784L81.7803 81.7784L81.7803 73.0164C81.7803 32.6906 49.0898 1.82752e-05 8.76392 1.65125e-05L0.00195312 1.61295e-05Z" fill="#A3A3A3" fill-opacity="0.2"/>
<path d="M176.523 79.7344L175.523 79.7344L175.523 80.7783L174.479 80.7783L174.479 81.7783L170.39 81.7783L170.39 80.7783L166.301 80.7783L166.301 81.7783L162.212 81.7783L162.212 80.7783L158.123 80.7783L158.123 81.7783L154.034 81.7783L154.034 80.7783L149.945 80.7783L149.945 81.7783L145.856 81.7783L145.856 80.7783L141.768 80.7783L141.768 81.7783L137.679 81.7783L137.679 80.7783L133.59 80.7783L133.59 81.7783L129.501 81.7783L129.501 80.7783L125.412 80.7783L125.412 81.7783L121.323 81.7783L121.323 80.7783L117.234 80.7783L117.234 81.7783L113.146 81.7783L113.146 80.7783L109.057 80.7783L109.057 81.7783L104.968 81.7783L104.968 80.7783L100.879 80.7783L100.879 81.7783L96.7891 81.7783L96.7891 80.7783L95.7451 80.7783L95.7451 79.5879L94.7451 79.5879L94.7451 75.207L95.7451 75.207L95.7451 73.0166C95.7451 72.3391 95.7549 71.6632 95.7734 70.9902L94.7744 70.9629C94.8123 69.5901 94.8893 68.2269 95.002 66.874L95.9961 66.957C96.1085 65.608 96.2586 64.2692 96.4443 62.9424L95.4541 62.8037C95.6442 61.4456 95.873 60.0997 96.1367 58.7666L97.1162 58.961C97.3785 57.6349 97.6767 56.3212 98.0107 55.0225L97.043 54.7735L97.043 54.7725C97.3844 53.4452 97.7637 52.1329 98.1768 50.836L99.1279 51.1397C99.5378 49.8526 99.9827 48.5808 100.462 47.3262L99.5283 46.9678C100.017 45.6892 100.542 44.4285 101.099 43.1856L102.01 43.5938C102.562 42.3625 103.147 41.1495 103.765 39.9561L102.879 39.4961C103.508 38.2816 104.169 37.0866 104.862 35.9131L105.722 36.4219C106.408 35.2611 107.127 34.1217 107.875 33.0039L107.045 32.4473C107.805 31.3114 108.597 30.198 109.418 29.1084L110.215 29.711C111.026 28.6347 111.867 27.5818 112.736 26.5537L111.974 25.9072C112.855 24.8641 113.766 23.8463 114.704 22.8545L115.43 23.541C116.355 22.5625 117.308 21.61 118.286 20.6846L117.601 19.958C118.592 19.0201 119.61 18.1093 120.653 17.2276L121.298 17.9912C122.326 17.1221 123.38 16.281 124.456 15.4697L123.854 14.6719C124.944 13.8506 126.057 13.0593 127.193 12.2988L127.749 13.1299C128.867 12.3816 130.006 11.6637 131.167 10.9776L130.659 10.1162C131.833 9.42253 133.028 8.76152 134.242 8.13283L134.701 9.01955C135.895 8.40174 137.108 7.81647 138.339 7.26466L137.932 6.35255C139.175 5.79545 140.436 5.27166 141.715 4.78322L142.071 5.71681C143.326 5.23763 144.598 4.79273 145.885 4.38283L145.582 3.43068C146.879 3.01764 148.191 2.63829 149.519 2.29689L149.768 3.26564C151.066 2.93163 152.379 2.63342 153.705 2.37111L153.513 1.39064C154.845 1.127 156.191 0.898055 157.549 0.708023L157.549 0.709L157.687 1.69923C159.014 1.51355 160.353 1.36336 161.702 1.25099L161.62 0.255875C162.973 0.143211 164.336 0.0662257 165.709 0.028336L165.735 1.02834C166.408 1.00975 167.084 1.00002 167.762 1.00002L169.952 1.00002L169.952 1.58423e-05L174.333 1.60338e-05L174.333 1.00002L175.523 1.00002L175.523 2.04494L176.523 2.04494L176.523 6.13381L175.523 6.13381L175.523 10.2227L176.523 10.2227L176.523 14.3115L175.523 14.3115L175.523 18.4004L176.523 18.4004L176.523 22.4893L175.523 22.4893L175.523 26.5781L176.523 26.5781L176.523 30.667L175.523 30.667L175.523 34.7559L176.523 34.7559L176.523 38.8447L175.523 38.8447L175.523 42.9336L176.523 42.9336L176.523 47.0225L175.523 47.0225L175.523 51.1113L176.523 51.1113L176.523 55.2002L175.523 55.2002L175.523 59.2891L176.523 59.2891L176.523 63.3779L175.523 63.3779L175.523 67.4668L176.523 67.4668L176.523 71.5557L175.523 71.5557L175.523 75.6445L176.523 75.6445L176.523 79.7344Z" stroke="#A3A3A3" stroke-opacity="0.3" stroke-width="2" stroke-dasharray="4 4"/>
<path fill-rule="evenodd" clip-rule="evenodd" d="M94.7441 171.535L94.7441 89.7568L176.523 89.7568L176.523 98.5188C176.523 138.845 143.832 171.535 103.506 171.535L94.7441 171.535Z" fill="#A3A3A3" fill-opacity="0.2"/>
<path d="M0.00195659 458.265L2.04688 458.265L2.04688 457.809L2.50196 457.809L2.50196 455.765L6.13575 455.765L6.13575 458.265L10.2246 458.265L10.2246 455.765L14.3135 455.765L14.3135 458.265L18.4023 458.265L18.4023 455.765L22.4912 455.765L22.4912 458.265L26.5801 458.265L26.5801 455.765L30.6689 455.765L30.6689 458.265L34.7578 458.265L34.7578 455.765L38.8467 455.765L38.8467 458.265L42.9356 458.265L42.9356 455.765L47.0244 455.765L47.0244 458.265L51.1133 458.265L51.1133 455.765L55.2022 455.765L55.2022 458.265L59.291 458.265L59.291 455.765L63.3799 455.765L63.3799 458.265L67.4688 458.265L67.4688 455.765L71.5576 455.765L71.5576 458.265L75.6465 458.265L75.6465 455.765L79.2803 455.765L79.2803 457.955L79.7363 457.955L79.7363 458.265L81.7803 458.265L81.7803 462.336L79.2803 462.336L79.2803 464.527C79.2803 465.19 79.2711 465.852 79.2529 466.511L81.751 466.58C81.7131 467.953 81.6361 469.316 81.5234 470.669L79.0342 470.462C78.9241 471.783 78.7775 473.094 78.5957 474.393L81.0713 474.739C80.8812 476.098 80.6524 477.443 80.3887 478.777L77.9385 478.291C77.6816 479.589 77.3886 480.875 77.0615 482.147L79.4824 482.77L79.4824 482.771C79.141 484.098 78.7617 485.41 78.3486 486.707L75.9688 485.948C75.5674 487.208 75.1313 488.454 74.6621 489.682L76.9971 490.575C76.5087 491.854 75.9838 493.115 75.4268 494.358L73.1465 493.335C72.6062 494.541 72.0337 495.729 71.4287 496.898L73.6465 498.047C73.0178 499.262 72.3568 500.457 71.6631 501.63L69.5117 500.358C68.8398 501.494 68.1371 502.611 67.4043 503.705L69.4805 505.096C68.72 506.232 67.9287 507.345 67.1074 508.435L65.1123 506.93C64.3179 507.984 63.4946 509.015 62.6436 510.022L64.5518 511.636C63.67 512.679 62.7593 513.697 61.8213 514.689L60.0059 512.971C59.0995 513.929 58.1664 514.862 57.208 515.769L58.9248 517.585C57.933 518.523 56.9152 519.434 55.8721 520.316L54.2588 518.406C53.252 519.257 52.2209 520.081 51.167 520.875L52.6709 522.871C51.5813 523.693 50.4679 524.484 49.332 525.244L47.9424 523.167C46.8478 523.9 45.7313 524.603 44.5947 525.275L45.8662 527.427C44.6927 528.121 43.4977 528.782 42.2832 529.41L41.1348 527.192C39.9661 527.797 38.7778 528.369 37.5723 528.909L38.5938 531.191C37.3506 531.748 36.0893 532.271 34.8105 532.76L33.9189 530.425C32.6907 530.894 31.4456 531.33 30.1855 531.732L30.9434 534.112C29.6464 534.525 28.3341 534.905 27.0068 535.246L26.3838 532.824C25.1123 533.151 23.8266 533.444 22.5283 533.701L23.0127 536.152C21.6799 536.416 20.3344 536.645 18.9766 536.835L18.9766 536.834L18.6299 534.359C17.3309 534.54 16.0202 534.687 14.6992 534.797L14.9053 537.287C13.5524 537.4 12.1892 537.477 10.8164 537.515L10.748 535.016C10.089 535.034 9.42729 535.043 8.76367 535.043L6.57324 535.043L6.57324 537.543L2.50195 537.543L2.50195 535.498L2.19238 535.498L2.19238 535.043L0.00195323 535.043L0.00195339 531.409L2.50195 531.409L2.50195 527.32L0.00195357 527.32L0.00195375 523.232L2.50195 523.232L2.50195 519.143L0.00195393 519.143L0.00195411 515.054L2.50195 515.054L2.50195 510.965L0.00195429 510.965L0.00195447 506.876L2.50195 506.876L2.50195 502.787L0.00195464 502.787L0.00195482 498.698L2.50195 498.698L2.50196 494.61L0.001955 494.61L0.00195518 490.521L2.50196 490.521L2.50196 486.432L0.00195536 486.432L0.00195554 482.343L2.50196 482.343L2.50196 478.254L0.00195572 478.254L0.0019559 474.165L2.50196 474.165L2.50196 470.076L0.00195607 470.076L0.00195625 465.987L2.50196 465.987L2.50196 461.899L0.00195643 461.899L0.00195659 458.265Z" stroke="#A3A3A3" stroke-opacity="0.3" stroke-width="5" stroke-dasharray="4 4"/>
<path fill-rule="evenodd" clip-rule="evenodd" d="M0.00195312 365.011L0.00194959 445.792L81.7803 445.792L81.7803 437.137C81.7803 397.303 49.0898 365.011 8.76392 365.011L0.00195312 365.011Z" fill="#A3A3A3" fill-opacity="0.2"/>
<path fill-rule="evenodd" clip-rule="evenodd" d="M176.523 365.011L176.523 445.792L94.7451 445.792L94.7451 437.137C94.7451 397.303 127.436 365.011 167.761 365.011L176.523 365.011Z" fill="#A3A3A3" fill-opacity="0.2"/>
<path fill-rule="evenodd" clip-rule="evenodd" d="M94.7441 535.549L94.7441 454.768L176.523 454.768L176.523 463.423C176.523 503.257 143.832 535.549 103.506 535.549L94.7441 535.549Z" fill="#A3A3A3" fill-opacity="0.2"/>
<path d="M94.7441 186.003L96.7891 186.003L96.7891 185.522L97.2441 185.522L97.2441 183.503L100.878 183.503L100.878 186.003L104.967 186.003L104.967 183.503L109.056 183.503L109.056 186.003L113.145 186.003L113.145 183.503L117.233 183.503L117.233 186.003L121.322 186.003L121.322 183.503L125.411 183.503L125.411 186.003L129.5 186.003L129.5 183.503L133.589 183.503L133.589 186.003L137.678 186.003L137.678 183.503L141.767 183.503L141.767 186.003L145.855 186.003L145.855 183.503L149.944 183.503L149.944 186.003L154.033 186.003L154.033 183.503L158.122 183.503L158.122 186.003L162.211 186.003L162.211 183.503L166.3 183.503L166.3 186.003L170.389 186.003L170.389 183.503L174.022 183.503L174.022 185.667L174.479 185.667L174.479 186.003L176.522 186.003L176.522 189.994L174.022 189.994L174.022 192.158C174.022 192.817 174.014 193.474 173.995 194.129L176.492 194.199C176.454 195.563 176.377 196.918 176.263 198.262L173.773 198.051C173.662 199.363 173.514 200.664 173.33 201.954L175.805 202.306C175.612 203.656 175.381 204.993 175.114 206.318L172.665 205.824C172.405 207.112 172.11 208.388 171.779 209.649L174.196 210.283C173.851 211.601 173.468 212.904 173.051 214.191L170.675 213.42C170.27 214.669 169.83 215.902 169.356 217.12L171.685 218.026C171.191 219.294 170.663 220.545 170.101 221.777L167.827 220.738C167.282 221.931 166.705 223.108 166.095 224.264L168.305 225.43C167.671 226.632 167.004 227.814 166.305 228.975L164.164 227.686C163.488 228.809 162.78 229.912 162.043 230.994L164.107 232.402C163.342 233.524 162.546 234.624 161.72 235.7L159.738 234.177C158.94 235.217 158.113 236.234 157.258 237.227L159.151 238.858C158.266 239.887 157.352 240.89 156.41 241.868L154.61 240.133C153.701 241.077 152.766 241.996 151.805 242.888L153.504 244.719C152.51 245.642 151.49 246.539 150.445 247.406L148.85 245.483C147.842 246.319 146.81 247.128 145.755 247.909L147.241 249.919C146.152 250.725 145.038 251.501 143.902 252.248L142.53 250.159C141.437 250.878 140.322 251.567 139.187 252.226L140.44 254.388C139.269 255.068 138.077 255.718 136.864 256.334L135.732 254.105C134.566 254.698 133.381 255.259 132.179 255.788L133.185 258.076C131.946 258.621 130.689 259.134 129.415 259.612L128.537 257.27C127.313 257.729 126.073 258.156 124.817 258.548L125.563 260.934C124.271 261.338 122.965 261.707 121.644 262.041L121.033 259.617C119.768 259.936 118.488 260.222 117.196 260.473L117.672 262.926C116.346 263.184 115.007 263.407 113.656 263.592L113.317 261.116C112.025 261.293 110.722 261.436 109.408 261.544L109.61 264.034C108.266 264.144 106.91 264.22 105.546 264.256L105.479 261.757C104.824 261.775 104.166 261.784 103.506 261.784L101.315 261.784L101.315 264.284L97.2441 264.284L97.2441 262.264L96.9346 262.264L96.9346 261.784L94.7441 261.784L94.7441 258.225L97.2441 258.225L97.2441 254.186L94.7441 254.186L94.7441 250.147L97.2441 250.147L97.2441 246.108L94.7441 246.108L94.7441 242.069L97.2441 242.069L97.2441 238.03L94.7441 238.03L94.7441 233.991L97.2441 233.991L97.2441 229.952L94.7441 229.952L94.7441 225.913L97.2441 225.913L97.2441 221.874L94.7441 221.874L94.7441 217.835L97.2441 217.835L97.2441 213.796L94.7441 213.796L94.7441 209.756L97.2441 209.756L97.2441 205.717L94.7441 205.717L94.7441 201.678L97.2441 201.678L97.2441 197.639L94.7441 197.639L94.7441 193.6L97.2441 193.6L97.2441 189.561L94.7441 189.561L94.7441 186.003Z" stroke="#A3A3A3" stroke-opacity="0.3" stroke-width="5" stroke-dasharray="4 4"/>
<path fill-rule="evenodd" clip-rule="evenodd" d="M94.7441 274.257L94.7441 356.035L176.523 356.035L176.523 347.273C176.523 306.947 143.832 274.257 103.506 274.257L94.7441 274.257Z" fill="#A3A3A3" fill-opacity="0.2"/>
</g>
</svg>
