<svg width="183" height="70" viewBox="0 0 183 70" fill="none" xmlns="http://www.w3.org/2000/svg">
<g clip-path="url(#clip0_196_1961)">
<g clip-path="url(#clip1_196_1961)">
<g clip-path="url(#clip2_196_1961)">
<path d="M124.905 39.7573L126.735 40.3066C126.642 40.772 126.444 41.2099 126.156 41.5867C125.904 41.9226 125.568 42.1856 125.181 42.3488C124.71 42.5465 124.202 42.64 123.692 42.6228C123.079 42.6491 122.467 42.5477 121.894 42.325C121.393 42.0769 120.978 41.6838 120.703 41.1967C120.339 40.5793 120.16 39.8707 120.185 39.1544C120.133 38.218 120.45 37.2984 121.07 36.5941C121.403 36.2819 121.797 36.0421 122.227 35.8899C122.658 35.7377 123.115 35.6764 123.57 35.71C124.268 35.675 124.96 35.8559 125.552 36.228C126.083 36.6139 126.461 37.1754 126.619 37.8133L124.789 38.2092C124.756 38.0421 124.683 37.8853 124.577 37.7523C124.464 37.5991 124.318 37.4738 124.149 37.3861C123.979 37.3021 123.79 37.2602 123.6 37.264C123.386 37.2543 123.174 37.3031 122.986 37.4051C122.798 37.5071 122.641 37.6586 122.533 37.8431C122.322 38.2466 122.228 38.7004 122.259 39.1544C122.213 39.6848 122.329 40.2166 122.594 40.6787C122.707 40.8183 122.852 40.9296 123.016 41.0038C123.18 41.0779 123.359 41.1129 123.539 41.1059C123.702 41.1176 123.865 41.0937 124.018 41.0358C124.171 40.978 124.309 40.8876 124.423 40.771C124.674 40.4836 124.84 40.1329 124.905 39.7573Z" fill="white"/>
<path d="M127.465 39.147C127.418 38.6791 127.476 38.2066 127.634 37.7637C127.793 37.3208 128.047 36.9186 128.38 36.586C128.712 36.2535 129.114 35.999 129.557 35.8408C130 35.6826 130.473 35.6247 130.941 35.6713C131.887 35.6136 132.818 35.9313 133.532 36.5555C133.849 36.8925 134.094 37.2909 134.251 37.7261C134.408 38.1614 134.475 38.6241 134.446 39.086C134.479 39.7493 134.343 40.4102 134.05 41.0062C133.787 41.498 133.384 41.9009 132.892 42.1643C132.319 42.4619 131.679 42.609 131.033 42.5915C130.383 42.6121 129.737 42.487 129.142 42.2253C128.632 41.9658 128.209 41.5634 127.923 41.0672C127.587 40.4854 127.428 39.8181 127.465 39.147ZM129.538 39.147C129.496 39.6618 129.625 40.1762 129.905 40.6103C130.029 40.7642 130.189 40.886 130.37 40.9655C130.551 41.045 130.749 41.0799 130.947 41.0672C131.141 41.0781 131.336 41.0454 131.516 40.9715C131.696 40.8976 131.858 40.7843 131.989 40.64C132.275 40.1747 132.404 39.6289 132.355 39.0845C132.407 38.5929 132.265 38.1003 131.959 37.7121C131.83 37.5647 131.669 37.4493 131.488 37.3752C131.307 37.301 131.112 37.2701 130.917 37.2849C130.725 37.2763 130.534 37.3132 130.359 37.3926C130.184 37.472 130.03 37.5917 129.911 37.7419C129.618 38.1486 129.485 38.6488 129.538 39.147Z" fill="white"/>
<path d="M135.514 35.7933H138.228L139.27 39.8794L140.312 35.7933H143.025V42.5007H141.318V37.3786L140.007 42.5007H138.482L137.171 37.3786V42.5007H135.453V35.7933H135.514Z" fill="white"/>
<path d="M144.355 35.7934H147.8C148.102 35.7682 148.406 35.8038 148.694 35.8982C148.982 35.9925 149.248 36.1436 149.476 36.3426C149.667 36.5453 149.815 36.7853 149.909 37.0475C150.004 37.3098 150.043 37.5887 150.025 37.8669C150.041 38.1591 149.994 38.4514 149.889 38.7245C149.784 38.9976 149.622 39.2456 149.415 39.4521C148.895 39.8818 148.228 40.0898 147.556 40.0312H146.428V42.5319H144.355V35.7934ZM146.429 38.6588H146.947C147.247 38.6887 147.549 38.6134 147.8 38.4459C147.875 38.3817 147.936 38.3024 147.978 38.2131C148.02 38.1238 148.042 38.0266 148.044 37.9279C148.048 37.8266 148.032 37.7255 147.995 37.631C147.958 37.5365 147.903 37.4506 147.831 37.3787C147.605 37.2054 147.32 37.1289 147.038 37.1658H146.459V38.6543L146.429 38.6588Z" fill="white"/>
<path d="M151.125 35.7933H153.199V40.8544H156.43V42.5007H151.125V35.7933Z" fill="white"/>
<path d="M157.465 35.7933H159.538V42.5007H157.465V35.7933Z" fill="white"/>
<path d="M165.15 41.3724H162.803L162.468 42.4694H160.363L162.894 35.7621H165.15L167.681 42.4694H165.517L165.15 41.3724ZM164.723 39.9389L163.991 37.5305L163.258 39.9389H164.723Z" fill="white"/>
<path d="M168.32 35.7933H170.24L172.771 39.5147V35.7933H174.721V42.5007H172.771L170.27 38.8121V42.5007H168.32V35.7933Z" fill="white"/>
<path d="M175.637 35.7933H181.948V37.4396H179.845V42.5007H177.771V37.4396H175.666V35.7933H175.637Z" fill="white"/>
<path d="M99.9663 46.0062L105.973 44.1158L104.021 39.7871C102.516 41.756 101.161 43.8348 99.9663 46.0062ZM97.924 26.2191L86.1557 0L-0.00390625 4.87793L23.8678 70L69.8085 55.5225C66.8821 51.3159 65.8148 46.3144 69.1982 43.8762C72.9791 41.1328 78.6802 44.3034 82.3078 48.7883C85.8193 42.9265 95.6674 29.2989 97.924 26.2191Z" fill="#225E63"/>
<path d="M83.4696 18.9491C84.6724 18.8796 85.8286 18.4593 86.7954 17.7402C87.7621 17.0211 88.4971 16.0346 88.9096 14.9026C89.3221 13.7705 89.394 12.5424 89.1165 11.37C88.8389 10.1975 88.2241 9.13198 87.3479 8.30495C86.4717 7.47793 85.3725 6.92562 84.1859 6.7162C82.9994 6.50679 81.7775 6.64945 80.6712 7.12656C79.5648 7.60368 78.6224 8.39435 77.9602 9.40098C77.2981 10.4076 76.9453 11.5861 76.9453 12.791C76.994 14.4727 77.7086 16.0663 78.9322 17.2211C80.1557 18.376 81.7878 18.9975 83.4696 18.9491ZM78.1361 21.6016H88.8075V49.5013H78.1361V21.6016Z" fill="#FEFEFE"/>
<path d="M72.8597 29.7409C72.9505 29.7707 73.0086 29.7409 73.0086 29.6501V22.5766C73.0051 22.527 72.9897 22.4789 72.9638 22.4364C72.9379 22.3939 72.9022 22.3583 72.8597 22.3325C72.8597 22.3325 71.4575 21.4185 67.1884 21.1744C65.5346 21.0351 63.872 21.0351 62.2182 21.1744C46.6689 22.4247 46.0898 33.6781 46.0898 34.1619V36.9067C46.0898 37.2417 46.0898 48.7362 62.2182 49.7424C63.8034 49.8645 66.8832 49.7424 67.1884 49.7424C69.3342 49.7661 71.4651 49.3833 73.4685 48.6141C73.512 48.5978 73.5494 48.5688 73.576 48.5308C73.6026 48.4928 73.617 48.4476 73.6174 48.4012V41.7847C73.6174 41.6939 73.5564 41.6626 73.4953 41.7237C73.4953 41.7237 72.3372 42.6376 67.2762 43.1571C66.3968 43.2878 65.503 43.2878 64.6236 43.1571C57.428 41.938 57.0931 36.6939 57.0931 36.6939C57.0931 36.6031 57.0634 36.4498 57.0634 36.3962V34.3762C57.0573 34.276 57.0674 34.1755 57.0931 34.0785C57.0931 34.0785 57.5814 28.4385 64.6236 27.8267H67.2762C69.2406 28.1104 71.1344 28.7597 72.8597 29.7409Z" fill="#FEFEFE"/>
<path d="M16.457 49.406C16.457 49.4455 16.4727 49.4834 16.5006 49.5113C16.5285 49.5392 16.5664 49.5549 16.6059 49.5549H27.0018C27.0214 49.5549 27.0407 49.551 27.0588 49.5435C27.0769 49.5361 27.0933 49.5251 27.1071 49.5113C27.1209 49.4975 27.1319 49.481 27.1394 49.463C27.1468 49.4449 27.1507 49.4256 27.1507 49.406V41.2965C27.1507 41.257 27.1664 41.2191 27.1943 41.1912C27.2222 41.1633 27.2601 41.1476 27.2995 41.1476C27.2995 41.1476 43.9161 42.3384 43.9161 31.2086C43.9161 22.398 33.4963 21.4528 30.0727 21.6046H16.6059C16.5664 21.6046 16.5285 21.6203 16.5006 21.6482C16.4727 21.6761 16.457 21.714 16.457 21.7534V49.406ZM26.975 34.9553V27.6615H29.5353C29.5353 27.6615 33.2239 27.8103 33.5291 30.3408C33.5898 30.8351 33.5898 31.335 33.5291 31.8294C33.345 32.6828 32.8831 33.4511 32.2156 34.0138C31.5481 34.5765 30.7127 34.9019 29.8405 34.9389L26.975 34.9553Z" fill="#FEFEFE"/>
<path d="M83.7764 62.9577C84.6771 63.013 85.5774 62.8453 86.3977 62.4695C90.1786 60.4882 102.953 29.2989 116.429 19.6949C116.525 19.6295 116.608 19.5467 116.673 19.4507C116.727 19.3802 116.759 19.2952 116.764 19.2066C116.764 19.2066 116.764 18.5665 114.783 18.5665C102.801 18.2316 90.332 43.3835 83.7764 53.3224C83.6856 53.4445 83.2584 53.3224 83.2584 53.3224C83.2584 53.3224 78.8687 48.1393 75.0566 46.1581C74.744 46.047 74.4131 45.9965 74.0816 46.0092C73.0184 46.1269 72.0122 46.5504 71.1849 47.2284C70.8068 47.5935 70.5231 48.0451 70.3584 48.5443C70.1938 49.0435 70.153 49.5753 70.2397 50.0938C70.2561 50.3469 70.3181 50.595 70.4228 50.8261C72.9149 54.7126 75.8288 58.3119 79.1114 61.5585C79.6294 61.9515 80.4525 62.9577 83.7764 62.9577Z" fill="#2BBC5D"/>
<path d="M119.967 10.2739H129.94C131.565 10.2145 133.185 10.4844 134.703 11.0673C135.872 11.573 136.898 12.3582 137.691 13.3537C138.498 14.3792 139.08 15.5636 139.398 16.8295C139.772 18.2001 139.957 19.6154 139.947 21.0361C140.019 22.8683 139.75 24.6979 139.154 26.432C138.669 27.6579 137.92 28.7615 136.958 29.6636C136.1 30.4677 135.066 31.0622 133.94 31.4007C132.64 31.7681 131.297 31.9628 129.946 31.9798H119.973L119.967 10.2739ZM126.674 15.1861V27.0453H128.32C129.338 27.1131 130.358 26.9571 131.308 26.5883C131.945 26.2243 132.44 25.6542 132.71 24.9717C133.119 23.7553 133.295 22.4725 133.228 21.1909C133.409 19.5325 133.01 17.8626 132.1 16.4648C131.603 15.9948 131.011 15.6372 130.364 15.4163C129.717 15.1954 129.031 15.1164 128.35 15.1846L126.674 15.1861Z" fill="white"/>
<path d="M141.797 24.8169L148.198 24.421C148.276 25.2745 148.57 26.0941 149.052 26.8027C149.405 27.2409 149.858 27.5885 150.372 27.8166C150.886 28.0446 151.448 28.1466 152.01 28.1141C152.811 28.1702 153.605 27.9315 154.243 27.4427C154.483 27.2669 154.68 27.0379 154.818 26.7734C154.956 26.5089 155.031 26.2161 155.036 25.918C155.042 25.6198 154.979 25.3244 154.852 25.0546C154.725 24.7849 154.537 24.5481 154.304 24.363C153.261 23.6988 152.085 23.2719 150.859 23.1126C148.577 22.7325 146.416 21.8241 144.548 20.46C143.934 19.948 143.445 19.3031 143.117 18.574C142.79 17.8449 142.632 17.0508 142.657 16.2519C142.666 15.1225 143.005 14.0203 143.632 13.0813C144.35 12.0224 145.369 11.2043 146.559 10.7339C148.261 10.0916 150.076 9.80143 151.894 9.88096C154.117 9.73365 156.332 10.2769 158.235 11.4365C158.997 12.0242 159.624 12.7699 160.071 13.6224C160.518 14.4749 160.776 15.4141 160.826 16.3755L154.485 16.7416C154.393 15.9263 154.015 15.1701 153.418 14.6071C152.778 14.1229 151.986 13.8846 151.185 13.9357C150.556 13.8838 149.93 14.0568 149.417 14.424C149.232 14.5685 149.084 14.7539 148.984 14.9654C148.883 15.177 148.833 15.4089 148.838 15.6431C148.842 15.8274 148.888 16.0083 148.973 16.1721C149.057 16.3359 149.178 16.4782 149.326 16.5883C150.012 17.0123 150.782 17.283 151.583 17.3817C153.752 17.7828 155.869 18.427 157.894 19.3019C159.027 19.827 159.989 20.6619 160.669 21.7104C161.249 22.6871 161.544 23.8063 161.523 24.942C161.529 26.3095 161.125 27.6474 160.365 28.7839C159.578 29.9784 158.453 30.9112 157.133 31.4633C155.467 32.1251 153.681 32.4363 151.889 32.3772C148.201 32.3772 145.637 31.6762 144.207 30.2427C142.79 28.7739 141.937 26.8527 141.797 24.8169Z" fill="white"/>
<path d="M163.229 24.8169L169.629 24.421C169.707 25.2744 170 26.0939 170.482 26.8026C170.835 27.2409 171.288 27.5884 171.802 27.8165C172.317 28.0446 172.878 28.1466 173.44 28.114C174.241 28.1702 175.035 27.9315 175.673 27.4427C175.914 27.2669 176.111 27.0378 176.248 26.7733C176.386 26.5089 176.461 26.2161 176.467 25.918C176.473 25.6198 176.409 25.3243 176.282 25.0546C176.155 24.7848 175.967 24.5481 175.734 24.3629C174.691 23.6988 173.515 23.272 172.289 23.1126C170.007 22.7324 167.846 21.8241 165.978 20.46C165.369 19.9436 164.884 19.2978 164.557 18.5698C164.23 17.8417 164.069 17.0498 164.087 16.2519C164.096 15.1225 164.435 14.0203 165.062 13.0813C165.78 12.0224 166.8 11.2043 167.989 10.7339C169.691 10.0916 171.506 9.8014 173.324 9.88093C175.547 9.73372 177.762 10.277 179.665 11.4364C180.427 12.0242 181.054 12.7699 181.501 13.6224C181.948 14.4749 182.206 15.414 182.256 16.3754L175.915 16.7416C175.823 15.9263 175.445 15.1701 174.848 14.607C174.208 14.1228 173.416 13.8846 172.615 13.9357C171.986 13.8837 171.36 14.0568 170.847 14.4239C170.663 14.5685 170.514 14.7539 170.414 14.9654C170.313 15.177 170.263 15.4089 170.268 15.6431C170.272 15.8274 170.318 16.0083 170.403 16.1721C170.487 16.3358 170.608 16.4782 170.756 16.5883C171.442 17.0123 172.212 17.283 173.013 17.3817C175.182 17.7828 177.299 18.427 179.324 19.3019C180.458 19.827 181.42 20.6619 182.099 21.7104C182.678 22.6872 182.974 23.8064 182.952 24.942C182.957 26.3094 182.554 27.6474 181.794 28.7839C181.007 29.9784 179.881 30.9112 178.562 31.4632C176.895 32.1251 175.11 32.4363 173.318 32.3772C169.629 32.3772 167.066 31.6761 165.635 30.2427C164.197 28.7893 163.34 26.859 163.229 24.8169Z" fill="white"/>
</g>
</g>
</g>
<defs>
<clipPath id="clip0_196_1961">
<rect width="182.95" height="70" fill="white"/>
</clipPath>
<clipPath id="clip1_196_1961">
<rect width="182.95" height="70" fill="white"/>
</clipPath>
<clipPath id="clip2_196_1961">
<rect width="182.958" height="70" fill="white" transform="translate(-0.00390625)"/>
</clipPath>
</defs>
</svg>
