<svg width="126" height="48" viewBox="0 0 126 48" fill="none" xmlns="http://www.w3.org/2000/svg">
<path opacity="0.964" fill-rule="evenodd" clip-rule="evenodd" d="M74.3029 3.4917C74.472 3.4917 74.6419 3.4917 74.8111 3.4917C74.8111 9.48766 74.8111 15.4836 74.8111 21.4796C73.0194 21.5031 71.229 21.4796 69.4389 21.4091C68.9147 19.8533 67.9226 18.6659 66.4624 17.8467C64.5796 17.2306 62.7889 17.4188 61.0902 18.4111C60.1368 19.2412 59.5319 20.264 59.2753 21.4796C57.4913 21.5027 55.7126 21.4792 53.9395 21.4091C54.34 18.9727 55.3322 16.786 56.9159 14.8488C59.7023 11.7493 63.1022 10.844 67.1158 12.1329C68.0276 12.488 68.7899 13.0407 69.4026 13.7906C69.4268 11.0631 69.451 8.33552 69.4752 5.60792C71.0942 4.90928 72.7036 4.20387 74.3029 3.4917Z" fill="white"/>
<path opacity="0.963" fill-rule="evenodd" clip-rule="evenodd" d="M98.4782 3.4917C98.6473 3.4917 98.8172 3.4917 98.9864 3.4917C98.9864 9.48766 98.9864 15.4836 98.9864 21.4796C97.1947 21.5031 95.4044 21.4796 93.6142 21.4091C93.0625 19.7793 91.9982 18.5684 90.4199 17.7762C88.5999 17.2396 86.8816 17.4512 85.2655 18.4111C84.2746 19.2205 83.6699 20.2434 83.4506 21.4796C81.6357 21.4796 79.8208 21.4796 78.0059 21.4796C78.5859 18.3189 80.0858 15.6501 82.5069 13.4732C84.2855 12.0921 86.3059 11.469 88.5687 11.6039C89.6903 11.6738 90.7677 11.9207 91.7993 12.3446C92.481 12.7246 93.0733 13.2066 93.5779 13.7906C93.6018 11.0631 93.6265 8.33552 93.6505 5.60792C95.2629 4.89433 96.8723 4.18892 98.4782 3.4917Z" fill="white"/>
<path fill-rule="evenodd" clip-rule="evenodd" d="M35.3912 6.0311C35.3912 6.05461 35.3912 6.07813 35.3912 6.10164C34.4958 6.10164 33.6004 6.10164 32.7051 6.10164C33.5983 5.96574 34.4937 5.94223 35.3912 6.0311Z" fill="#656464"/>
<path opacity="0.995" fill-rule="evenodd" clip-rule="evenodd" d="M32.7045 6.10168C33.5998 6.10168 34.4952 6.10168 35.3906 6.10168C36.7156 6.15509 38.0223 6.31968 39.3108 6.59547C39.335 6.59547 39.3592 6.59547 39.3834 6.59547C39.3915 6.63902 39.4156 6.67429 39.456 6.70128C39.7474 6.76035 40.0378 6.81914 40.3272 6.87763C40.3513 6.87763 40.3756 6.87763 40.3998 6.87763C40.5874 7.01677 40.8052 7.08728 41.0531 7.08926C41.498 7.35174 41.982 7.53987 42.5051 7.65358C42.6075 7.79741 42.7527 7.86795 42.9407 7.8652C43.0431 8.00904 43.1883 8.07958 43.3762 8.07683C43.4483 8.06469 43.4966 8.08825 43.5214 8.14737C43.6547 8.29466 43.8241 8.38869 44.0296 8.42953C44.1016 8.4174 44.15 8.44096 44.1748 8.50007C44.2589 8.62352 44.38 8.69406 44.5378 8.71169C44.6219 8.83514 44.743 8.90568 44.9008 8.92332C44.9351 9.0225 45.0077 9.06955 45.1186 9.0644C45.1529 9.16358 45.2255 9.21063 45.3364 9.20548C45.3707 9.30466 45.4433 9.35171 45.5541 9.34656C45.6095 9.47085 45.7063 9.54139 45.8445 9.55818C45.8789 9.65736 45.9515 9.70441 46.0623 9.69926C46.1176 9.82356 46.2145 9.8941 46.3527 9.91089C46.4253 9.93438 46.4737 9.98143 46.4979 10.052C46.5322 10.1511 46.6048 10.1982 46.7157 10.193C46.7641 10.193 46.7883 10.2165 46.7883 10.2636C46.8671 10.4108 46.988 10.5048 47.1513 10.5458C47.2981 10.7588 47.4918 10.9234 47.7321 11.0395C47.7805 11.2277 47.9014 11.3452 48.095 11.3922C48.1676 11.4157 48.2161 11.4628 48.2402 11.5333C48.4776 11.8818 48.768 12.1874 49.1114 12.4504C49.1781 12.633 49.2991 12.7741 49.4744 12.8736C49.5411 13.0562 49.6621 13.1973 49.8374 13.2968C49.8546 13.4312 49.9272 13.5253 50.0552 13.579C50.0724 13.7133 50.145 13.8074 50.2729 13.8612C50.2676 13.9689 50.3161 14.0394 50.4181 14.0728C50.4128 14.1805 50.4613 14.251 50.5633 14.2844C50.5806 14.4187 50.6532 14.5128 50.7811 14.5666C50.842 14.5907 50.8662 14.6377 50.8537 14.7077C50.8484 14.8154 50.8968 14.8859 50.9989 14.9193C50.9936 15.027 51.042 15.0975 51.1441 15.1309C51.2049 15.155 51.2292 15.202 51.2167 15.272C51.2114 15.3797 51.2598 15.4502 51.3619 15.4836C51.4227 15.5077 51.447 15.5547 51.4345 15.6247C51.4765 15.8244 51.5733 15.989 51.7249 16.1185C51.8101 16.19 51.8585 16.284 51.8701 16.4006C51.8837 16.5462 51.92 16.6873 51.979 16.8239C52.082 16.9997 52.1909 17.1643 52.3057 17.3177C52.4095 17.408 52.458 17.5255 52.4509 17.6704C52.4691 17.9403 52.5659 18.1754 52.7412 18.3758C52.8059 18.7755 52.9269 19.1517 53.1042 19.5044C53.0867 19.6736 53.1351 19.8147 53.2494 19.9277C53.3334 20.1233 53.3818 20.3349 53.3946 20.5625C53.4137 20.9343 53.4863 21.287 53.6124 21.6207C53.6124 21.7147 53.6124 21.8088 53.6124 21.9028C54.1932 21.9028 54.774 21.9028 55.3547 21.9028C70.8905 21.9028 86.4262 21.9028 101.962 21.9028C101.962 24.1131 101.962 26.3234 101.962 28.5336C85.8403 28.5102 69.7238 28.5337 53.6124 28.6042C53.5624 28.5143 53.5018 28.5143 53.4309 28.6042C53.3709 28.8365 53.3346 29.0716 53.322 29.3096C53.2046 29.5486 53.132 29.8072 53.1042 30.0855C53.1237 30.1983 53.0994 30.2924 53.0316 30.3677C52.8309 30.7409 52.6857 31.1406 52.596 31.5669C52.596 31.5904 52.596 31.614 52.596 31.6374C52.4796 31.693 52.4312 31.787 52.4509 31.9196C52.2161 32.3206 52.0225 32.7439 51.8701 33.1893C51.8826 33.2593 51.8583 33.3063 51.7975 33.3304C51.6215 33.5073 51.5006 33.719 51.4345 33.9653C51.447 34.0353 51.4227 34.0822 51.3619 34.1064C51.2598 34.1397 51.2114 34.2103 51.2167 34.318C51.2292 34.388 51.2049 34.4349 51.1441 34.4591C51.042 34.4924 50.9936 34.563 50.9989 34.6707C50.8719 34.7525 50.7993 34.87 50.7811 35.0234C50.6791 35.0568 50.6306 35.1273 50.6359 35.235C50.5289 35.301 50.4563 35.3951 50.4181 35.5172C50.2911 35.5989 50.2185 35.7165 50.2003 35.8699C50.1762 35.9404 50.1278 35.9875 50.0552 36.011C49.9531 36.0443 49.9047 36.1149 49.91 36.2226C49.91 36.2696 49.8858 36.2931 49.8374 36.2931C49.7353 36.3265 49.6869 36.397 49.6922 36.5048C49.668 36.5753 49.6196 36.6223 49.547 36.6458C49.4191 36.6996 49.3465 36.7937 49.3292 36.928C49.3292 36.975 49.305 36.9985 49.2566 36.9985C49.0813 37.0981 48.9603 37.2392 48.8936 37.4218C48.4338 37.9156 47.9498 38.3859 47.4417 38.8326C47.3308 38.8274 47.2582 38.8745 47.2239 38.9737C47.1755 39.0677 47.1029 39.1383 47.0061 39.1853C46.8679 39.2021 46.771 39.2726 46.7157 39.3969C46.7157 39.444 46.6915 39.4675 46.6431 39.4675C46.5049 39.4843 46.408 39.5548 46.3527 39.6791C46.3527 39.7261 46.3285 39.7496 46.2801 39.7496C46.1693 39.7445 46.0967 39.7915 46.0623 39.8907C46.0623 39.9378 46.0382 39.9613 45.9897 39.9613C45.8189 40.0205 45.6737 40.1146 45.5541 40.2434C45.5541 40.2905 45.53 40.314 45.4816 40.314C45.3707 40.3088 45.2981 40.3559 45.2638 40.455C45.2064 40.5186 45.1338 40.5656 45.046 40.5961C44.8881 40.6138 44.7671 40.6843 44.683 40.8077C44.5721 40.8026 44.4995 40.8496 44.4652 40.9488C44.3916 41.0316 44.2948 41.0786 44.1748 41.0899C43.8249 41.2009 43.5103 41.3655 43.231 41.5837C43.0627 41.6184 42.9175 41.6889 42.7955 41.7953C42.3795 41.9061 41.9923 42.0707 41.6339 42.2891C41.4743 42.2623 41.3533 42.3093 41.2709 42.4302C41.105 42.4369 40.9598 42.4839 40.8354 42.5713C40.6758 42.5445 40.5548 42.5915 40.4724 42.7123C40.4482 42.7123 40.4239 42.7123 40.3998 42.7123C39.3071 42.9669 38.2182 43.202 37.1329 43.4177C36.6114 43.4367 36.1033 43.4837 35.6084 43.5588C34.5138 43.5811 33.4248 43.5576 32.3415 43.4883C31.6783 43.3322 31.0007 43.2146 30.3088 43.1356C29.6448 42.927 28.9672 42.7389 28.2761 42.5713C28.1517 42.4839 28.0065 42.4369 27.8405 42.4302C27.7024 42.4093 27.5813 42.3622 27.4775 42.2891C27.3559 42.1245 27.1865 42.0539 26.9693 42.0775C26.8764 41.9765 26.7554 41.9295 26.6064 41.9364C26.526 41.7622 26.3808 41.6917 26.1708 41.7248C26.0972 41.642 26.0004 41.595 25.8804 41.5837C25.6637 41.5254 25.4701 41.4314 25.2996 41.3015C25.2155 41.1781 25.0945 41.1075 24.9366 41.0899C24.8646 41.102 24.8163 41.0785 24.7914 41.0194C24.7571 40.9202 24.6845 40.8731 24.5737 40.8783C24.5016 40.8904 24.4533 40.8669 24.4285 40.8077C24.3941 40.7086 24.3215 40.6615 24.2107 40.6667C24.1763 40.5675 24.1037 40.5204 23.9929 40.5256C23.9585 40.4264 23.8859 40.3793 23.7751 40.3845C23.7407 40.2853 23.6681 40.2383 23.5573 40.2434C23.502 40.1191 23.4051 40.0486 23.2669 40.0318C23.2326 39.9326 23.16 39.8856 23.0491 39.8907C22.9703 39.7435 22.8494 39.6495 22.6861 39.6085C22.6074 39.4613 22.4864 39.3673 22.3231 39.3264C22.2207 39.1561 22.0755 39.0385 21.8876 38.9737C21.5687 38.5932 21.2057 38.264 20.7986 37.9861C20.6776 37.9156 20.5808 37.8215 20.5082 37.7039C20.417 37.4975 20.2718 37.3328 20.0726 37.2102C20 37.1867 19.9516 37.1396 19.9275 37.0691C19.8323 36.8594 19.6872 36.6947 19.4919 36.5753C19.4972 36.4676 19.4487 36.397 19.3467 36.3637C19.2741 36.3402 19.2257 36.2931 19.2015 36.2226C19.2068 36.1149 19.1584 36.0443 19.0563 36.011C19.039 35.8767 18.9664 35.7826 18.8385 35.7288C18.8438 35.6211 18.7954 35.5505 18.6933 35.5172C18.6323 35.3512 18.5355 35.2101 18.4029 35.0939C18.4082 34.9862 18.3598 34.9157 18.2577 34.8823C18.263 34.7746 18.2146 34.7041 18.1125 34.6707C18.0705 34.471 17.9737 34.3064 17.8221 34.1769C17.7801 33.9772 17.6833 33.8126 17.5318 33.6831C17.5201 33.5665 17.4718 33.4725 17.3866 33.401C17.2822 33.0955 17.137 32.8134 16.951 32.5545C16.7987 32.0628 16.6052 31.5926 16.3702 31.1437C16.3877 30.9745 16.3393 30.8334 16.225 30.7204C15.6298 28.7527 15.3152 26.7423 15.2812 24.6892C15.3003 23.9951 15.3245 23.3015 15.3538 22.6082C15.3538 22.5847 15.3538 22.5612 15.3538 22.5377C15.5385 21.6273 15.7321 20.7103 15.9346 19.7866C16.038 19.6445 16.0863 19.4799 16.0798 19.2928C16.2566 19.0418 16.3534 18.7597 16.3702 18.4463C16.5266 18.297 16.5992 18.1089 16.588 17.882C16.6919 17.7917 16.7403 17.6741 16.7332 17.5293C16.7207 17.4593 16.7449 17.4123 16.8058 17.3882C16.9097 17.2979 16.9581 17.1803 16.951 17.0355C16.9626 16.9189 17.0109 16.8249 17.0962 16.7533C17.2056 16.6348 17.2782 16.4937 17.314 16.3301C17.3015 16.2601 17.3257 16.2131 17.3866 16.189C17.4718 16.1175 17.5201 16.0235 17.5318 15.9069C17.6812 15.7827 17.778 15.6181 17.8221 15.4131C17.9792 15.2493 18.1003 15.0611 18.1851 14.8487C18.1726 14.7788 18.1969 14.7318 18.2577 14.7077C18.3598 14.6743 18.4082 14.6038 18.4029 14.496C18.505 14.4627 18.5534 14.3921 18.5481 14.2844C18.676 14.2307 18.7486 14.1366 18.7659 14.0023C18.868 13.9689 18.9164 13.8983 18.9111 13.7906C19.0914 13.6284 19.2366 13.4403 19.3467 13.2263C19.5219 13.1268 19.6429 12.9857 19.7097 12.8031C20.3368 12.1701 20.966 11.5352 21.5972 10.8985C21.694 10.8514 21.7665 10.7809 21.815 10.6868C22.0029 10.622 22.1481 10.5044 22.2506 10.3341C22.4138 10.2932 22.5348 10.1992 22.6135 10.052C22.8713 9.93833 23.0891 9.77375 23.2669 9.55818C23.3778 9.56333 23.4504 9.51628 23.4847 9.4171C23.519 9.31792 23.5916 9.27087 23.7025 9.27602C23.8733 9.21676 24.0185 9.12266 24.1381 8.99386C24.1724 8.89468 24.245 8.84762 24.3559 8.85277C24.4667 8.85792 24.5393 8.81087 24.5737 8.71169C24.7792 8.67085 24.9485 8.57682 25.0818 8.42953C25.2018 8.41824 25.2986 8.37126 25.3722 8.28845C25.397 8.22934 25.4454 8.20577 25.5174 8.21791C25.6283 8.22306 25.7009 8.17601 25.7352 8.07683C25.9324 8.08487 26.0776 8.01433 26.1708 7.8652C26.3198 7.87212 26.4408 7.82507 26.5338 7.72412C26.7021 7.68942 26.8473 7.61888 26.9693 7.5125C27.0732 7.43935 27.1942 7.3923 27.3323 7.37142C27.8428 7.26109 28.3268 7.09645 28.7843 6.87763C29.1591 6.88609 29.4978 6.79203 29.8006 6.59547C30.136 6.57853 30.4506 6.50799 30.7444 6.38385C31.411 6.31247 32.0644 6.21842 32.7045 6.10168ZM33.1401 11.1806C34.108 11.1806 35.076 11.1806 36.044 11.1806C36.3665 11.2724 36.7052 11.3194 37.0603 11.3217C37.0684 11.3652 37.0925 11.4005 37.1329 11.4275C37.8049 11.5762 38.4583 11.7761 39.093 12.0271C39.4076 12.2507 39.7464 12.4388 40.1094 12.5914C40.1437 12.6906 40.2163 12.7377 40.3272 12.7325C40.3615 12.8317 40.4341 12.8787 40.545 12.8736C40.6732 13.0646 40.8425 13.2057 41.0531 13.2968C41.4388 13.6951 41.8259 14.0949 42.2147 14.496C42.5053 14.9419 42.8199 15.3652 43.1585 15.7658C43.452 16.3827 43.7423 16.994 44.0296 17.5998C44.0753 17.8042 44.1479 17.9923 44.2474 18.1642C44.3229 18.5054 44.4197 18.8346 44.5378 19.1517C44.6281 19.6259 44.7249 20.0961 44.8282 20.5625C44.8282 20.586 44.8282 20.6096 44.8282 20.6331C44.9223 21.2626 44.9827 21.8975 45.0097 22.5377C45.046 24.254 45.0581 25.9705 45.046 27.6872C39.6496 27.6754 34.2532 27.6872 28.8569 27.7224C28.761 27.9999 28.761 28.2703 28.8569 28.5336C28.8286 28.749 28.877 28.9371 29.0021 29.098C28.9826 29.2108 29.0069 29.3048 29.0747 29.3801C29.3836 30.3111 29.9401 31.0635 30.7444 31.6374C30.8748 31.8067 31.0442 31.9243 31.2526 31.9901C31.2526 32.0372 31.2767 32.0607 31.3252 32.0607C31.5226 32.2037 31.7404 32.3212 31.9785 32.4134C32.0357 32.5265 32.1324 32.5736 32.2689 32.5545C32.3204 32.6182 32.393 32.6417 32.4867 32.625C32.9537 32.8617 33.4618 32.9793 34.0112 32.9777C34.2186 33.0839 34.4485 33.1309 34.7009 33.1188C34.9982 33.1237 35.2765 33.0767 35.5358 32.9777C36.1926 32.9963 36.7975 32.8553 37.3507 32.5545C37.4616 32.5596 37.5342 32.5126 37.5685 32.4134C38.104 32.2221 38.5395 31.8929 38.8752 31.4258C38.9308 31.5043 39.0034 31.5513 39.093 31.5669C39.2432 31.7837 39.4368 31.9482 39.6738 32.0607C39.9666 32.4158 40.3054 32.7214 40.6902 32.9777C40.7143 33.0483 40.7628 33.0953 40.8354 33.1188C41.1059 33.4525 41.4205 33.7346 41.7791 33.9653C41.8275 34.0593 41.9001 34.1299 41.9969 34.1769C42.107 34.2958 42.2038 34.4251 42.2873 34.5649C42.2526 34.6568 42.2042 34.739 42.1421 34.8118C41.9454 35.0028 41.7761 35.2144 41.6339 35.4466C41.4126 35.6147 41.219 35.8027 41.0531 36.011C40.5686 36.3403 40.0846 36.6695 39.6012 36.9985C39.316 37.1137 39.0498 37.2548 38.8026 37.4218C38.6367 37.4285 38.4915 37.4755 38.3671 37.5629C37.7331 37.7281 37.104 37.8926 36.4795 38.0567C36.2701 38.0351 36.0765 38.0586 35.8988 38.1272C34.7118 38.1415 33.526 38.118 32.3415 38.0567C31.7777 37.9047 31.197 37.7871 30.5992 37.7039C30.4396 37.5701 30.2461 37.4996 30.0184 37.4923C29.8657 37.3927 29.6963 37.3222 29.5102 37.2807C29.3262 37.1737 29.1326 37.0797 28.9295 36.9985C28.5791 36.7694 28.2161 36.5578 27.8405 36.3637C27.7381 36.1934 27.5929 36.0758 27.4049 36.011C27.4049 35.9639 27.3808 35.9404 27.3323 35.9404C27.0343 35.6211 26.7197 35.3154 26.3886 35.0234C26.3179 34.8375 26.1969 34.6964 26.0256 34.6002C25.9987 34.405 25.9019 34.2639 25.7352 34.1769C25.7083 33.9817 25.6115 33.8406 25.4448 33.7537C25.4645 33.621 25.4161 33.527 25.2996 33.4715C25.2413 33.264 25.1444 33.0758 25.0092 32.9072C24.9401 32.6817 24.8433 32.47 24.7188 32.2723C24.7188 32.2488 24.7188 32.2253 24.7188 32.2018C24.6634 32.0241 24.5908 31.8596 24.5011 31.708C24.4718 31.4973 24.3992 31.3093 24.2833 31.1437C24.2757 30.8822 24.2031 30.647 24.0655 30.4382C24.0449 29.939 23.948 29.4687 23.7751 29.0274C23.6398 28.0919 23.5672 27.1513 23.5573 26.2058C23.5003 25.0317 23.5003 23.8561 23.5573 22.6788C23.613 22.6249 23.6493 22.5544 23.6662 22.4671C23.7023 22.2332 23.7145 21.998 23.7025 21.7617C23.7025 21.7382 23.7025 21.7147 23.7025 21.6912C23.8054 21.1816 23.9021 20.6643 23.9929 20.1393C24.1026 19.9246 24.151 19.6894 24.1381 19.4339C24.3124 19.1385 24.4334 18.8093 24.5011 18.4463C24.7509 17.9262 24.9686 17.3854 25.1544 16.8239C25.2668 16.8012 25.3152 16.7307 25.2996 16.6123C25.4492 16.419 25.5701 16.2074 25.6626 15.9774C25.8601 15.738 26.0295 15.4793 26.1708 15.2014C26.4302 14.9091 26.6721 14.6034 26.8968 14.2844C27.2113 14.0257 27.5017 13.7436 27.7679 13.4379C28.0849 13.2604 28.3753 13.0488 28.6391 12.8031C28.8304 12.7106 28.9998 12.593 29.1473 12.4504C29.4627 12.3556 29.7531 12.2145 30.0184 12.0271C30.3798 11.9261 30.7185 11.785 31.0348 11.6039C31.2473 11.5993 31.441 11.5522 31.6155 11.4628C31.9412 11.4085 32.2559 11.338 32.5593 11.2512C32.7687 11.2727 32.9624 11.2493 33.1401 11.1806Z" fill="#080505"/>
<path opacity="0.412" fill-rule="evenodd" clip-rule="evenodd" d="M32.7062 6.10168C32.0661 6.21842 31.4128 6.31247 30.7461 6.38385C31.3767 6.20417 32.03 6.11011 32.7062 6.10168Z" fill="#8B8A8A"/>
<path opacity="0.325" fill-rule="evenodd" clip-rule="evenodd" d="M35.3926 6.10186C35.3926 6.07835 35.3926 6.05483 35.3926 6.03132C36.7393 6.0242 38.0461 6.2123 39.3128 6.59565C38.0243 6.31986 36.7175 6.15527 35.3926 6.10186Z" fill="#858484"/>
<path opacity="0.308" fill-rule="evenodd" clip-rule="evenodd" d="M30.7445 6.38373C30.4507 6.50787 30.1362 6.57841 29.8008 6.59535C30.0923 6.46321 30.4069 6.39267 30.7445 6.38373Z" fill="#858383"/>
<path opacity="0.337" fill-rule="evenodd" clip-rule="evenodd" d="M39.3848 6.59534C39.7243 6.63624 40.0389 6.7303 40.3285 6.8775C40.0392 6.81901 39.7488 6.76022 39.4574 6.70115C39.417 6.67416 39.3928 6.63889 39.3848 6.59534Z" fill="#7D7B7B"/>
<path fill-rule="evenodd" clip-rule="evenodd" d="M29.8015 6.59534C29.4987 6.7919 29.16 6.88596 28.7852 6.8775C29.0968 6.71922 29.4356 6.62517 29.8015 6.59534Z" fill="#535252"/>
<path fill-rule="evenodd" clip-rule="evenodd" d="M35.5364 7.01871C34.5913 7.00738 33.6475 7.03089 32.7051 7.08925C32.8105 7.03269 32.9314 6.99742 33.0681 6.98344C33.9035 6.92518 34.7262 6.93693 35.5364 7.01871Z" fill="white"/>
<path opacity="0.38" fill-rule="evenodd" clip-rule="evenodd" d="M40.4004 6.87769C40.6389 6.90788 40.8567 6.97842 41.0538 7.08931C40.8058 7.08733 40.588 7.01683 40.4004 6.87769Z" fill="#8F8D8D"/>
<path opacity="0.835" fill-rule="evenodd" clip-rule="evenodd" d="M28.7859 6.87769C28.3284 7.0965 27.8444 7.26115 27.334 7.37147C27.784 7.13008 28.268 6.9655 28.7859 6.87769Z" fill="#747272"/>
<path fill-rule="evenodd" clip-rule="evenodd" d="M35.5371 7.01876C35.902 7.01896 36.265 7.04248 36.626 7.0893C36.6564 7.14023 36.7047 7.1755 36.7712 7.19511C37.206 7.24442 37.6416 7.27969 38.078 7.30092C38.5964 7.37351 39.1045 7.49103 39.6025 7.65362C39.7729 7.76628 39.9665 7.83682 40.1833 7.86525C45.0873 9.48126 48.7292 12.538 51.1091 17.0355C51.8409 18.4926 52.3369 20.021 52.5973 21.6207C52.6373 21.854 52.6615 22.0891 52.6699 22.3261C68.8953 22.4243 85.1331 22.4713 101.382 22.4672C101.382 24.3247 101.382 26.1824 101.382 28.0399C85.1207 28.0281 68.859 28.0399 52.5973 28.0752C68.8832 28.1104 85.1694 28.1222 101.455 28.1104C101.455 28.1339 101.455 28.1575 101.455 28.181C85.1447 28.181 68.8349 28.181 52.5247 28.181C52.4879 28.4885 52.4396 28.7942 52.3795 29.098C52.3347 29.1058 52.2984 29.1293 52.2706 29.1686C52.2201 29.3786 52.1838 29.5902 52.1617 29.8034C52.1376 29.8975 52.1133 29.9916 52.0891 30.0856C51.9628 30.2193 51.8902 30.3838 51.8714 30.5794C49.6829 36.3386 45.569 40.136 39.5299 41.9717C39.046 42.0855 38.562 42.1913 38.078 42.2891C37.2618 42.3236 36.4633 42.4176 35.6823 42.5713C34.0764 42.5927 32.4793 42.4986 30.8909 42.2891C30.8133 42.2232 30.7166 42.1997 30.6005 42.2186C30.4715 42.141 30.3263 42.0822 30.1649 42.0422C30.2375 42.0187 30.3101 41.9952 30.3827 41.9717C30.258 41.9473 30.1369 41.912 30.0197 41.8659C29.9713 41.9129 29.9229 41.9599 29.8745 42.007C29.6915 41.9163 29.4979 41.8693 29.2937 41.8659C28.7712 41.7437 28.2631 41.5791 27.7692 41.3721C27.6579 41.249 27.5127 41.1785 27.3336 41.1605C23.9677 39.76 21.2696 37.5732 19.2391 34.6002C18.3898 33.3409 17.7243 32.0006 17.2426 30.5794C17.1825 30.3455 17.122 30.1104 17.0612 29.874C17.0334 29.8347 16.9971 29.8112 16.9523 29.8034C16.9588 29.6163 16.9104 29.4518 16.8071 29.3096C16.2937 27.2262 16.1243 25.11 16.2989 22.961C16.4177 22.6993 16.466 22.4171 16.4441 22.1145C16.4441 22.0439 16.4441 21.9734 16.4441 21.9029C16.4965 21.8734 16.5328 21.8264 16.553 21.7618C16.6214 21.386 16.682 21.0098 16.7345 20.6331C18.335 14.8328 21.9649 10.7062 27.624 8.25322C28.6276 7.83893 29.6681 7.54499 30.7457 7.37146C31.1721 7.33273 31.5835 7.26219 31.9798 7.15984C32.2067 7.09078 32.4486 7.06722 32.7058 7.0893C33.6482 7.03094 34.592 7.00742 35.5371 7.01876ZM33.1414 11.1807C34.1093 11.1807 35.0773 11.1807 36.0452 11.1807C36.3678 11.2724 36.7065 11.3195 37.0616 11.3217C37.0697 11.3653 37.0938 11.4005 37.1342 11.4276C37.8062 11.5763 38.4596 11.7761 39.0943 12.0271C39.4089 12.2507 39.7477 12.4388 40.1107 12.5915C40.145 12.6907 40.2176 12.7377 40.3285 12.7326C40.3628 12.8317 40.4354 12.8788 40.5462 12.8736C40.6745 13.0647 40.8438 13.2057 41.0544 13.2969C41.4401 13.6952 41.8272 14.0949 42.216 14.4961C42.5066 14.942 42.8211 15.3652 43.1597 15.7658C43.4532 16.3828 43.7436 16.9941 44.0309 17.5999C44.0766 17.8042 44.1492 17.9924 44.2487 18.1642C44.3242 18.5054 44.421 18.8346 44.5391 19.1518C44.6294 19.6259 44.7262 20.0962 44.8295 20.5626C44.8295 20.5861 44.8295 20.6096 44.8295 20.6331C44.9235 21.2626 44.984 21.8975 45.011 22.5377C45.0473 24.254 45.0594 25.9705 45.0473 27.6872C39.6508 27.6754 34.2545 27.6872 28.8581 27.7225C28.7622 28 28.7622 28.2704 28.8581 28.5337C28.8299 28.749 28.8783 28.9372 29.0033 29.098C28.9839 29.2108 29.0081 29.3048 29.0759 29.3802C29.3848 30.3112 29.9414 31.0636 30.7457 31.6375C30.8761 31.8068 31.0455 31.9244 31.2538 31.9902C31.2538 32.0372 31.278 32.0607 31.3264 32.0607C31.5239 32.2037 31.7417 32.3212 31.9798 32.4134C32.0369 32.5266 32.1337 32.5736 32.2702 32.5545C32.3217 32.6183 32.3943 32.6418 32.488 32.625C32.9549 32.8618 33.4631 32.9794 34.0125 32.9778C34.2199 33.084 34.4498 33.131 34.7022 33.1188C34.9995 33.1237 35.2777 33.0767 35.5371 32.9778C36.1938 32.9964 36.7988 32.8553 37.352 32.5545C37.4628 32.5597 37.5354 32.5126 37.5698 32.4134C38.1052 32.2221 38.5408 31.893 38.8765 31.4259C38.9321 31.5043 39.0047 31.5513 39.0943 31.5669C39.2445 31.7837 39.4381 31.9483 39.6751 32.0607C39.9679 32.4158 40.3067 32.7215 40.6914 32.9778C40.7156 33.0483 40.764 33.0953 40.8366 33.1188C41.1072 33.4525 41.4218 33.7347 41.7804 33.9653C41.8288 34.0594 41.9014 34.1299 41.9982 34.1769C42.1082 34.2959 42.2051 34.4252 42.2886 34.5649C42.2539 34.6568 42.2054 34.7391 42.1434 34.8118C41.9467 35.0028 41.7773 35.2145 41.6352 35.4467C41.4139 35.6147 41.2203 35.8028 41.0544 36.011C40.5698 36.3404 40.0858 36.6696 39.6025 36.9986C39.3173 37.1138 39.051 37.2549 38.8039 37.4218C38.638 37.4285 38.4928 37.4756 38.3683 37.5629C37.7344 37.7281 37.1053 37.8927 36.4808 38.0567C36.2714 38.0351 36.0778 38.0586 35.9 38.1272C34.7131 38.1415 33.5273 38.118 32.3428 38.0567C31.779 37.9047 31.1982 37.7872 30.6005 37.704C30.4409 37.5702 30.2474 37.4996 30.0197 37.4924C29.867 37.3928 29.6976 37.3222 29.5115 37.2807C29.3275 37.1737 29.1339 37.0797 28.9307 36.9986C28.5804 36.7695 28.2174 36.5578 27.8418 36.3637C27.7394 36.1934 27.5942 36.0758 27.4062 36.011C27.4062 35.964 27.382 35.9405 27.3336 35.9405C27.0356 35.6211 26.721 35.3155 26.3899 35.0234C26.3192 34.8376 26.1982 34.6965 26.0269 34.6002C26 34.405 25.9032 34.2639 25.7365 34.1769C25.7096 33.9818 25.6128 33.8407 25.4461 33.7537C25.4658 33.6211 25.4173 33.5271 25.3009 33.4715C25.2425 33.264 25.1457 33.0759 25.0105 32.9072C24.9414 32.6817 24.8446 32.4701 24.7201 32.2723C24.7201 32.2489 24.7201 32.2253 24.7201 32.2018C24.6647 32.0242 24.5921 31.8596 24.5023 31.708C24.4731 31.4974 24.4005 31.3093 24.2845 31.1437C24.277 30.8822 24.2044 30.6471 24.0668 30.4383C24.0461 29.939 23.9493 29.4687 23.7764 29.0275C23.641 28.092 23.5685 27.1514 23.5586 26.2058C23.5016 25.0318 23.5016 23.8561 23.5586 22.6788C23.6143 22.625 23.6506 22.5544 23.6675 22.4672C23.7036 22.2332 23.7157 21.9981 23.7038 21.7618C23.7038 21.7383 23.7038 21.7147 23.7038 21.6912C23.8066 21.1816 23.9034 20.6644 23.9942 20.1393C24.1039 19.9246 24.1523 19.6894 24.1394 19.4339C24.3137 19.1385 24.4347 18.8093 24.5023 18.4464C24.7521 17.9263 24.9699 17.3854 25.1557 16.8239C25.2681 16.8013 25.3165 16.7307 25.3009 16.6123C25.4505 16.419 25.5714 16.2074 25.6639 15.9774C25.8614 15.738 26.0308 15.4793 26.1721 15.2015C26.4315 14.9092 26.6734 14.6034 26.898 14.2845C27.2126 14.0258 27.503 13.7436 27.7692 13.438C28.0862 13.2605 28.3765 13.0489 28.6404 12.8031C28.8317 12.7106 29.0011 12.593 29.1485 12.4504C29.464 12.3557 29.7544 12.2146 30.0197 12.0271C30.3811 11.9261 30.7198 11.7851 31.0361 11.6039C31.2486 11.5993 31.4422 11.5523 31.6168 11.4628C31.9425 11.4086 32.2571 11.338 32.5606 11.2512C32.77 11.2728 32.9636 11.2493 33.1414 11.1807Z" fill="white"/>
<path fill-rule="evenodd" clip-rule="evenodd" d="M36.625 7.08923C37.1245 7.12154 37.6085 7.19208 38.0769 7.30086C37.6406 7.27962 37.205 7.24435 36.7702 7.19504C36.7037 7.17543 36.6553 7.14016 36.625 7.08923Z" fill="#8B1216"/>
<path opacity="0.349" fill-rule="evenodd" clip-rule="evenodd" d="M41.0547 7.08923C41.5731 7.20979 42.0571 7.39785 42.5066 7.65356C41.9836 7.53985 41.4996 7.35172 41.0547 7.08923Z" fill="#878585"/>
<path fill-rule="evenodd" clip-rule="evenodd" d="M31.9802 7.15979C31.5839 7.26214 31.1725 7.33269 30.7461 7.37141C30.7764 7.32048 30.8248 7.28521 30.8913 7.2656C31.2517 7.20127 31.6146 7.166 31.9802 7.15979Z" fill="white"/>
<path opacity="0.086" fill-rule="evenodd" clip-rule="evenodd" d="M26.9707 7.51247C26.8487 7.61884 26.7035 7.68938 26.5352 7.72409C26.6376 7.58026 26.7828 7.50972 26.9707 7.51247Z" fill="#949393"/>
<path opacity="0.404" fill-rule="evenodd" clip-rule="evenodd" d="M26.5349 7.72436C26.4419 7.8253 26.3209 7.87235 26.1719 7.86544C26.2648 7.7645 26.3858 7.71745 26.5349 7.72436Z" fill="#8F8D8D"/>
<path opacity="0.427" fill-rule="evenodd" clip-rule="evenodd" d="M42.5059 7.65369C42.6742 7.68839 42.8194 7.75893 42.9414 7.86531C42.7535 7.86806 42.6083 7.79752 42.5059 7.65369Z" fill="#8B8A8A"/>
<path fill-rule="evenodd" clip-rule="evenodd" d="M39.6035 7.65369C39.8312 7.66095 40.0247 7.73149 40.1843 7.86531C39.9675 7.83688 39.774 7.76634 39.6035 7.65369Z" fill="#851115"/>
<path opacity="0.451" fill-rule="evenodd" clip-rule="evenodd" d="M42.9434 7.8653C43.1117 7.9 43.2569 7.97054 43.3789 8.07692C43.191 8.07967 43.0458 8.00913 42.9434 7.8653Z" fill="#828181"/>
<path opacity="0.404" fill-rule="evenodd" clip-rule="evenodd" d="M26.1719 7.8653C26.0787 8.01442 25.9335 8.08496 25.7363 8.07692C25.8584 7.97054 26.0036 7.9 26.1719 7.8653Z" fill="#7F7D7D"/>
<path opacity="0.804" fill-rule="evenodd" clip-rule="evenodd" d="M25.7354 8.07698C25.701 8.17616 25.6284 8.22321 25.5176 8.21806C25.5519 8.11888 25.6245 8.07183 25.7354 8.07698Z" fill="#787676"/>
<path opacity="0.035" fill-rule="evenodd" clip-rule="evenodd" d="M43.5215 8.1474C43.727 8.18824 43.8964 8.28227 44.0297 8.42956C43.8241 8.38872 43.6548 8.29469 43.5215 8.1474Z" fill="#939191"/>
<path opacity="0.557" fill-rule="evenodd" clip-rule="evenodd" d="M25.3724 8.28838C25.2988 8.3712 25.202 8.41818 25.082 8.42946C25.1392 8.31632 25.2359 8.26927 25.3724 8.28838Z" fill="#969595"/>
<path opacity="0.016" fill-rule="evenodd" clip-rule="evenodd" d="M44.1758 8.5C44.3336 8.51764 44.4546 8.58818 44.5388 8.71162C44.3809 8.69399 44.2599 8.62345 44.1758 8.5Z" fill="#9D9B9B"/>
<path opacity="0.463" fill-rule="evenodd" clip-rule="evenodd" d="M25.0824 8.4295C24.9491 8.57679 24.7797 8.67082 24.5742 8.71167C24.7075 8.56438 24.8769 8.47035 25.0824 8.4295Z" fill="#939292"/>
<path opacity="0.62" fill-rule="evenodd" clip-rule="evenodd" d="M24.5752 8.71168C24.5409 8.81087 24.4683 8.85792 24.3574 8.85277C24.3918 8.75359 24.4644 8.70654 24.5752 8.71168Z" fill="#858484"/>
<path opacity="0.247" fill-rule="evenodd" clip-rule="evenodd" d="M44.5391 8.71185C44.6969 8.72949 44.8179 8.80003 44.902 8.92348C44.7442 8.90584 44.6232 8.8353 44.5391 8.71185Z" fill="#939191"/>
<path opacity="0.137" fill-rule="evenodd" clip-rule="evenodd" d="M44.9023 8.92323C45.0132 8.91808 45.0858 8.96513 45.1201 9.06431C45.0093 9.06946 44.9367 9.02241 44.9023 8.92323Z" fill="#979595"/>
<path opacity="0.247" fill-rule="evenodd" clip-rule="evenodd" d="M24.1387 8.99396C24.0191 9.12276 23.8739 9.21687 23.7031 9.27612C23.7976 9.11232 23.9428 9.01829 24.1387 8.99396Z" fill="#818080"/>
<path opacity="0.063" fill-rule="evenodd" clip-rule="evenodd" d="M45.1191 9.06428C45.23 9.05914 45.3026 9.10619 45.3369 9.20537C45.2261 9.21052 45.1535 9.16347 45.1191 9.06428Z" fill="#A09E9E"/>
<path opacity="0.149" fill-rule="evenodd" clip-rule="evenodd" d="M45.3379 9.20558C45.4487 9.20043 45.5213 9.24748 45.5557 9.34666C45.4448 9.35181 45.3722 9.30476 45.3379 9.20558Z" fill="#979595"/>
<path opacity="0.075" fill-rule="evenodd" clip-rule="evenodd" d="M45.5547 9.34656C45.6929 9.36335 45.7898 9.43389 45.8451 9.55818C45.7069 9.54139 45.61 9.47085 45.5547 9.34656Z" fill="#8B8989"/>
<path opacity="0.729" fill-rule="evenodd" clip-rule="evenodd" d="M23.4854 9.41719C23.451 9.51637 23.3784 9.56342 23.2676 9.55827C23.3019 9.45909 23.3745 9.41204 23.4854 9.41719Z" fill="#7D7C7C"/>
<path opacity="0.075" fill-rule="evenodd" clip-rule="evenodd" d="M45.8457 9.55824C45.9566 9.55309 46.0292 9.60014 46.0635 9.69932C45.9526 9.70447 45.88 9.65742 45.8457 9.55824Z" fill="#9B9999"/>
<path opacity="0.043" fill-rule="evenodd" clip-rule="evenodd" d="M46.0625 9.69916C46.2007 9.71595 46.2976 9.78649 46.3529 9.91078C46.2147 9.89399 46.1178 9.82345 46.0625 9.69916Z" fill="#999797"/>
<path opacity="0.475" fill-rule="evenodd" clip-rule="evenodd" d="M23.2686 9.55811C23.0908 9.77368 22.873 9.93825 22.6152 10.0519C22.793 9.83632 23.0108 9.67175 23.2686 9.55811Z" fill="#7F7E7E"/>
<path opacity="0.153" fill-rule="evenodd" clip-rule="evenodd" d="M46.498 10.0522C46.6089 10.0471 46.6815 10.0941 46.7158 10.1933C46.605 10.1984 46.5324 10.1514 46.498 10.0522Z" fill="#929090"/>
<path opacity="0.765" fill-rule="evenodd" clip-rule="evenodd" d="M22.6149 10.0521C22.5362 10.1993 22.4152 10.2933 22.252 10.3342C22.3307 10.187 22.4517 10.093 22.6149 10.0521Z" fill="#6A6969"/>
<path opacity="0.043" fill-rule="evenodd" clip-rule="evenodd" d="M46.7891 10.2636C46.9523 10.3045 47.0733 10.3986 47.152 10.5458C46.9888 10.5049 46.8678 10.4108 46.7891 10.2636Z" fill="#918F8F"/>
<path opacity="0.804" fill-rule="evenodd" clip-rule="evenodd" d="M22.25 10.3342C22.1476 10.5045 22.0024 10.622 21.8145 10.6869C21.9169 10.5166 22.0621 10.399 22.25 10.3342Z" fill="#757373"/>
<path opacity="0.565" fill-rule="evenodd" clip-rule="evenodd" d="M47.1523 10.5457C47.3908 10.6598 47.5844 10.8244 47.7331 11.0395C47.4928 10.9234 47.2992 10.7587 47.1523 10.5457Z" fill="#8B8989"/>
<path opacity="0.353" fill-rule="evenodd" clip-rule="evenodd" d="M21.8154 10.6868C21.767 10.7808 21.6944 10.8513 21.5977 10.8984C21.5977 10.7573 21.6703 10.6868 21.8154 10.6868Z" fill="#8A8989"/>
<path opacity="0.141" fill-rule="evenodd" clip-rule="evenodd" d="M36.0445 11.1805C35.0766 11.1805 34.1086 11.1805 33.1406 11.1805C33.246 11.124 33.367 11.0887 33.5036 11.0747C34.2538 11.0277 35.004 11.0277 35.7541 11.0747C35.8672 11.0895 35.964 11.1248 36.0445 11.1805Z" fill="#F08487"/>
<path opacity="0.722" fill-rule="evenodd" clip-rule="evenodd" d="M47.7324 11.0394C47.8776 11.1335 47.9986 11.2511 48.0954 11.3921C47.9018 11.3451 47.7808 11.2276 47.7324 11.0394Z" fill="#6D6B6B"/>
<path fill-rule="evenodd" clip-rule="evenodd" d="M36.0449 11.1806C36.3604 11.1689 36.675 11.1807 36.9887 11.2159C37.029 11.2429 37.0532 11.2782 37.0613 11.3217C36.7062 11.3195 36.3675 11.2724 36.0449 11.1806Z" fill="#EF6969"/>
<path opacity="0.153" fill-rule="evenodd" clip-rule="evenodd" d="M32.559 11.251C32.2555 11.3378 31.9409 11.4084 31.6152 11.4626C31.6233 11.4191 31.6475 11.3838 31.6878 11.3568C31.9739 11.2852 32.2643 11.2499 32.559 11.251Z" fill="#EF8083"/>
<path opacity="0.694" fill-rule="evenodd" clip-rule="evenodd" d="M21.5985 10.8983C20.9673 11.5351 20.3381 12.17 19.7109 12.8029C20.2404 12.0768 20.8696 11.4419 21.5985 10.8983Z" fill="#777676"/>
<path opacity="0.906" fill-rule="evenodd" clip-rule="evenodd" d="M48.2422 11.5333C48.5856 11.7962 48.876 12.1019 49.1134 12.4504C48.77 12.1874 48.4796 11.8818 48.2422 11.5333Z" fill="#797777"/>
<path opacity="0.967" fill-rule="evenodd" clip-rule="evenodd" d="M109.804 11.6039C114.726 11.4264 118.15 13.5427 120.077 17.9525C120.634 19.5354 120.997 21.1578 121.166 22.8198C121.202 24.6538 121.214 26.4878 121.202 28.322C115.781 28.322 110.361 28.322 104.94 28.322C105.022 30.2959 105.941 31.789 107.699 32.8014C109.56 33.7518 111.472 33.8458 113.434 33.0835C114.016 32.8009 114.511 32.413 114.922 31.9196C116.086 32.9565 117.248 33.9912 118.407 35.0234C118.456 35.0939 118.456 35.1645 118.407 35.235C116.739 37.324 114.55 38.5114 111.837 38.7973C108.749 39.1493 105.966 38.4439 103.488 36.6811C101.898 35.2243 100.796 33.4726 100.185 31.4258C99.9651 30.5908 99.7836 29.7443 99.6406 28.8863C100.391 28.8981 101.141 28.8863 101.891 28.8511C102.097 28.8393 102.205 28.7335 102.218 28.5336C102.266 26.3234 102.266 24.1131 102.218 21.9028C102.205 21.703 102.097 21.5972 101.891 21.5854C101.214 21.5501 100.536 21.5384 99.8584 21.5501C100.251 18.8631 101.376 16.5117 103.234 14.496C105.078 12.7711 107.268 11.8071 109.804 11.6039ZM110.095 16.8239C112.201 16.7241 113.761 17.5706 114.777 19.3633C115.362 20.5716 115.713 21.8414 115.83 23.1725C112.2 23.1725 108.57 23.1725 104.94 23.1725C105.015 21.5007 105.559 19.9958 106.574 18.6579C107.497 17.5688 108.671 16.9574 110.095 16.8239Z" fill="white"/>
<path opacity="0.671" fill-rule="evenodd" clip-rule="evenodd" d="M14.7739 11.6743C14.1779 11.7346 13.5729 11.8052 12.959 11.8859C13.1792 11.7788 13.4212 11.7201 13.685 11.7096C14.0471 11.6744 14.4101 11.6626 14.7739 11.6743Z" fill="#535252"/>
<path opacity="0.494" fill-rule="evenodd" clip-rule="evenodd" d="M31.0359 11.6039C30.7197 11.785 30.3809 11.9261 30.0195 12.0271C30.3251 11.8182 30.6639 11.6771 31.0359 11.6039Z" fill="#EC8789"/>
<path opacity="0.494" fill-rule="evenodd" clip-rule="evenodd" d="M37.0605 11.3218C37.7978 11.4064 38.4755 11.6415 39.0933 12.0272C38.4585 11.7761 37.8052 11.5763 37.1331 11.4276C37.0928 11.4006 37.0686 11.3653 37.0605 11.3218Z" fill="#ED8789"/>
<path fill-rule="evenodd" clip-rule="evenodd" d="M14.7739 11.6744C14.8544 11.6784 14.927 11.7019 14.9917 11.7449C15.3578 11.8833 15.7449 11.9774 16.1533 12.0271C16.458 12.0775 16.7 12.2186 16.8792 12.4503C16.3491 14.0194 15.7926 15.5713 15.2095 17.106C15.1393 17.1981 15.0425 17.2452 14.9191 17.2471C14.62 17.1578 14.3296 17.0403 14.048 16.8944C13.9622 16.7839 13.8413 16.725 13.685 16.718C13.2494 16.671 12.8138 16.671 12.3782 16.718C12.1339 16.7537 11.9162 16.836 11.7249 16.9649C11.5023 17.1335 11.2602 17.2746 10.9989 17.3882C10.8236 17.4877 10.7026 17.6288 10.6359 17.8114C10.3902 18.1775 10.1724 18.5537 9.98254 18.9401C9.80845 19.2154 9.71168 19.521 9.69215 19.8571C9.69215 19.8806 9.69215 19.9042 9.69215 19.9276C9.57832 20.0907 9.51777 20.2788 9.51066 20.492C9.49853 26.2882 9.46223 32.0725 9.40176 37.845C7.73203 37.845 6.06231 37.845 4.39258 37.845C4.39258 29.2155 4.39258 20.586 4.39258 11.9565C6.06231 11.9565 7.73203 11.9565 9.40176 11.9565C9.37759 12.9452 9.40183 13.9328 9.47436 14.9193C9.56184 14.8433 9.61026 14.7492 9.61955 14.6371C10.0928 13.3334 11.0124 12.4517 12.3782 11.9918C12.5643 11.9157 12.7578 11.8804 12.959 11.886C13.573 11.8052 14.1779 11.7347 14.7739 11.6744Z" fill="white"/>
<path opacity="0.635" fill-rule="evenodd" clip-rule="evenodd" d="M14.9902 11.7449C15.4025 11.7693 15.7897 11.8633 16.1518 12.0271C15.7434 11.9774 15.3563 11.8833 14.9902 11.7449Z" fill="#414040"/>
<path opacity="0.506" fill-rule="evenodd" clip-rule="evenodd" d="M9.62184 14.6373C9.61254 14.7495 9.56412 14.8435 9.47664 14.9195C9.40412 13.933 9.37987 12.9455 9.40405 11.9568C7.73432 11.9568 6.06459 11.9568 4.39486 11.9568C4.39486 20.5862 4.39486 29.2158 4.39486 37.8452C6.06459 37.8452 7.73432 37.8452 9.40405 37.8452C9.40405 37.8687 9.40405 37.8923 9.40405 37.9158C7.71014 37.9158 6.01619 37.9158 4.32227 37.9158C4.32227 29.2393 4.32227 20.5627 4.32227 11.8862C6.06459 11.8862 7.80692 11.8862 9.54924 11.8862C9.55585 12.8299 9.54372 13.7704 9.51294 14.7079C9.54075 14.6686 9.57704 14.6451 9.62184 14.6373Z" fill="#595858"/>
<path fill-rule="evenodd" clip-rule="evenodd" d="M30.0196 12.0271C29.7543 12.2145 29.4639 12.3556 29.1484 12.4503C29.3287 12.109 29.6191 11.968 30.0196 12.0271Z" fill="#F06561"/>
<path opacity="0.706" fill-rule="evenodd" clip-rule="evenodd" d="M39.0938 12.027C39.207 12.0284 39.3159 12.0519 39.4204 12.0976C39.6094 12.2423 39.8151 12.3598 40.0375 12.4503C40.0639 12.4985 40.088 12.5455 40.1101 12.5914C39.7471 12.4387 39.4083 12.2506 39.0938 12.027Z" fill="#EF878A"/>
<path opacity="0.855" fill-rule="evenodd" clip-rule="evenodd" d="M49.1113 12.4504C49.2866 12.55 49.4076 12.6911 49.4743 12.8737C49.2991 12.7742 49.178 12.6331 49.1113 12.4504Z" fill="#757373"/>
<path opacity="0.627" fill-rule="evenodd" clip-rule="evenodd" d="M40.1113 12.5913C40.2222 12.5862 40.2948 12.6332 40.3291 12.7324C40.2183 12.7376 40.1457 12.6905 40.1113 12.5913Z" fill="#ED8C8F"/>
<path fill-rule="evenodd" clip-rule="evenodd" d="M40.5449 12.8735C40.697 12.9379 40.8422 13.0202 40.9805 13.1204C41.0351 13.1678 41.0593 13.2265 41.0531 13.2968C40.8425 13.2056 40.6731 13.0646 40.5449 12.8735Z" fill="#EF8588"/>
<path opacity="0.596" fill-rule="evenodd" clip-rule="evenodd" d="M19.7106 12.803C19.6439 12.9857 19.5229 13.1268 19.3477 13.2263C19.4144 13.0437 19.5354 12.9026 19.7106 12.803Z" fill="#848383"/>
<path opacity="0.388" fill-rule="evenodd" clip-rule="evenodd" d="M49.4746 12.8735C49.6499 12.9731 49.7709 13.1141 49.8376 13.2968C49.6623 13.1972 49.5413 13.0562 49.4746 12.8735Z" fill="#848282"/>
<path opacity="0.992" fill-rule="evenodd" clip-rule="evenodd" d="M28.6407 12.803C28.3769 13.0488 28.0865 13.2604 27.7695 13.4379C27.8143 13.3159 27.8869 13.2101 27.9873 13.1205C28.1992 12.9954 28.417 12.8896 28.6407 12.803Z" fill="#EE8587"/>
<path opacity="0.796" fill-rule="evenodd" clip-rule="evenodd" d="M49.8379 13.2968C49.9658 13.3505 50.0384 13.4446 50.0557 13.5789C49.9278 13.5252 49.8552 13.4311 49.8379 13.2968Z" fill="#807E7E"/>
<path opacity="0.267" fill-rule="evenodd" clip-rule="evenodd" d="M19.3477 13.2264C19.2376 13.4404 19.0924 13.6285 18.9121 13.7908C18.9868 13.5516 19.132 13.3635 19.3477 13.2264Z" fill="#908E8E"/>
<path opacity="0.749" fill-rule="evenodd" clip-rule="evenodd" d="M50.0566 13.579C50.1846 13.6328 50.2572 13.7269 50.2744 13.8612C50.1465 13.8075 50.0739 13.7134 50.0566 13.579Z" fill="#828080"/>
<path opacity="0.494" fill-rule="evenodd" clip-rule="evenodd" d="M18.9125 13.7906C18.9178 13.8984 18.8696 13.9689 18.768 14.0023C18.7627 13.8946 18.8109 13.824 18.9125 13.7906Z" fill="#818080"/>
<path opacity="0.439" fill-rule="evenodd" clip-rule="evenodd" d="M50.2738 13.8612C50.3755 13.8946 50.4237 13.9651 50.4184 14.0728C50.3168 14.0395 50.2686 13.9689 50.2738 13.8612Z" fill="#848282"/>
<path opacity="0.643" fill-rule="evenodd" clip-rule="evenodd" d="M18.7666 14.0022C18.7493 14.1365 18.6767 14.2306 18.5488 14.2844C18.5661 14.1501 18.6387 14.0559 18.7666 14.0022Z" fill="#7D7B7B"/>
<path opacity="0.537" fill-rule="evenodd" clip-rule="evenodd" d="M50.4184 14.0728C50.52 14.1061 50.5682 14.1767 50.5629 14.2844C50.4613 14.251 50.4131 14.1805 50.4184 14.0728Z" fill="#807E7E"/>
<path opacity="0.4" fill-rule="evenodd" clip-rule="evenodd" d="M18.5492 14.2846C18.5545 14.3923 18.5063 14.4629 18.4047 14.4962C18.3994 14.3885 18.4476 14.318 18.5492 14.2846Z" fill="#929191"/>
<path opacity="0.502" fill-rule="evenodd" clip-rule="evenodd" d="M50.5645 14.2846C50.6924 14.3384 50.765 14.4325 50.7822 14.5668C50.6543 14.513 50.5817 14.4189 50.5645 14.2846Z" fill="#848383"/>
<path opacity="0.275" fill-rule="evenodd" clip-rule="evenodd" d="M18.4028 14.4962C18.408 14.6039 18.3598 14.6744 18.2582 14.7078C18.2529 14.6001 18.3011 14.5295 18.4028 14.4962Z" fill="#979595"/>
<path opacity="0.412" fill-rule="evenodd" clip-rule="evenodd" d="M50.8539 14.7077C50.9555 14.7411 51.0037 14.8116 50.9985 14.9193C50.8968 14.886 50.8486 14.8154 50.8539 14.7077Z" fill="#8B8989"/>
<path opacity="0.62" fill-rule="evenodd" clip-rule="evenodd" d="M26.8978 14.2846C26.6732 14.6036 26.4313 14.9093 26.1719 15.2016C26.3112 14.818 26.5532 14.5123 26.8978 14.2846Z" fill="#F08A8C"/>
<path opacity="0.255" fill-rule="evenodd" clip-rule="evenodd" d="M51.0004 14.9193C51.102 14.9527 51.1502 15.0232 51.145 15.1309C51.0433 15.0976 50.9951 15.027 51.0004 14.9193Z" fill="#9C9A9A"/>
<path opacity="0.314" fill-rule="evenodd" clip-rule="evenodd" d="M18.1853 14.8488C18.1004 15.0612 17.9794 15.2493 17.8223 15.4131C17.8708 15.1768 17.9919 14.9887 18.1853 14.8488Z" fill="#8E8D8D"/>
<path opacity="0.016" fill-rule="evenodd" clip-rule="evenodd" d="M41.0547 13.2968C41.4618 13.6095 41.8611 13.9387 42.2525 14.2843C42.5047 14.6909 42.783 15.0788 43.0874 15.4482C43.1344 15.5498 43.1586 15.6556 43.16 15.7657C42.8214 15.3651 42.5068 14.9418 42.2162 14.4959C41.8275 14.0948 41.4403 13.695 41.0547 13.2968Z" fill="#EE8D8F"/>
<path opacity="0.298" fill-rule="evenodd" clip-rule="evenodd" d="M51.2191 15.2719C51.3208 15.3053 51.369 15.3758 51.3637 15.4835C51.2621 15.4502 51.2139 15.3796 51.2191 15.2719Z" fill="#A19F9F"/>
<path opacity="0.961" fill-rule="evenodd" clip-rule="evenodd" d="M17.8236 15.4132C17.7795 15.6182 17.6827 15.7828 17.5332 15.907C17.5752 15.7073 17.672 15.5427 17.8236 15.4132Z" fill="#6D6B6B"/>
<path opacity="0.624" fill-rule="evenodd" clip-rule="evenodd" d="M26.1722 15.2015C26.031 15.4794 25.8616 15.738 25.6641 15.9774C25.6654 15.8674 25.6896 15.7616 25.7367 15.66C25.8789 15.5683 25.9636 15.439 25.9907 15.272C26.0395 15.219 26.0999 15.1954 26.1722 15.2015Z" fill="#EF8A8B"/>
<path opacity="0.212" fill-rule="evenodd" clip-rule="evenodd" d="M51.4355 15.6248C51.5871 15.7543 51.6839 15.9189 51.7259 16.1186C51.5744 15.9891 51.4776 15.8245 51.4355 15.6248Z" fill="#AAA8A8"/>
<path opacity="0.114" fill-rule="evenodd" clip-rule="evenodd" d="M17.5315 15.9069C17.52 16.0235 17.4719 16.1175 17.3871 16.189C17.3675 16.0564 17.4157 15.9624 17.5315 15.9069Z" fill="#A8A6A6"/>
<path fill-rule="evenodd" clip-rule="evenodd" d="M35.9712 16.4006C35.08 16.244 34.1847 16.2206 33.2852 16.33C33.3155 16.2791 33.3639 16.2438 33.4304 16.2242C34.3067 16.0465 35.1537 16.1052 35.9712 16.4006Z" fill="#EB787A"/>
<path fill-rule="evenodd" clip-rule="evenodd" d="M35.9716 16.4007C36.2312 16.5716 36.5216 16.6892 36.8427 16.7534C36.8568 16.9236 36.9536 16.9941 37.1331 16.965C37.449 17.3708 37.812 17.7235 38.2221 18.0232C38.3079 18.2715 38.4531 18.4831 38.6577 18.658C38.6866 18.8643 38.7833 19.0289 38.9481 19.1518C38.962 19.4059 39.0588 19.6175 39.2384 19.7867C39.27 20.1458 39.3667 20.475 39.5288 20.7742C39.5537 21.1095 39.6022 21.4387 39.674 21.7618C39.674 22.0205 39.674 22.2791 39.674 22.5378C36.0926 22.5378 32.5111 22.5378 28.9297 22.5378C28.9443 22.1139 28.9685 21.6906 29.0023 21.268C29.1478 20.9357 29.2446 20.583 29.2927 20.2099C29.3583 20.1599 29.3825 20.0894 29.3653 19.9983C29.4379 19.9983 29.5105 19.9983 29.5831 19.9983C29.6051 19.7851 29.6414 19.5735 29.692 19.3634C30.0353 18.8321 30.3862 18.3148 30.7446 17.8115C31.12 17.5605 31.4587 17.2783 31.761 16.965C32.0228 16.8204 32.3011 16.7029 32.5958 16.6123C32.6706 16.5886 32.7069 16.5416 32.7047 16.4713C32.9173 16.4667 33.1109 16.4196 33.2855 16.3302C34.185 16.2207 35.0804 16.2442 35.9716 16.4007Z" fill="white"/>
<path opacity="0.753" fill-rule="evenodd" clip-rule="evenodd" d="M25.6657 15.9774C25.5732 16.2074 25.4523 16.419 25.3027 16.6123C25.3297 16.3418 25.4507 16.1301 25.6657 15.9774Z" fill="#EF8B8E"/>
<path opacity="0.69" fill-rule="evenodd" clip-rule="evenodd" d="M33.2859 16.3301C33.1113 16.4195 32.9176 16.4666 32.7051 16.4712C32.8748 16.3625 33.0684 16.3156 33.2859 16.3301Z" fill="#EC898C"/>
<path opacity="0.302" fill-rule="evenodd" clip-rule="evenodd" d="M35.9707 16.4006C36.2975 16.442 36.5878 16.5596 36.8419 16.7533C36.5207 16.689 36.2303 16.5714 35.9707 16.4006Z" fill="#EE8F91"/>
<path opacity="0.173" fill-rule="evenodd" clip-rule="evenodd" d="M17.3136 16.3301C17.2779 16.4937 17.2053 16.6347 17.0958 16.7533C17.093 16.5707 17.1655 16.4296 17.3136 16.3301Z" fill="#A5A3A3"/>
<path opacity="0.212" fill-rule="evenodd" clip-rule="evenodd" d="M14.0477 16.8946C13.2677 16.699 12.4933 16.7224 11.7246 16.9651C11.9159 16.8362 12.1337 16.7538 12.378 16.7182C12.8136 16.6712 13.2491 16.6712 13.6847 16.7182C13.841 16.7252 13.962 16.784 14.0477 16.8946Z" fill="#565555"/>
<path opacity="0.722" fill-rule="evenodd" clip-rule="evenodd" d="M32.7055 16.4711C32.7077 16.5414 32.6714 16.5884 32.5966 16.6122C32.3018 16.7027 32.0235 16.8202 31.7617 16.9649C32.0233 16.7084 32.3378 16.5438 32.7055 16.4711Z" fill="#ED8689"/>
<path opacity="0.839" fill-rule="evenodd" clip-rule="evenodd" d="M36.8438 16.7535C36.9615 16.7974 37.0583 16.8679 37.1341 16.9651C36.9546 16.9942 36.8578 16.9236 36.8438 16.7535Z" fill="#EE8A8C"/>
<path opacity="0.702" fill-rule="evenodd" clip-rule="evenodd" d="M43.1602 15.7659C43.2987 15.7929 43.4076 15.8634 43.4868 15.9775C43.7038 16.5099 43.8853 17.0508 44.0313 17.5999C43.7441 16.9941 43.4537 16.3828 43.1602 15.7659Z" fill="#F17F7F"/>
<path opacity="0.208" fill-rule="evenodd" clip-rule="evenodd" d="M16.9519 17.0355C16.959 17.1803 16.9108 17.2979 16.8073 17.3882C16.8002 17.2434 16.8484 17.1258 16.9519 17.0355Z" fill="#9A9898"/>
<path opacity="0.6" fill-rule="evenodd" clip-rule="evenodd" d="M51.8711 16.4006C52.072 16.6738 52.2172 16.9795 52.3067 17.3176C52.1919 17.1642 52.083 16.9997 51.98 16.8238C51.921 16.6873 51.8847 16.5462 51.8711 16.4006Z" fill="#8C8B8B"/>
<path opacity="0.01" fill-rule="evenodd" clip-rule="evenodd" d="M15.2084 17.1061C15.2084 17.2001 15.2084 17.2942 15.2084 17.3882C15.0719 17.4074 14.9751 17.3603 14.918 17.2472C15.0413 17.2453 15.1382 17.1982 15.2084 17.1061Z" fill="#706F6F"/>
<path fill-rule="evenodd" clip-rule="evenodd" d="M37.1328 16.965C37.5684 17.2472 37.9314 17.5999 38.2218 18.0231C37.8117 17.7235 37.4487 17.3708 37.1328 16.965Z" fill="#F08184"/>
<path opacity="0.769" fill-rule="evenodd" clip-rule="evenodd" d="M25.1553 16.8237C24.9695 17.3852 24.7518 17.9261 24.502 18.4462C24.5214 18.2176 24.5698 17.9943 24.6471 17.776C24.7768 17.5548 24.8736 17.3197 24.9375 17.0706C25.0008 16.9744 25.0734 16.8922 25.1553 16.8237Z" fill="#EF8486"/>
<path fill-rule="evenodd" clip-rule="evenodd" d="M31.7625 16.965C31.4602 17.2783 31.1215 17.5605 30.7461 17.8115C31.0204 17.4506 31.3592 17.1684 31.7625 16.965Z" fill="#F16D6D"/>
<path opacity="0.016" fill-rule="evenodd" clip-rule="evenodd" d="M10.9997 17.3882C10.933 17.5708 10.812 17.7119 10.6367 17.8114C10.7034 17.6288 10.8245 17.4877 10.9997 17.3882Z" fill="#555454"/>
<path opacity="0.251" fill-rule="evenodd" clip-rule="evenodd" d="M16.7331 17.5292C16.7402 17.6741 16.692 17.7916 16.5886 17.8819C16.5815 17.7371 16.6297 17.6195 16.7331 17.5292Z" fill="#A5A3A3"/>
<path opacity="0.965" fill-rule="evenodd" clip-rule="evenodd" d="M52.4512 17.6705C52.6177 17.873 52.7146 18.1081 52.7416 18.3759C52.5662 18.1756 52.4695 17.9405 52.4512 17.6705Z" fill="#807E7E"/>
<path opacity="0.453" fill-rule="evenodd" clip-rule="evenodd" d="M44.0312 17.5997C44.1905 17.7424 44.2631 17.9305 44.249 18.1641C44.1495 17.9922 44.0769 17.8041 44.0312 17.5997Z" fill="#EE898B"/>
<path opacity="0.729" fill-rule="evenodd" clip-rule="evenodd" d="M30.7469 17.8116C30.3884 18.3149 30.0376 18.8322 29.6942 19.3635C29.6437 19.5736 29.6074 19.7852 29.5853 19.9983C29.5127 19.9983 29.4401 19.9983 29.3675 19.9983C29.3847 20.0894 29.3605 20.16 29.2949 20.21C29.5567 19.2772 30.0406 18.4778 30.7469 17.8116Z" fill="#F07F7F"/>
<path opacity="0.486" fill-rule="evenodd" clip-rule="evenodd" d="M38.2227 18.0231C38.4222 18.1993 38.5674 18.4109 38.6582 18.658C38.4537 18.4831 38.3085 18.2715 38.2227 18.0231Z" fill="#EE8B8C"/>
<path opacity="0.969" fill-rule="evenodd" clip-rule="evenodd" d="M16.5889 17.8821C16.6001 18.109 16.5275 18.2971 16.3711 18.4465C16.4059 18.2389 16.4785 18.0507 16.5889 17.8821Z" fill="#636262"/>
<path opacity="0.808" fill-rule="evenodd" clip-rule="evenodd" d="M44.248 18.1642C44.3269 18.1726 44.3753 18.2197 44.3932 18.3053C44.4699 18.5835 44.5183 18.8656 44.5384 19.1518C44.4203 18.8346 44.3235 18.5054 44.248 18.1642Z" fill="#EF8080"/>
<path opacity="0.749" fill-rule="evenodd" clip-rule="evenodd" d="M52.7422 18.3758C52.9429 18.7211 53.0639 19.0974 53.1052 19.5044C52.9278 19.1517 52.8068 18.7755 52.7422 18.3758Z" fill="#8A8888"/>
<path fill-rule="evenodd" clip-rule="evenodd" d="M16.3705 18.4463C16.3536 18.7596 16.2569 19.0418 16.0801 19.2928C16.135 18.9918 16.2317 18.7096 16.3705 18.4463Z" fill="#6F6D6D"/>
<path opacity="0.012" fill-rule="evenodd" clip-rule="evenodd" d="M38.6582 18.6579C38.7998 18.794 38.8965 18.9586 38.9486 19.1517C38.7839 19.0288 38.6871 18.8642 38.6582 18.6579Z" fill="#ED9D9F"/>
<path opacity="0.388" fill-rule="evenodd" clip-rule="evenodd" d="M9.98179 18.9402C9.91733 19.2628 9.82056 19.5684 9.69141 19.8573C9.71093 19.5212 9.80771 19.2156 9.98179 18.9402Z" fill="#585757"/>
<path opacity="0.133" fill-rule="evenodd" clip-rule="evenodd" d="M24.4997 18.4463C24.432 18.8092 24.311 19.1384 24.1367 19.4339C24.2089 19.1545 24.2815 18.8724 24.3545 18.5874C24.3724 18.5018 24.4209 18.4548 24.4997 18.4463Z" fill="#EF9496"/>
<path opacity="0.612" fill-rule="evenodd" clip-rule="evenodd" d="M16.0807 19.2928C16.0872 19.4799 16.0391 19.6445 15.9361 19.7866C15.9296 19.5996 15.9778 19.435 16.0807 19.2928Z" fill="#8B8A8A"/>
<path opacity="0.71" fill-rule="evenodd" clip-rule="evenodd" d="M38.9473 19.1518C39.0718 19.3495 39.1685 19.5611 39.2377 19.7867C39.058 19.6175 38.9612 19.4059 38.9473 19.1518Z" fill="#EC8E8F"/>
<path opacity="0.035" fill-rule="evenodd" clip-rule="evenodd" d="M53.105 19.5045C53.2187 19.6175 53.2669 19.7585 53.2495 19.9277C53.1358 19.8147 53.0876 19.6736 53.105 19.5045Z" fill="#979595"/>
<path opacity="0.775" fill-rule="evenodd" clip-rule="evenodd" d="M44.5391 19.1518C44.6441 19.1965 44.6925 19.2788 44.6843 19.3987C44.7633 19.7835 44.8117 20.1715 44.8294 20.5626C44.7261 20.0962 44.6294 19.626 44.5391 19.1518Z" fill="#F18486"/>
<path opacity="0.373" fill-rule="evenodd" clip-rule="evenodd" d="M24.1367 19.4339C24.1496 19.6894 24.1014 19.9246 23.9922 20.1393C23.9957 19.8869 24.0439 19.6518 24.1367 19.4339Z" fill="#ED888A"/>
<path opacity="0.722" fill-rule="evenodd" clip-rule="evenodd" d="M39.2383 19.7866C39.4164 20.0877 39.5131 20.4169 39.5287 20.7741C39.3666 20.4749 39.2698 20.1457 39.2383 19.7866Z" fill="#EE9193"/>
<path opacity="0.714" fill-rule="evenodd" clip-rule="evenodd" d="M23.9935 20.1394C23.9028 20.6644 23.806 21.1817 23.7031 21.6913C23.7261 21.1937 23.7866 20.6999 23.8846 20.2099C23.9124 20.1707 23.9487 20.1472 23.9935 20.1394Z" fill="#F08384"/>
<path opacity="0.165" fill-rule="evenodd" clip-rule="evenodd" d="M29.2943 20.21C29.2462 20.5831 29.1494 20.9358 29.0039 21.2681C29.034 20.8915 29.1307 20.5388 29.2943 20.21Z" fill="#EF8D8F"/>
<path opacity="0.186" fill-rule="evenodd" clip-rule="evenodd" d="M53.3965 20.5626C53.5326 20.8945 53.6052 21.2472 53.6143 21.6207C53.4882 21.287 53.4156 20.9343 53.3965 20.5626Z" fill="#8F8E8E"/>
<path opacity="0.204" fill-rule="evenodd" clip-rule="evenodd" d="M15.9362 19.7866C15.7338 20.7102 15.5402 21.6273 15.3555 22.5376C15.4209 21.5849 15.6144 20.6679 15.9362 19.7866Z" fill="#908E8E"/>
<path fill-rule="evenodd" clip-rule="evenodd" d="M16.7337 20.6331C16.6813 21.0097 16.6207 21.3859 16.5523 21.7617C16.5321 21.8263 16.4958 21.8733 16.4434 21.9028C16.4958 21.5261 16.5564 21.1499 16.6249 20.7741C16.645 20.7095 16.6813 20.6625 16.7337 20.6331Z" fill="#740F13"/>
<path opacity="0.365" fill-rule="evenodd" clip-rule="evenodd" d="M39.5293 20.7742C39.5741 20.782 39.6104 20.8055 39.6382 20.8447C39.6916 21.149 39.7278 21.4547 39.7471 21.7617C39.7229 21.7617 39.6987 21.7617 39.6745 21.7617C39.6026 21.4386 39.5542 21.1095 39.5293 20.7742Z" fill="#ED8688"/>
<path opacity="0.027" fill-rule="evenodd" clip-rule="evenodd" d="M53.6133 21.6207C53.6789 21.6707 53.7031 21.7412 53.6859 21.8323C54.2559 21.8094 54.8124 21.8329 55.3556 21.9028C54.7748 21.9028 54.1941 21.9028 53.6133 21.9028C53.6133 21.8088 53.6133 21.7147 53.6133 21.6207Z" fill="#B1AEAE"/>
<path opacity="0.012" fill-rule="evenodd" clip-rule="evenodd" d="M9.69273 19.9279C9.66442 20.1634 9.62812 20.3986 9.58384 20.6333C9.59581 26.418 9.53527 32.1789 9.40234 37.9158C9.40234 37.8923 9.40234 37.8687 9.40234 37.8452C9.46282 32.0727 9.49912 26.2884 9.51124 20.4922C9.51835 20.279 9.5789 20.0909 9.69273 19.9279Z" fill="#797777"/>
<path opacity="0.078" fill-rule="evenodd" clip-rule="evenodd" d="M23.7031 21.7617C23.715 21.998 23.7029 22.2331 23.667 22.4671C23.6502 22.5544 23.6141 22.6249 23.5586 22.6787C23.5781 22.3593 23.6263 22.0537 23.7031 21.7617Z" fill="#EAA1A4"/>
<path fill-rule="evenodd" clip-rule="evenodd" d="M52.5957 21.6207C52.7238 21.8057 52.7723 22.0173 52.7409 22.2555C69.0026 22.2555 85.2643 22.2555 101.526 22.2555C101.55 24.2428 101.526 26.2179 101.453 28.181C101.453 28.1575 101.453 28.1339 101.453 28.1104C101.453 26.1823 101.453 24.2542 101.453 22.3261C85.1917 22.3261 68.93 22.3261 52.6683 22.3261C52.6599 22.0891 52.6357 21.8539 52.5957 21.6207Z" fill="#7A1115"/>
<path fill-rule="evenodd" clip-rule="evenodd" d="M52.6683 22.3262C68.93 22.3262 85.1917 22.3262 101.453 22.3262C101.453 24.2543 101.453 26.1824 101.453 28.1105C85.1677 28.1223 68.8816 28.1105 52.5957 28.0752C68.8574 28.04 85.1191 28.0282 101.381 28.04C101.381 26.1824 101.381 24.3248 101.381 22.4673C85.1314 22.4713 68.8936 22.4244 52.6683 22.3262Z" fill="#F61F26"/>
<path opacity="0.933" fill-rule="evenodd" clip-rule="evenodd" d="M29.004 21.2678C28.9702 21.6904 28.946 22.1136 28.9314 22.5375C32.5247 22.608 36.1304 22.6315 39.7484 22.608C39.7484 22.3259 39.7484 22.0437 39.7484 21.7615C39.8444 22.0719 39.8444 22.3894 39.7484 22.7138C36.1185 22.7609 32.4887 22.7609 28.8588 22.7138C28.7947 22.2826 28.8068 21.8477 28.8951 21.4088C28.9153 21.3442 28.9516 21.2972 29.004 21.2678Z" fill="#F3898C"/>
<path fill-rule="evenodd" clip-rule="evenodd" d="M39.674 21.7617C39.6982 21.7617 39.7224 21.7617 39.7466 21.7617C39.7466 22.0439 39.7466 22.326 39.7466 22.6082C36.1287 22.6316 32.523 22.6081 28.9297 22.5377C32.5111 22.5377 36.0926 22.5377 39.674 22.5377C39.674 22.279 39.674 22.0204 39.674 21.7617Z" fill="white"/>
<path fill-rule="evenodd" clip-rule="evenodd" d="M16.4426 22.1146C16.4644 22.4172 16.4163 22.6994 16.2981 22.9611C16.2763 22.6585 16.3244 22.3763 16.4426 22.1146Z" fill="white"/>
<path opacity="0.4" fill-rule="evenodd" clip-rule="evenodd" d="M44.8281 20.6331C44.9919 21.1754 45.0766 21.7397 45.0822 22.326C45.1425 24.125 45.1303 25.9121 45.0459 27.6871C45.058 25.9705 45.0459 24.254 45.0096 22.5377C44.9827 21.8974 44.9222 21.2626 44.8281 20.6331Z" fill="#ED9092"/>
<path opacity="0.439" fill-rule="evenodd" clip-rule="evenodd" d="M15.3548 22.6083C15.3255 23.3016 15.3013 23.9952 15.2822 24.6892C15.3161 26.7424 15.6308 28.7528 16.226 30.7205C16.0738 30.3836 15.9408 30.0309 15.8267 29.6624C15.2059 27.3296 15.0486 24.9782 15.3548 22.6083Z" fill="#8A8989"/>
<path opacity="0.706" fill-rule="evenodd" clip-rule="evenodd" d="M23.5578 26.2058C23.5677 27.1513 23.6403 28.0919 23.7756 29.0274C23.6575 28.5811 23.5728 28.1108 23.5215 27.6166C23.4619 27.1337 23.474 26.6634 23.5578 26.2058Z" fill="#EF8384"/>
<path fill-rule="evenodd" clip-rule="evenodd" d="M45.0481 27.687C39.7007 27.8279 34.3286 27.875 28.9316 27.8281C28.9316 28.0632 28.9316 28.2984 28.9316 28.5335C28.9075 28.5335 28.8832 28.5335 28.859 28.5335C28.7631 28.2702 28.7631 27.9998 28.859 27.7223C34.2554 27.687 39.6517 27.6753 45.0481 27.687Z" fill="#EE6362"/>
<path fill-rule="evenodd" clip-rule="evenodd" d="M28.8574 28.5336C28.8814 28.5336 28.9056 28.5336 28.9296 28.5336C28.9724 28.7189 28.9964 28.9071 29.0019 29.098C28.8774 28.9371 28.8293 28.749 28.8574 28.5336Z" fill="#EB8B8E"/>
<path opacity="0.498" fill-rule="evenodd" clip-rule="evenodd" d="M53.6146 28.6041C53.5034 28.8344 53.4066 29.0695 53.3242 29.3095C53.3369 29.0715 53.3731 28.8364 53.4331 28.6041C53.504 28.5142 53.5646 28.5142 53.6146 28.6041Z" fill="#878585"/>
<path opacity="0.894" fill-rule="evenodd" clip-rule="evenodd" d="M69.4395 29.1683C71.2062 29.1565 72.9727 29.1683 74.739 29.2036C74.7753 29.2388 74.8116 29.2741 74.8479 29.3094C74.9082 32.1713 74.8958 35.0282 74.8116 37.8801C73.0214 37.9154 71.2303 37.9271 69.4395 37.9154C69.4395 34.9997 69.4395 32.084 69.4395 29.1683Z" fill="#0A0100"/>
<path opacity="0.914" fill-rule="evenodd" clip-rule="evenodd" d="M93.6152 29.1686C95.3989 29.1455 97.1776 29.1691 98.9511 29.2392C98.9874 32.1313 98.9997 35.0234 98.9874 37.9157C97.1964 37.9157 95.4062 37.9157 93.6152 37.9157C93.6152 35 93.6152 32.0843 93.6152 29.1686Z" fill="white"/>
<path opacity="0.957" fill-rule="evenodd" clip-rule="evenodd" d="M53.9043 29.2392C55.7194 29.2274 57.5343 29.2392 59.3491 29.2744C60.5081 32.1741 62.6617 33.3263 65.8102 32.7309C66.8303 32.4527 67.7136 31.9472 68.46 31.2143C68.6565 30.9411 68.838 30.6589 69.0044 30.3678C69.0891 32.1779 69.1012 33.9885 69.0407 35.7995C66.9219 38.1075 64.3206 38.8247 61.2366 37.9509C58.2309 36.8882 56.0892 34.9248 54.8118 32.0608C54.3844 31.156 54.0819 30.2154 53.9043 29.2392Z" fill="white"/>
<path opacity="0.956" fill-rule="evenodd" clip-rule="evenodd" d="M78.0781 29.2391C79.8938 29.2156 81.7087 29.2391 83.5229 29.3096C84.5915 32.0508 86.6242 33.2147 89.621 32.8014C90.6214 32.5856 91.5173 32.1624 92.3071 31.5317C92.6607 31.185 92.951 30.797 93.1783 30.3677C93.2632 32.1778 93.2748 33.9884 93.2146 35.7994C90.6098 38.4828 87.5723 39.0353 84.1037 37.4571C81.5475 36.1236 79.7573 34.1367 78.7315 31.4964C78.4462 30.7632 78.2284 30.0108 78.0781 29.2391Z" fill="white"/>
<path fill-rule="evenodd" clip-rule="evenodd" d="M16.8072 29.3097C16.9101 29.4518 16.9583 29.6164 16.9518 29.8035C16.8489 29.6613 16.8007 29.4968 16.8072 29.3097Z" fill="white"/>
<path fill-rule="evenodd" clip-rule="evenodd" d="M52.3779 29.0978C52.3411 29.3506 52.2685 29.5858 52.1602 29.8032C52.1822 29.5901 52.2185 29.3785 52.2691 29.1684C52.2969 29.1292 52.3332 29.1057 52.3779 29.0978Z" fill="#911217"/>
<path opacity="0.169" fill-rule="evenodd" clip-rule="evenodd" d="M53.3213 29.3097C53.3262 29.5968 53.2536 29.8555 53.1035 30.0856C53.1312 29.8073 53.2038 29.5487 53.3213 29.3097Z" fill="#9D9B9B"/>
<path fill-rule="evenodd" clip-rule="evenodd" d="M69.875 29.5918C71.3995 29.5918 72.9241 29.5918 74.4486 29.5918C74.4486 32.2253 74.4486 34.8589 74.4486 37.4924C72.9241 37.4924 71.3995 37.4924 69.875 37.4924C69.875 34.8589 69.875 32.2253 69.875 29.5918Z" fill="white"/>
<path fill-rule="evenodd" clip-rule="evenodd" d="M98.5513 37.4924C98.5513 37.4689 98.5513 37.4453 98.5513 37.4218C98.5513 34.8353 98.5513 32.2489 98.5513 29.6623C97.0507 29.6623 95.5509 29.6623 94.0503 29.6623C94.0503 32.2489 94.0503 34.8353 94.0503 37.4218C94.0503 37.4453 94.0503 37.4689 94.0503 37.4924C93.9777 34.8709 93.9538 32.2374 93.9777 29.5918C95.5262 29.5918 97.0754 29.5918 98.6239 29.5918C98.6479 32.2374 98.6239 34.8709 98.5513 37.4924Z" fill="white"/>
<path fill-rule="evenodd" clip-rule="evenodd" d="M98.5498 37.4218C98.5498 37.4453 98.5498 37.4688 98.5498 37.4923C97.0493 37.4923 95.5494 37.4923 94.0488 37.4923C94.0488 37.4688 94.0488 37.4453 94.0488 37.4218C94.1214 34.8708 94.1454 32.3079 94.1214 29.7328C95.5734 29.7328 97.0253 29.7328 98.4772 29.7328C98.4533 32.3079 98.4772 34.8708 98.5498 37.4218Z" fill="white"/>
<path fill-rule="evenodd" clip-rule="evenodd" d="M98.5498 37.4218C98.4772 34.8708 98.4533 32.3079 98.4772 29.7328C97.0253 29.7328 95.5734 29.7328 94.1214 29.7328C94.1454 32.3079 94.1214 34.8708 94.0488 37.4218C94.0488 34.8353 94.0488 32.2488 94.0488 29.6623C95.5494 29.6623 97.0493 29.6623 98.5498 29.6623C98.5498 32.2488 98.5498 34.8353 98.5498 37.4218Z" fill="#FB2027"/>
<path opacity="0.102" fill-rule="evenodd" clip-rule="evenodd" d="M23.7759 29.0276C23.9488 29.4688 24.0457 29.9391 24.0663 30.4384C23.9895 30.1583 23.9048 29.8761 23.8122 29.5919C23.7761 29.4053 23.764 29.2171 23.7759 29.0276Z" fill="#EE9698"/>
<path fill-rule="evenodd" clip-rule="evenodd" d="M16.9531 29.8033C16.9979 29.8112 17.0342 29.8347 17.062 29.8739C17.1229 30.1103 17.1833 30.3455 17.2435 30.5793C17.1987 30.5715 17.1624 30.548 17.1346 30.5088C17.0738 30.2723 17.0133 30.0372 16.9531 29.8033Z" fill="#8D1216"/>
<path fill-rule="evenodd" clip-rule="evenodd" d="M52.0889 30.0857C52.0701 30.2812 51.9975 30.4458 51.8711 30.5795C51.8899 30.3839 51.9625 30.2194 52.0889 30.0857Z" fill="#8E1216"/>
<path opacity="0.671" fill-rule="evenodd" clip-rule="evenodd" d="M29.0762 29.3802C29.2632 29.6977 29.4447 30.0268 29.6206 30.3678C29.9653 30.8304 30.3404 31.2537 30.7459 31.6375C29.9416 31.0636 29.3851 30.3112 29.0762 29.3802Z" fill="#F0898B"/>
<path opacity="0.345" fill-rule="evenodd" clip-rule="evenodd" d="M53.0313 30.3678C52.9448 30.793 52.7996 31.1928 52.5957 31.567C52.6854 31.1407 52.8306 30.741 53.0313 30.3678Z" fill="#9A9999"/>
<path opacity="0.51" fill-rule="evenodd" clip-rule="evenodd" d="M16.2266 30.7204C16.3403 30.8334 16.3885 30.9745 16.3711 31.1436C16.2816 31.0227 16.2334 30.8817 16.2266 30.7204Z" fill="#7F7D7D"/>
<path fill-rule="evenodd" clip-rule="evenodd" d="M24.0664 30.4383C24.204 30.6471 24.2766 30.8822 24.2842 31.1437C24.2008 31.1232 24.1524 31.0644 24.139 30.9673C24.0912 30.7937 24.0669 30.6173 24.0664 30.4383Z" fill="#F26C6D"/>
<path opacity="0.424" fill-rule="evenodd" clip-rule="evenodd" d="M24.2849 31.1436C24.4008 31.3092 24.4734 31.4972 24.5027 31.7079C24.3435 31.5652 24.2709 31.3771 24.2849 31.1436Z" fill="#EF888A"/>
<path opacity="0.529" fill-rule="evenodd" clip-rule="evenodd" d="M16.3711 31.1436C16.6061 31.5925 16.7996 32.0627 16.9519 32.5544C16.6885 32.1167 16.4949 31.6464 16.3711 31.1436Z" fill="#848282"/>
<path opacity="0.973" fill-rule="evenodd" clip-rule="evenodd" d="M39.0938 31.567C39.334 31.6831 39.5277 31.8477 39.6745 32.0607C39.4376 31.9483 39.244 31.7837 39.0938 31.567Z" fill="#EF8385"/>
<path fill-rule="evenodd" clip-rule="evenodd" d="M30.7461 31.6375C30.9879 31.6609 31.1573 31.7784 31.2543 31.9902C31.0459 31.9244 30.8765 31.8068 30.7461 31.6375Z" fill="#F07274"/>
<path opacity="0.784" fill-rule="evenodd" clip-rule="evenodd" d="M39.0929 31.567C39.0032 31.5515 38.9306 31.5044 38.8751 31.426C38.5394 31.8931 38.1038 32.2222 37.5684 32.4135C37.9848 32.1153 38.3719 31.7743 38.7299 31.3907C38.91 31.3371 39.031 31.3959 39.0929 31.567Z" fill="#EE888A"/>
<path opacity="0.173" fill-rule="evenodd" clip-rule="evenodd" d="M24.5023 31.708C24.592 31.8596 24.6646 32.0242 24.7201 32.2018C24.5516 32.0896 24.479 31.9251 24.5023 31.708Z" fill="#EE9395"/>
<path opacity="0.4" fill-rule="evenodd" clip-rule="evenodd" d="M52.596 31.6375C52.5844 31.7541 52.5363 31.8481 52.4515 31.9197C52.4319 31.7871 52.4801 31.693 52.596 31.6375Z" fill="#999797"/>
<path fill-rule="evenodd" clip-rule="evenodd" d="M31.3262 32.0607C31.6055 32.087 31.8233 32.2046 31.9795 32.4134C31.7414 32.3212 31.5236 32.2037 31.3262 32.0607Z" fill="#EF7B7E"/>
<path fill-rule="evenodd" clip-rule="evenodd" d="M39.6758 32.0607C40.0549 32.3109 40.3936 32.6167 40.6921 32.9777C40.3074 32.7214 39.9686 32.4158 39.6758 32.0607Z" fill="#EE7F80"/>
<path opacity="0.498" fill-rule="evenodd" clip-rule="evenodd" d="M31.9785 32.4133C32.1225 32.3891 32.2193 32.4362 32.2689 32.5544C32.1324 32.5735 32.0356 32.5265 31.9785 32.4133Z" fill="#EF8B8D"/>
<path opacity="0.078" fill-rule="evenodd" clip-rule="evenodd" d="M37.5694 32.4135C37.535 32.5127 37.4624 32.5598 37.3516 32.5546C37.3749 32.4454 37.4475 32.3984 37.5694 32.4135Z" fill="#F29194"/>
<path opacity="0.765" fill-rule="evenodd" clip-rule="evenodd" d="M24.7207 32.2722C24.8452 32.4699 24.942 32.6816 25.0111 32.9071C24.8328 32.7436 24.736 32.5319 24.7207 32.2722Z" fill="#EE8F91"/>
<path opacity="0.161" fill-rule="evenodd" clip-rule="evenodd" d="M52.4519 31.9196C52.3277 32.3769 52.134 32.8001 51.8711 33.1894C52.0235 32.7439 52.2171 32.3206 52.4519 31.9196Z" fill="#939191"/>
<path opacity="0.992" fill-rule="evenodd" clip-rule="evenodd" d="M32.4883 32.6251C33.0211 32.7 33.5292 32.8175 34.0128 32.9778C33.4634 32.9794 32.9552 32.8619 32.4883 32.6251Z" fill="#F07A7C"/>
<path opacity="0.396" fill-rule="evenodd" clip-rule="evenodd" d="M37.352 32.5546C36.7988 32.8554 36.1939 32.9964 35.5371 32.9778C36.1214 32.8091 36.7264 32.6681 37.352 32.5546Z" fill="#EF7D7E"/>
<path opacity="0.129" fill-rule="evenodd" clip-rule="evenodd" d="M16.9531 32.5546C17.1392 32.8135 17.2844 33.0956 17.3887 33.4011C17.1754 33.1579 17.0302 32.8757 16.9531 32.5546Z" fill="#8F8D8D"/>
<path opacity="0.098" fill-rule="evenodd" clip-rule="evenodd" d="M34.0137 32.9777C34.5219 32.9777 35.03 32.9777 35.5382 32.9777C35.2789 33.0767 35.0006 33.1237 34.7033 33.1188C34.4509 33.1309 34.221 33.084 34.0137 32.9777Z" fill="#E77F83"/>
<path opacity="0.553" fill-rule="evenodd" clip-rule="evenodd" d="M25.0098 32.9072C25.1449 33.0759 25.2418 33.264 25.3002 33.4716C25.1087 33.3317 25.0119 33.1437 25.0098 32.9072Z" fill="#EF8988"/>
<path opacity="0.965" fill-rule="evenodd" clip-rule="evenodd" d="M40.8359 33.1188C41.1907 33.3455 41.5054 33.6277 41.7797 33.9653C41.4211 33.7346 41.1065 33.4524 40.8359 33.1188Z" fill="#EF888A"/>
<path opacity="0.153" fill-rule="evenodd" clip-rule="evenodd" d="M17.3871 33.4009C17.4719 33.4724 17.52 33.5664 17.5315 33.683C17.4157 33.6275 17.3675 33.5335 17.3871 33.4009Z" fill="#A09E9E"/>
<path opacity="0.71" fill-rule="evenodd" clip-rule="evenodd" d="M25.3027 33.4717C25.4186 33.5272 25.4668 33.6212 25.4472 33.7538C25.3624 33.6823 25.3143 33.5883 25.3027 33.4717Z" fill="#EE9193"/>
<path opacity="0.259" fill-rule="evenodd" clip-rule="evenodd" d="M51.7985 33.3303C51.7325 33.5767 51.6115 33.7883 51.4355 33.9652C51.5016 33.7189 51.6226 33.5072 51.7985 33.3303Z" fill="#9F9D9D"/>
<path opacity="0.424" fill-rule="evenodd" clip-rule="evenodd" d="M17.5332 33.6832C17.6848 33.8127 17.7816 33.9773 17.8236 34.177C17.672 34.0475 17.5752 33.8829 17.5332 33.6832Z" fill="#8E8C8C"/>
<path opacity="0.094" fill-rule="evenodd" clip-rule="evenodd" d="M25.4453 33.7535C25.612 33.8405 25.7088 33.9816 25.7357 34.1768C25.5811 34.0735 25.4843 33.9324 25.4453 33.7535Z" fill="#EF898B"/>
<path fill-rule="evenodd" clip-rule="evenodd" d="M41.998 34.1769C42.1385 34.2228 42.2837 34.2463 42.4336 34.2475C42.4454 34.3905 42.4333 34.5315 42.3973 34.6707C42.3381 34.7641 42.2534 34.811 42.1432 34.8118C42.2053 34.7391 42.2537 34.6568 42.2884 34.5649C42.2049 34.4252 42.1081 34.2959 41.998 34.1769Z" fill="#F05C5A"/>
<path opacity="0.165" fill-rule="evenodd" clip-rule="evenodd" d="M51.3637 34.1064C51.369 34.2141 51.3208 34.2846 51.2191 34.318C51.2139 34.2103 51.2621 34.1398 51.3637 34.1064Z" fill="#999797"/>
<path opacity="0.365" fill-rule="evenodd" clip-rule="evenodd" d="M17.8223 34.1769C17.9738 34.3065 18.0706 34.471 18.1127 34.6707C17.9611 34.5412 17.8643 34.3766 17.8223 34.1769Z" fill="#929090"/>
<path opacity="0.094" fill-rule="evenodd" clip-rule="evenodd" d="M25.7363 34.1769C25.903 34.2639 25.9999 34.405 26.0267 34.6002C25.8949 34.4861 25.7981 34.345 25.7363 34.1769Z" fill="#EE9496"/>
<path opacity="0.176" fill-rule="evenodd" clip-rule="evenodd" d="M51.145 34.459C51.1502 34.5667 51.102 34.6372 51.0004 34.6706C50.9951 34.5629 51.0433 34.4924 51.145 34.459Z" fill="#949393"/>
<path opacity="0.22" fill-rule="evenodd" clip-rule="evenodd" d="M18.1137 34.6705C18.2153 34.7039 18.2635 34.7744 18.2582 34.8822C18.1566 34.8488 18.1084 34.7782 18.1137 34.6705Z" fill="#A09E9E"/>
<path opacity="0.788" fill-rule="evenodd" clip-rule="evenodd" d="M26.0273 34.6003C26.1987 34.6966 26.3197 34.8377 26.3903 35.0236C26.1728 34.9549 26.0518 34.8138 26.0273 34.6003Z" fill="#EF8283"/>
<path opacity="0.306" fill-rule="evenodd" clip-rule="evenodd" d="M50.999 34.6705C50.9809 34.8239 50.9083 34.9415 50.7812 35.0232C50.7994 34.8699 50.872 34.7523 50.999 34.6705Z" fill="#908E8E"/>
<path opacity="0.165" fill-rule="evenodd" clip-rule="evenodd" d="M18.2582 34.8821C18.3598 34.9155 18.408 34.986 18.4028 35.0938C18.3011 35.0604 18.2529 34.9899 18.2582 34.8821Z" fill="#959393"/>
<path opacity="0.976" fill-rule="evenodd" clip-rule="evenodd" d="M42.1429 34.8119C42.0563 35.0844 41.8869 35.296 41.6348 35.4468C41.7769 35.2145 41.9463 35.0029 42.1429 34.8119Z" fill="#EF8688"/>
<path opacity="0.192" fill-rule="evenodd" clip-rule="evenodd" d="M50.7817 35.0234C50.7869 35.1312 50.7387 35.2017 50.6371 35.2351C50.6318 35.1273 50.68 35.0568 50.7817 35.0234Z" fill="#A3A2A2"/>
<path opacity="0.231" fill-rule="evenodd" clip-rule="evenodd" d="M18.4043 35.094C18.5369 35.2102 18.6337 35.3513 18.6947 35.5172C18.5261 35.4254 18.4293 35.2843 18.4043 35.094Z" fill="#949292"/>
<path opacity="0.133" fill-rule="evenodd" clip-rule="evenodd" d="M50.6377 35.235C50.6338 35.3854 50.5612 35.4795 50.4199 35.5172C50.4581 35.3952 50.5307 35.3011 50.6377 35.235Z" fill="#AAA9A9"/>
<path opacity="0.024" fill-rule="evenodd" clip-rule="evenodd" d="M18.6957 35.5172C18.7973 35.5505 18.8455 35.6211 18.8403 35.7288C18.7386 35.6954 18.6904 35.6249 18.6957 35.5172Z" fill="#A5A4A4"/>
<path opacity="0.078" fill-rule="evenodd" clip-rule="evenodd" d="M50.419 35.5172C50.4008 35.6705 50.3282 35.7881 50.2012 35.8699C50.2193 35.7165 50.2919 35.5989 50.419 35.5172Z" fill="#949393"/>
<path opacity="0.953" fill-rule="evenodd" clip-rule="evenodd" d="M26.3887 35.0234C26.7198 35.3155 27.0344 35.6211 27.3324 35.9405C27.2292 35.9257 27.1324 35.8905 27.042 35.8347C26.8676 35.6455 26.6861 35.4691 26.4976 35.3056C26.4401 35.2178 26.4038 35.1237 26.3887 35.0234Z" fill="#F27A7D"/>
<path opacity="0.031" fill-rule="evenodd" clip-rule="evenodd" d="M18.8398 35.729C18.9678 35.7828 19.0404 35.8769 19.0576 36.0112C18.9297 35.9574 18.8571 35.8633 18.8398 35.729Z" fill="#949292"/>
<path opacity="0.059" fill-rule="evenodd" clip-rule="evenodd" d="M50.0571 36.011C50.0623 36.1188 50.0141 36.1893 49.9125 36.2227C49.9072 36.115 49.9554 36.0444 50.0571 36.011Z" fill="#959494"/>
<path opacity="0.063" fill-rule="evenodd" clip-rule="evenodd" d="M19.057 36.011C19.1587 36.0444 19.2069 36.115 19.2016 36.2227C19.1 36.1893 19.0518 36.1188 19.057 36.011Z" fill="#A5A3A3"/>
<path opacity="0.18" fill-rule="evenodd" clip-rule="evenodd" d="M27.4062 36.011C27.5942 36.0759 27.7394 36.1935 27.8418 36.3638C27.6526 36.3062 27.5074 36.1886 27.4062 36.011Z" fill="#EE8A8C"/>
<path opacity="0.02" fill-rule="evenodd" clip-rule="evenodd" d="M49.8383 36.2932C49.8436 36.4009 49.7954 36.4714 49.6937 36.5048C49.6885 36.3971 49.7367 36.3265 49.8383 36.2932Z" fill="#9C9B9B"/>
<path opacity="0.067" fill-rule="evenodd" clip-rule="evenodd" d="M19.348 36.3637C19.4497 36.3971 19.4979 36.4676 19.4926 36.5753C19.391 36.542 19.3428 36.4714 19.348 36.3637Z" fill="#A2A0A0"/>
<path opacity="0.976" fill-rule="evenodd" clip-rule="evenodd" d="M41.0555 36.011C40.6663 36.4849 40.1824 36.8141 39.6035 36.9986C40.0869 36.6696 40.5709 36.3404 41.0555 36.011Z" fill="#F18284"/>
<path opacity="0.455" fill-rule="evenodd" clip-rule="evenodd" d="M19.4922 36.5753C19.6875 36.6947 19.8327 36.8593 19.9278 37.069C19.7304 36.9478 19.5852 36.7831 19.4922 36.5753Z" fill="#8E8C8C"/>
<path opacity="0.027" fill-rule="evenodd" clip-rule="evenodd" d="M49.5479 36.6461C49.5306 36.7804 49.458 36.8745 49.3301 36.9282C49.3474 36.7939 49.42 36.6998 49.5479 36.6461Z" fill="#9A9898"/>
<path opacity="0.961" fill-rule="evenodd" clip-rule="evenodd" d="M27.8418 36.3637C28.2174 36.5578 28.5804 36.7695 28.9307 36.9986C28.6317 36.9306 28.3535 36.813 28.0959 36.6459C27.9941 36.5651 27.9094 36.4711 27.8418 36.3637Z" fill="#EE7F80"/>
<path opacity="0.561" fill-rule="evenodd" clip-rule="evenodd" d="M28.9297 36.9987C29.1328 37.0798 29.3264 37.1738 29.5105 37.2808C29.2568 37.2786 29.0632 37.1845 28.9297 36.9987Z" fill="#EE7F80"/>
<path opacity="0.957" fill-rule="evenodd" clip-rule="evenodd" d="M39.6013 36.9987C39.5684 37.0662 39.5201 37.1251 39.4561 37.175C39.2484 37.2907 39.0306 37.373 38.8027 37.4219C39.0499 37.2549 39.3161 37.1139 39.6013 36.9987Z" fill="#F1888A"/>
<path opacity="0.039" fill-rule="evenodd" clip-rule="evenodd" d="M20.0742 37.2103C20.2734 37.3329 20.4185 37.4976 20.5098 37.7041C20.3107 37.5814 20.1655 37.4167 20.0742 37.2103Z" fill="#8D8B8B"/>
<path opacity="0.082" fill-rule="evenodd" clip-rule="evenodd" d="M49.2575 36.9987C49.1908 37.1813 49.0698 37.3224 48.8945 37.4219C48.9612 37.2393 49.0823 37.0982 49.2575 36.9987Z" fill="#9F9D9D"/>
<path fill-rule="evenodd" clip-rule="evenodd" d="M29.5117 37.2808C29.6978 37.3222 29.8672 37.3928 30.0199 37.4924C29.7965 37.515 29.6271 37.4445 29.5117 37.2808Z" fill="#F07D80"/>
<path opacity="0.969" fill-rule="evenodd" clip-rule="evenodd" d="M30.0195 37.4923C30.2472 37.4996 30.4407 37.5701 30.6003 37.7039C30.3599 37.7175 30.1663 37.647 30.0195 37.4923Z" fill="#F07677"/>
<path opacity="0.788" fill-rule="evenodd" clip-rule="evenodd" d="M20.8008 37.9863C21.2079 38.2641 21.5709 38.5933 21.8897 38.9738C21.4826 38.696 21.1196 38.3668 20.8008 37.9863Z" fill="#7A7878"/>
<path opacity="0.714" fill-rule="evenodd" clip-rule="evenodd" d="M30.5996 37.7039C31.1974 37.7871 31.7781 37.9047 32.3419 38.0566C31.8536 38.0364 31.3696 37.9775 30.89 37.8803C30.7494 37.8717 30.6526 37.8129 30.5996 37.7039Z" fill="#F0797A"/>
<path opacity="0.714" fill-rule="evenodd" clip-rule="evenodd" d="M38.368 37.5631C38.0741 37.7237 37.7596 37.853 37.4242 37.9511C37.1128 38.0162 36.7982 38.0515 36.4805 38.0569C37.1049 37.8929 37.7341 37.7283 38.368 37.5631Z" fill="#EE8285"/>
<path opacity="0.067" fill-rule="evenodd" clip-rule="evenodd" d="M32.3438 38.0565C33.5282 38.1178 34.714 38.1414 35.901 38.1271C35.8456 38.1812 35.773 38.2165 35.6832 38.2329C34.5927 38.2842 33.5037 38.2607 32.4163 38.1623C32.376 38.1353 32.3518 38.1 32.3438 38.0565Z" fill="#EF8386"/>
<path opacity="0.039" fill-rule="evenodd" clip-rule="evenodd" d="M47.4424 38.8327C47.4081 38.9318 47.3355 38.9789 47.2246 38.9737C47.2589 38.8746 47.3315 38.8275 47.4424 38.8327Z" fill="#ACAAAA"/>
<path opacity="0.886" fill-rule="evenodd" clip-rule="evenodd" d="M21.8887 38.9736C22.0766 39.0385 22.2218 39.1561 22.3243 39.3263C22.1363 39.2615 21.9911 39.1439 21.8887 38.9736Z" fill="#7C7B7B"/>
<path opacity="0.055" fill-rule="evenodd" clip-rule="evenodd" d="M47.0072 39.1854C46.9519 39.3097 46.855 39.3803 46.7168 39.397C46.7721 39.2728 46.869 39.2022 47.0072 39.1854Z" fill="#9A9898"/>
<path opacity="0.718" fill-rule="evenodd" clip-rule="evenodd" d="M22.3242 39.3265C22.4875 39.3675 22.6084 39.4615 22.6872 39.6087C22.5239 39.5678 22.403 39.4738 22.3242 39.3265Z" fill="#7D7C7C"/>
<path opacity="0.016" fill-rule="evenodd" clip-rule="evenodd" d="M46.6439 39.4675C46.5886 39.5918 46.4917 39.6624 46.3535 39.6792C46.4088 39.5549 46.5057 39.4843 46.6439 39.4675Z" fill="#979696"/>
<path opacity="0.51" fill-rule="evenodd" clip-rule="evenodd" d="M22.6875 39.6086C22.8508 39.6495 22.9717 39.7435 23.0505 39.8907C22.8872 39.8498 22.7663 39.7558 22.6875 39.6086Z" fill="#878585"/>
<path opacity="0.043" fill-rule="evenodd" clip-rule="evenodd" d="M46.2803 39.7498C46.246 39.849 46.1734 39.896 46.0625 39.8909C46.0968 39.7917 46.1694 39.7446 46.2803 39.7498Z" fill="#9E9C9C"/>
<path opacity="0.686" fill-rule="evenodd" clip-rule="evenodd" d="M23.0508 39.8908C23.1616 39.8857 23.2342 39.9327 23.2686 40.0319C23.1577 40.0371 23.0851 39.99 23.0508 39.8908Z" fill="#878585"/>
<path opacity="0.012" fill-rule="evenodd" clip-rule="evenodd" d="M45.9903 39.9612C45.8957 40.125 45.7506 40.2191 45.5547 40.2434C45.6743 40.1146 45.8194 40.0205 45.9903 39.9612Z" fill="#959393"/>
<path opacity="0.529" fill-rule="evenodd" clip-rule="evenodd" d="M23.2676 40.0317C23.4058 40.0485 23.5026 40.1191 23.558 40.2434C23.4197 40.2266 23.3229 40.156 23.2676 40.0317Z" fill="#807E7E"/>
<path opacity="0.38" fill-rule="evenodd" clip-rule="evenodd" d="M23.5586 40.2434C23.6694 40.2383 23.742 40.2853 23.7764 40.3845C23.6655 40.3897 23.5929 40.3426 23.5586 40.2434Z" fill="#8C8B8B"/>
<path opacity="0.012" fill-rule="evenodd" clip-rule="evenodd" d="M45.4815 40.3139C45.4471 40.4131 45.3745 40.4601 45.2637 40.455C45.298 40.3558 45.3706 40.3088 45.4815 40.3139Z" fill="#AEACAC"/>
<path opacity="0.463" fill-rule="evenodd" clip-rule="evenodd" d="M23.7773 40.3847C23.8882 40.3796 23.9608 40.4266 23.9951 40.5258C23.8843 40.531 23.8117 40.4839 23.7773 40.3847Z" fill="#888787"/>
<path opacity="0.329" fill-rule="evenodd" clip-rule="evenodd" d="M23.9922 40.5255C24.103 40.5204 24.1756 40.5674 24.21 40.6666C24.0991 40.6718 24.0265 40.6247 23.9922 40.5255Z" fill="#858383"/>
<path opacity="0.012" fill-rule="evenodd" clip-rule="evenodd" d="M45.0485 40.5962C44.9644 40.7196 44.8434 40.7902 44.6855 40.8078C44.7697 40.6844 44.8907 40.6138 45.0485 40.5962Z" fill="#9C9A9A"/>
<path opacity="0.31" fill-rule="evenodd" clip-rule="evenodd" d="M24.2109 40.6665C24.3218 40.6614 24.3944 40.7084 24.4287 40.8076C24.3179 40.8127 24.2453 40.7657 24.2109 40.6665Z" fill="#949292"/>
<path opacity="0.01" fill-rule="evenodd" clip-rule="evenodd" d="M44.6846 40.8079C44.6502 40.9071 44.5777 40.9541 44.4668 40.949C44.5011 40.8498 44.5737 40.8027 44.6846 40.8079Z" fill="#969494"/>
<path opacity="0.357" fill-rule="evenodd" clip-rule="evenodd" d="M24.5742 40.8781C24.6851 40.873 24.7577 40.92 24.792 41.0192C24.6812 41.0244 24.6086 40.9773 24.5742 40.8781Z" fill="#949393"/>
<path opacity="0.227" fill-rule="evenodd" clip-rule="evenodd" d="M24.9375 41.0901C25.0953 41.1078 25.2163 41.1783 25.3005 41.3018C25.1427 41.2841 25.0216 41.2136 24.9375 41.0901Z" fill="#979595"/>
<path fill-rule="evenodd" clip-rule="evenodd" d="M27.334 41.1604C27.5131 41.1784 27.6583 41.2489 27.7696 41.372C27.5905 41.354 27.4453 41.2835 27.334 41.1604Z" fill="#791013"/>
<path opacity="0.22" fill-rule="evenodd" clip-rule="evenodd" d="M44.1742 41.0901C43.998 41.2353 43.8045 41.3646 43.5935 41.4781C43.4827 41.5493 43.3617 41.5846 43.2305 41.5839C43.5097 41.3658 43.8243 41.2012 44.1742 41.0901Z" fill="#949292"/>
<path opacity="0.102" fill-rule="evenodd" clip-rule="evenodd" d="M25.8809 41.5835C26.0009 41.5948 26.0976 41.6418 26.1712 41.7246C26.0348 41.7437 25.938 41.6966 25.8809 41.5835Z" fill="#9E9D9D"/>
<path opacity="0.141" fill-rule="evenodd" clip-rule="evenodd" d="M43.2305 41.5835C43.1281 41.7273 42.9829 41.7979 42.7949 41.7951C42.917 41.6887 43.0622 41.6182 43.2305 41.5835Z" fill="#969595"/>
<path fill-rule="evenodd" clip-rule="evenodd" d="M26.1719 41.7247C26.3819 41.6916 26.5271 41.7622 26.6075 41.9363C26.4391 41.9016 26.2939 41.8311 26.1719 41.7247Z" fill="#585757"/>
<path fill-rule="evenodd" clip-rule="evenodd" d="M29.2949 41.8659C29.4991 41.8693 29.6927 41.9163 29.8757 42.007C29.9241 41.9599 29.9725 41.913 30.0209 41.8659C30.1381 41.912 30.2592 41.9473 30.3839 41.9717C30.3113 41.9952 30.2387 42.0188 30.1661 42.0423C30.3275 42.0822 30.4727 42.141 30.6017 42.2186C30.1405 42.1605 29.7049 42.0429 29.2949 41.8659Z" fill="#BC181E"/>
<path opacity="0.275" fill-rule="evenodd" clip-rule="evenodd" d="M26.6074 41.9365C26.7565 41.9296 26.8775 41.9767 26.9704 42.0776C26.8214 42.0845 26.7003 42.0375 26.6074 41.9365Z" fill="#979595"/>
<path opacity="0.894" fill-rule="evenodd" clip-rule="evenodd" d="M26.9688 42.0774C27.1859 42.0539 27.3553 42.1244 27.4769 42.289C27.2779 42.2744 27.1086 42.2039 26.9688 42.0774Z" fill="#6A6969"/>
<path opacity="0.145" fill-rule="evenodd" clip-rule="evenodd" d="M42.7963 41.7954C42.4404 42.0132 42.0532 42.1778 41.6348 42.2892C41.9932 42.0708 42.3803 41.9062 42.7963 41.7954Z" fill="#8D8C8C"/>
<path opacity="0.624" fill-rule="evenodd" clip-rule="evenodd" d="M41.6364 42.2891C41.5435 42.39 41.4225 42.4371 41.2734 42.4302C41.3558 42.3093 41.4769 42.2623 41.6364 42.2891Z" fill="#7F7E7E"/>
<path fill-rule="evenodd" clip-rule="evenodd" d="M30.8906 42.2891C32.479 42.4986 34.0762 42.5926 35.682 42.5712C35.803 42.5712 35.924 42.5712 36.045 42.5712C34.3129 42.7246 32.5948 42.6306 30.8906 42.2891Z" fill="white"/>
<path fill-rule="evenodd" clip-rule="evenodd" d="M38.0793 42.2891C37.4192 42.4376 36.7416 42.5317 36.0466 42.5712C35.9256 42.5712 35.8046 42.5712 35.6836 42.5712C36.4646 42.4175 37.2632 42.3235 38.0793 42.2891Z" fill="#AF161B"/>
<path opacity="0.204" fill-rule="evenodd" clip-rule="evenodd" d="M41.2715 42.4304C41.1552 42.5414 41.01 42.5884 40.8359 42.5714C40.9604 42.4841 41.1056 42.4371 41.2715 42.4304Z" fill="#999898"/>
<path opacity="0.098" fill-rule="evenodd" clip-rule="evenodd" d="M27.8418 42.4304C28.0078 42.4371 28.1529 42.4841 28.2774 42.5714C28.1033 42.5884 27.9581 42.5414 27.8418 42.4304Z" fill="#9D9C9C"/>
<path opacity="0.514" fill-rule="evenodd" clip-rule="evenodd" d="M40.8356 42.5712C40.7318 42.6444 40.6108 42.6914 40.4727 42.7123C40.5551 42.5914 40.6761 42.5444 40.8356 42.5712Z" fill="#828080"/>
<path opacity="0.357" fill-rule="evenodd" clip-rule="evenodd" d="M28.2773 42.5714C28.9685 42.7391 29.646 42.9271 30.3101 43.1357C29.5996 43.0339 28.922 42.8458 28.2773 42.5714Z" fill="#8B8A8A"/>
<path opacity="0.553" fill-rule="evenodd" clip-rule="evenodd" d="M40.3997 42.7125C39.3519 43.0903 38.2629 43.3254 37.1328 43.4179C38.2181 43.2021 39.307 42.967 40.3997 42.7125Z" fill="#8C8B8B"/>
<path opacity="0.435" fill-rule="evenodd" clip-rule="evenodd" d="M30.3086 43.1356C31.0005 43.2146 31.6781 43.3322 32.3413 43.4883C31.6408 43.4455 30.9632 43.328 30.3086 43.1356Z" fill="#807F7F"/>
<path opacity="0.102" fill-rule="evenodd" clip-rule="evenodd" d="M37.1359 43.4177C36.6456 43.5391 36.1374 43.5861 35.6113 43.5587C36.1062 43.4836 36.6144 43.4366 37.1359 43.4177Z" fill="#979595"/>
</svg>
