<svg width="499" height="333" viewBox="0 0 499 333" fill="none" xmlns="http://www.w3.org/2000/svg">
<mask id="mask0_262_855" style="mask-type:luminance" maskUnits="userSpaceOnUse" x="0" y="0" width="499" height="333">
<path d="M499 0H0V332.667H499V0Z" fill="white"/>
</mask>
<g mask="url(#mask0_262_855)">
<path d="M146.016 53.3345C144.924 54.0271 134.118 59.1269 132.652 60.8175C131.185 62.5081 119.525 86.9079 119.525 86.9079L144.268 95.8992C144.268 95.8992 163.105 89.5333 166.189 87.8919C169.274 86.2512 175.771 78.3756 176.427 77.0629C176.836 76.2459 176.564 70.9099 176.301 66.9951C176.149 64.7363 174.064 63.1169 171.837 63.5234C170.175 63.8268 168.914 65.1934 168.745 66.874L168.029 73.9871L162.724 76.0929L165.769 71.5393L160.521 62.0124L147.417 55.9293L146.016 53.3345Z" fill="#BA623B"/>
<path d="M141.673 75.2193C141.673 75.2193 139.636 64.5154 132.748 60.719C134.518 58.9392 144.944 54.0144 146.015 53.3345L147.418 55.9299L160.522 62.0131L165.769 71.54L162.725 76.0935L157.291 78.1794C157.291 78.1794 149.777 74.8188 141.673 75.2193Z" fill="#9B3D2F"/>
<path d="M170.663 64.2305L166.907 72.0455C166.12 73.6829 164.191 74.4194 162.513 73.7242C160.739 72.9883 159.918 70.9364 160.695 69.1799L164.197 61.2638C164.942 59.5812 166.884 58.7888 168.593 59.4701L168.846 59.5712C170.687 60.3044 171.521 62.4441 170.663 64.2305Z" fill="#BA623B"/>
<path d="M164.462 61.1961L160.121 70.5321C159.356 72.1795 157.438 72.9426 155.75 72.2693C153.966 71.5574 153.118 69.5168 153.871 67.7497L157.957 58.3159C158.679 56.6233 160.61 55.8049 162.328 56.463L162.583 56.5608C164.434 57.27 165.296 59.3984 164.462 61.1961Z" fill="#BA623B"/>
<path d="M157.534 60.222L153.193 69.558C152.429 71.2053 150.51 71.9685 148.823 71.2952C147.038 70.5833 146.19 68.5427 146.943 66.7756L151.029 57.3418C151.751 55.6492 153.682 54.8308 155.401 55.4888L155.656 55.5866C157.506 56.2959 158.369 58.4243 157.534 60.222Z" fill="#BA623B"/>
<path d="M151.385 57.638L148.523 63.801C147.759 65.4484 145.84 66.2115 144.153 65.5382C142.368 64.8263 141.52 62.7857 142.273 61.0186L144.881 54.7578C145.602 53.0652 147.533 52.2468 149.252 52.9049L149.507 53.0027C151.357 53.7126 152.22 55.8403 151.385 57.638Z" fill="#BA623B"/>
<path d="M330.864 265.986C335.395 256.177 335.611 244.465 331.444 234.496C327.277 224.527 317.881 214.812 307.718 211.145C311.238 200.956 310.532 189.378 305.801 179.692C301.07 170.006 292.372 162.332 282.172 158.845L218.799 146.111C208.044 145.388 197.057 149.107 188.952 156.213C180.847 163.32 175.723 173.726 175.034 184.484C164.243 183.941 151.824 189.273 144.13 196.859C136.436 204.445 132.11 215.331 132.501 226.128L330.864 265.986Z" fill="#202020"/>
<path d="M245.772 151.531L218.798 146.111C208.043 145.388 197.056 149.107 188.951 156.213C180.846 163.32 175.722 173.726 175.033 184.484C164.242 183.941 151.823 189.273 144.129 196.859C136.435 204.445 132.109 215.331 132.5 226.128L226.969 245.11L245.772 151.531Z" fill="#202020"/>
<path d="M286.588 152.886C286.588 152.886 293.942 144.328 300.713 151.397C307.485 158.465 294.72 176.824 286.207 174.743C281.982 173.711 281.713 167.025 281.713 167.025L286.588 152.886Z" fill="#BA623B"/>
<path d="M298.918 157.078C293.352 157.799 288.157 161.869 286.355 167.24C286.047 168.158 285.965 169.187 286.327 170.084C286.688 170.981 287.557 171.703 288.52 171.705C289.881 171.708 290.863 170.406 291.439 169.167C292.428 167.037 292.911 164.674 292.837 162.327C294.307 160.61 296.891 158.065 298.918 157.078Z" fill="#9B3D2F"/>
<path d="M286.588 152.886C286.588 152.886 293.942 144.328 300.714 151.397C301.522 152.24 302.044 153.248 302.336 154.36C300.785 153.383 299.01 152.712 297.221 152.42C293.64 151.835 290.014 152.427 286.454 153.276L286.588 152.886Z" fill="#D17F49"/>
<path d="M217.145 138.933C217.145 138.933 213.667 128.199 204.691 132.103C195.715 136.007 200.397 157.873 209.054 159.241C213.349 159.921 216.18 153.858 216.18 153.858L217.145 138.933Z" fill="#BA623B"/>
<path d="M204.151 138.037C209.008 140.851 212.227 146.612 211.813 152.263C211.743 153.229 211.421 154.21 210.741 154.898C210.061 155.585 208.981 155.916 208.091 155.546C206.835 155.023 206.431 153.442 206.38 152.076C206.29 149.73 206.757 147.363 207.732 145.227C207.041 143.077 205.64 139.73 204.151 138.037Z" fill="#9B3D2F"/>
<path d="M217.145 138.933C217.145 138.933 213.667 128.199 204.691 132.103C203.62 132.569 202.748 133.297 202.05 134.209C203.858 133.907 205.755 133.975 207.518 134.396C211.047 135.24 214.162 137.186 217.119 139.344L217.145 138.933Z" fill="#D17F49"/>
<path d="M284.127 95.0086C302.465 86.4845 310.421 64.7082 301.897 46.3699C293.373 28.0315 271.597 20.0754 253.258 28.5995C234.92 37.1236 226.964 58.8999 235.488 77.2382C244.012 95.5766 265.788 103.533 284.127 95.0086Z" fill="#202020"/>
<path d="M221.084 176.146L221.008 207.703C221.008 207.703 250.133 225.542 273.369 206.635L270.941 176.787L221.084 176.146Z" fill="#BA623B"/>
<path opacity="0.4" d="M271.575 176.914L220.448 176.019L221.008 207.171C228.277 207.891 235.666 207.401 242.756 205.643C253.698 202.929 263.865 197.223 271.965 189.388L271.575 176.914Z" fill="#6C3317"/>
<path d="M294.88 132.372C296.425 118.554 289.534 99.4015 262.252 93.9192C234.97 88.4375 221.215 103.442 217.303 116.785C216.326 120.116 214.99 126.315 214.125 133.86C211.53 156.495 213.18 191.249 241.527 197.06C269.919 202.649 284.866 171.23 291.216 149.349C293.332 142.057 294.494 135.823 294.88 132.372Z" fill="#BA623B"/>
<path d="M241.527 197.061C231.944 195.097 225.416 189.822 221.067 182.829L221.055 188.062C225.288 193.245 231.091 197.081 238.947 198.692C248.394 200.552 256.351 198.311 262.999 193.69C256.899 197.178 249.782 198.686 241.527 197.061Z" fill="#202020"/>
<path d="M263.77 87.7943C255.877 86.2081 248.47 86.0531 242.742 87.6466C242.589 89.0139 241.953 93.0152 241.878 94.5162C247.531 93.0591 254.785 92.9274 262.43 94.4629C269.824 95.9486 276.274 98.7344 280.898 102.107C281.394 100.72 282.295 97.0498 282.67 95.7557C282.679 95.7224 282.688 95.6911 282.697 95.6579C278.047 92.1389 271.401 89.3279 263.77 87.7943Z" fill="#AF1B20"/>
<path d="M251.18 152.617C250.186 149.733 242.477 160.245 242.477 160.245C242.477 160.245 244.53 164.654 248.446 165.44C252.362 166.227 256.064 162.7 256.064 162.7C256.064 162.7 254.105 161.106 251.18 152.617Z" fill="#BA623B"/>
<path d="M256.069 162.703C256.069 162.703 253.566 165.079 250.497 165.491C250.483 165.488 250.481 165.5 250.466 165.497C249.818 165.586 249.145 165.579 248.452 165.439C244.529 164.651 242.475 160.241 242.475 160.241C246.985 163.332 252.073 163.249 254.548 162.95C255.5 162.845 256.069 162.703 256.069 162.703Z" fill="#9B3D2F"/>
<path d="M256.069 162.702C256.069 162.702 253.566 165.078 250.497 165.49C253.54 164.457 254.548 162.95 254.548 162.95C254.548 162.95 249.878 155.831 251.367 149.562C252.363 158.513 256.091 162.064 256.069 162.702Z" fill="#77312E"/>
<path d="M245.083 162.973C244.696 162.676 244.245 162.461 243.776 162.275C244.372 163.031 245.17 163.852 246.164 164.488C245.981 163.913 245.607 163.374 245.083 162.973Z" fill="#77312E"/>
<path d="M259.82 139.712C259.82 139.712 255.62 149.762 254.588 153.886C254.588 153.886 271.126 163.952 279.639 153.205C284 147.7 280.115 138.367 280.115 138.367C280.115 138.367 274.487 131.952 259.82 139.712Z" fill="#B95D38"/>
<path d="M279.266 151.137C279.266 151.137 277.272 144.249 269.371 143.509C261.157 142.74 256.522 150.569 256.522 150.569C256.522 150.569 260.342 146.491 266.102 146.177C271.753 145.868 279.266 151.137 279.266 151.137Z" fill="#B35133"/>
<path d="M257.975 140.192C257.365 138.938 262.37 134.534 262.989 134.692C263.607 134.85 262.874 136.05 262.874 136.05C262.874 136.05 266.371 133.638 271.112 133.864C275.853 134.09 281.144 137.937 281.004 138.414C280.864 138.891 276.335 136.998 276.335 136.998C276.335 136.998 275.367 139.779 272.572 140.263C269.778 140.748 266.754 139.306 265.232 139.867C263.711 140.426 258.989 142.274 257.975 140.192Z" fill="#202020"/>
<path d="M279.948 151.572C277.422 148.185 271.617 145.495 267.413 145.449C263.208 145.403 259.191 147.498 256.522 150.569C260.179 148.384 263.588 147.516 267.579 148.082C271.301 148.609 274.543 150.297 277.585 153.144L279.948 151.572Z" fill="#202020"/>
<path d="M246.805 137.096C246.805 137.096 246.797 147.989 246.156 152.192C246.156 152.192 227.013 155.088 223.313 141.887C221.417 135.125 228.605 128.016 228.605 128.016C228.605 128.016 236.275 124.273 246.805 137.096Z" fill="#B95D38"/>
<path d="M248.322 138.252C249.369 137.332 246.453 131.336 245.822 131.242C245.19 131.149 245.403 132.539 245.403 132.539C245.403 132.539 243.11 128.964 238.65 127.341C234.189 125.717 227.823 127.222 227.768 127.716C227.713 128.21 232.622 128.214 232.622 128.214C232.622 128.214 232.441 131.153 234.831 132.679C237.222 134.205 240.567 134.043 241.755 135.148C242.941 136.254 246.582 139.782 248.322 138.252Z" fill="#202020"/>
<path d="M224.456 140.124C224.456 140.124 228.956 134.54 236.529 136.909C244.402 139.373 245.654 148.384 245.654 148.384C245.654 148.384 243.705 143.148 238.514 140.633C233.421 138.166 224.456 140.124 224.456 140.124Z" fill="#B35133"/>
<path d="M223.658 140.262C227.297 138.114 233.69 137.876 237.586 139.457C241.482 141.038 244.377 144.522 245.653 148.385C243.125 144.957 240.316 142.84 236.416 141.82C232.778 140.869 229.137 141.174 225.231 142.625L223.658 140.262Z" fill="#202020"/>
<path d="M261.094 174.089C261.094 174.089 256.657 183.056 244.742 180.662C232.673 178.237 232.198 168.283 232.198 168.283L261.094 174.089Z" fill="#651B1A"/>
<path d="M261.279 173.019C261.941 173.924 262.959 174.886 264.229 175.17C264.517 175.234 264.838 175.211 265.034 175.056C265.436 174.738 264.929 173.961 264.657 173.619C264.21 173.059 263.575 172.61 262.95 172.173C262.412 171.795 261.609 171.401 261.144 171.745C260.752 172.035 260.976 172.605 261.279 173.019Z" fill="#B35133"/>
<path d="M233.361 167.41C232.401 167.988 231.09 168.483 229.809 168.254C229.518 168.203 229.231 168.058 229.11 167.839C228.861 167.39 229.63 166.869 230.014 166.659C230.642 166.315 231.402 166.147 232.146 165.984C232.788 165.843 233.68 165.79 233.977 166.288C234.227 166.706 233.801 167.145 233.361 167.41Z" fill="#B35133"/>
<path d="M258.496 174.708C258.496 174.708 253.658 178.587 245.49 176.945C237.321 175.304 234.357 169.857 234.357 169.857L258.496 174.708Z" fill="white"/>
<path d="M258.351 173.363C256.499 172.421 253.208 168.584 246.745 170.699C241.6 166.252 237.082 168.52 235.01 168.674C232.938 168.828 230.642 166.897 230.642 166.897C230.642 166.897 234.835 173.158 245.807 175.363C256.78 177.567 263.066 173.412 263.066 173.412C263.066 173.412 260.202 174.306 258.351 173.363Z" fill="#9B3D2F"/>
<path d="M261.095 174.089C261.095 174.089 256.657 183.056 244.743 180.663C232.674 178.237 232.198 168.283 232.198 168.283L230.642 166.897C230.642 166.897 233.055 182.309 243.971 184.503C254.886 186.696 263.066 173.412 263.066 173.412L261.095 174.089Z" fill="#9B3D2F"/>
<path d="M245.116 178.804C237.485 177.271 234.364 173.984 233.114 171.879C234.394 174.986 237.45 179.197 244.742 180.662C251.914 182.104 256.374 179.428 258.79 177.07C256.779 178.517 252.606 180.309 245.116 178.804Z" fill="white"/>
<path d="M214.156 134.004C212.795 148.765 221.089 127.395 221.089 127.395C237.87 123.733 244.549 100.075 244.549 100.075C244.549 100.075 256.466 122.463 282.227 124.498C282.227 124.498 280.573 138.903 287.289 140.697C287.289 140.697 286.685 163.612 291.132 149.471L291.216 149.351C293.332 142.057 295.376 135.236 295.762 131.786C297.307 117.968 289.682 98.6674 262.399 93.1851C235.117 87.7034 220.776 101.826 216.864 115.168C215.887 118.5 214.989 126.315 214.125 133.86" fill="#202020"/>
<path d="M231.251 158.637C230.807 160.845 227.897 162.122 224.752 161.49C221.606 160.857 219.416 158.555 219.859 156.348C220.302 154.141 223.212 152.864 226.358 153.496C229.503 154.128 231.694 156.43 231.251 158.637Z" fill="#D17F49"/>
<path d="M265.848 165.589C265.404 167.797 267.595 170.098 270.741 170.73C273.887 171.362 276.796 170.086 277.24 167.878C277.684 165.67 275.493 163.369 272.347 162.737C269.201 162.105 266.292 163.382 265.848 165.589Z" fill="#D17F49"/>
<path opacity="0.4" d="M282.227 124.499C256.466 122.463 244.549 100.075 244.549 100.075C244.669 103.196 258.114 127.958 282.227 124.499Z" fill="#6C3317"/>
<path d="M370.556 47.3271C371.647 48.0198 382.454 53.1195 383.92 54.8102C385.387 56.5008 397.047 80.9005 397.047 80.9005L372.303 89.8918C372.303 89.8918 353.467 83.5259 350.383 81.8846C347.298 80.2439 340.801 72.3683 340.145 71.0556C339.736 70.2386 340.008 64.9026 340.271 60.9878C340.423 58.729 342.508 57.1095 344.735 57.5161C346.397 57.8195 347.658 59.186 347.828 60.8667L348.543 67.9798L353.848 70.0855L350.803 65.532L356.051 56.0051L369.154 49.9219L370.556 47.3271Z" fill="#BA623B"/>
<path d="M374.898 69.212C374.898 69.212 376.936 58.5081 383.824 54.7117C382.053 52.9319 371.627 48.0071 370.556 47.3271L369.154 49.9233L356.05 56.0064L350.803 65.5333L353.847 70.0869L359.281 72.1727C359.281 72.1727 366.795 68.8114 374.898 69.212Z" fill="#9B3D2F"/>
<path d="M345.909 58.2237L349.665 66.0387C350.451 67.6761 352.381 68.4126 354.059 67.7173C355.833 66.9815 356.654 64.9296 355.877 63.1731L352.375 55.257C351.63 53.5743 349.688 52.7819 347.979 53.4632L347.726 53.5643C345.884 54.2982 345.051 56.4373 345.909 58.2237Z" fill="#BA623B"/>
<path d="M352.11 55.1893L356.451 64.5253C357.216 66.1726 359.135 66.9358 360.822 66.2624C362.606 65.5505 363.455 63.51 362.702 61.7428L358.615 52.3091C357.893 50.6165 355.962 49.7981 354.244 50.4561L353.989 50.5539C352.139 51.2638 351.276 53.3922 352.11 55.1893Z" fill="#BA623B"/>
<path d="M359.038 54.2157L363.379 63.5516C364.144 65.199 366.062 65.9621 367.75 65.2888C369.534 64.5769 370.383 62.5363 369.629 60.7692L365.543 51.3354C364.821 49.6428 362.89 48.8245 361.172 49.4825L360.917 49.5803C359.066 50.2902 358.204 52.4186 359.038 54.2157Z" fill="#BA623B"/>
<path d="M365.186 51.6317L368.049 57.7947C368.813 59.442 370.732 60.2052 372.419 59.5319C374.203 58.8199 375.052 56.7794 374.299 55.0122L371.691 48.7515C370.969 47.0588 369.038 46.2405 367.32 46.8985L367.065 46.9963C365.215 47.7056 364.352 49.834 365.186 51.6317Z" fill="#BA623B"/>
<path d="M107.065 100.002C111.513 90.7336 115.986 83.8448 120.501 82.4522C126.013 80.7523 143.15 89.8035 147.659 97.3876C151.016 103.036 137.864 119.331 137.864 119.331L107.065 100.002Z" fill="white"/>
<path d="M409.268 97.369C406.077 87.5973 402.548 80.1801 398.255 78.2061C393.014 75.7969 374.836 82.5181 369.37 89.4436C365.3 94.6019 376.197 112.483 376.197 112.483L409.268 97.369Z" fill="white"/>
<path d="M250.847 216.371C307.277 213.806 384.886 170.872 384.886 170.872C384.886 170.872 356.851 122.376 364.417 107.562C371.026 94.6251 406.251 84.1274 419.695 89.6371C446.583 100.657 463.381 173.697 445.931 202.872C428.48 232.047 357.856 266.318 357.856 266.318L413.693 364.192L222.254 423.176L167.345 295.705C167.345 295.705 48.6501 254.626 46.6275 210.288C44.062 154.036 70.8383 97.9764 100.757 93.504C115.037 91.3696 145.211 110.057 150.004 123.677C156.477 142.076 123.659 197.114 123.659 197.114C123.659 197.114 211.15 218.175 250.847 216.371Z" fill="#930005"/>
<path d="M166.463 291.468C166.259 291.468 166.059 291.375 165.929 291.2C165.006 289.96 164.14 288.474 163.223 286.9C160.655 282.493 157.744 277.497 152.798 277.023C152.432 276.988 152.164 276.663 152.199 276.297C152.235 275.932 152.556 275.655 152.925 275.699C158.551 276.237 161.644 281.546 164.374 286.23C165.271 287.771 166.12 289.226 166.997 290.405C167.217 290.7 167.155 291.117 166.861 291.336C166.74 291.425 166.601 291.468 166.463 291.468Z" fill="#3656AA"/>
<path d="M250.498 214.939C230.74 215.838 199.493 212.502 172.735 207.488C189.01 223.338 215.498 250.238 266.714 276.36C343.593 315.571 383.443 311.169 383.443 311.169C375.458 297.969 335.564 220.357 326.049 197.866C302.146 207.046 274.269 213.859 250.498 214.939Z" fill="white"/>
<path d="M416.926 231.132C422.913 226.749 428.572 222.188 433.457 217.592C416.546 205.672 394.199 187.781 384.887 170.872C384.887 170.872 383.54 171.617 381.092 172.906C389.919 195.611 405.356 217.007 416.926 231.132Z" fill="white"/>
<path d="M91.3449 260.337C104.697 242.439 123.487 215.09 127.501 198.017C125.028 197.444 123.658 197.114 123.658 197.114C111.467 217.655 87.5279 234.758 69.8926 245.356C76.313 250.62 83.6464 255.643 91.3449 260.337Z" fill="white"/>
<path d="M213.999 215.006C213.999 215.006 215.314 199.141 221.022 202.216C221.022 202.216 235.636 208.584 248.777 208.415C261.918 208.246 272.924 201.157 272.924 201.157C277.84 197.868 279.64 212.682 279.64 212.682C279.64 212.682 268.768 224.777 247.474 224.712C226.179 224.646 213.999 215.006 213.999 215.006Z" fill="white"/>
<path d="M246.147 226.617C235.212 226.617 224.369 223.74 215.469 218.455C215.153 218.268 215.049 217.86 215.237 217.544C215.424 217.227 215.833 217.122 216.149 217.311C225.21 222.691 236.337 225.532 247.492 225.271C258.64 225.025 269.496 221.713 278.059 215.946C278.362 215.739 278.778 215.82 278.983 216.126C279.188 216.431 279.108 216.844 278.802 217.049C270.03 222.957 258.921 226.349 247.52 226.601C247.063 226.612 246.605 226.617 246.147 226.617Z" fill="#DCD0D1"/>
<path d="M222.353 217.22C222.319 217.22 222.285 217.217 222.25 217.212C221.887 217.155 221.638 216.815 221.694 216.452L223.335 205.899C223.392 205.535 223.73 205.288 224.095 205.344C224.457 205.4 224.706 205.741 224.65 206.103L223.01 216.656C222.958 216.986 222.675 217.22 222.353 217.22Z" fill="#DCD0D1"/>
<path d="M230.918 220.345C230.894 220.345 230.871 220.343 230.847 220.341C230.482 220.302 230.217 219.974 230.256 219.609L230.817 214.325C230.856 213.96 231.18 213.694 231.548 213.734C231.914 213.773 232.179 214.101 232.14 214.466L231.579 219.749C231.543 220.091 231.254 220.345 230.918 220.345Z" fill="#DCD0D1"/>
<path d="M244.604 222.556C244.602 222.556 244.601 222.556 244.599 222.556C244.232 222.554 243.936 222.254 243.938 221.886L244.011 212.177C244.014 211.811 244.311 211.517 244.676 211.517C244.678 211.517 244.68 211.517 244.681 211.517C245.048 211.52 245.344 211.82 245.342 212.188L245.269 221.896C245.266 222.262 244.969 222.556 244.604 222.556Z" fill="#DCD0D1"/>
<path d="M255.998 221.332C255.64 221.332 255.344 221.046 255.334 220.685L255.215 216.544C255.204 216.177 255.495 215.87 255.862 215.86C256.232 215.851 256.536 216.14 256.546 216.507L256.664 220.648C256.675 221.015 256.385 221.321 256.018 221.332C256.011 221.332 256.005 221.332 255.998 221.332Z" fill="#DCD0D1"/>
<path d="M265.242 219.261C264.94 219.261 264.666 219.054 264.595 218.747L262.644 210.345C262.561 209.988 262.784 209.63 263.142 209.547C263.497 209.465 263.857 209.686 263.94 210.045L265.891 218.446C265.974 218.804 265.751 219.161 265.394 219.244C265.343 219.256 265.292 219.261 265.242 219.261Z" fill="#DCD0D1"/>
<path d="M273.07 214.155C272.741 214.155 272.455 213.913 272.411 213.578L271.823 209.155C271.775 208.791 272.031 208.456 272.395 208.408C272.761 208.36 273.094 208.615 273.142 208.979L273.73 213.402C273.779 213.766 273.523 214.101 273.159 214.149C273.129 214.153 273.099 214.155 273.07 214.155Z" fill="#DCD0D1"/>
<path d="M59.7237 196.165C59.4955 196.165 59.2733 196.047 59.1496 195.837C58.9633 195.52 59.069 195.112 59.3857 194.926C79.3524 183.183 113.433 161.359 119.886 152.793C120.364 152.158 120.87 151.291 120.568 150.76C119.403 148.714 109.445 149.808 102.855 150.533C95.516 151.339 91.6331 151.711 90.4961 150.653C90.2399 150.414 90.1228 150.092 90.1674 149.746C90.363 148.211 94.1381 146.036 104.078 140.665C114.391 135.092 128.516 127.458 129.844 122.849C129.946 122.496 130.316 122.291 130.668 122.394C131.021 122.496 131.224 122.865 131.123 123.218C129.64 128.364 116.396 135.521 104.71 141.836C98.9212 144.964 92.3923 148.493 91.5599 149.776C92.7715 150.302 98.4814 149.675 102.71 149.211C113.23 148.055 120.238 147.492 121.724 150.103C122.254 151.034 121.993 152.208 120.948 153.595C113.588 163.366 73.5174 188.159 60.0597 196.074C59.9546 196.135 59.8382 196.165 59.7237 196.165Z" fill="white"/>
<path d="M363.755 255.34C363.517 255.34 363.287 255.212 363.167 254.987C361.029 250.966 370.35 233.99 373.498 231.104C373.718 230.903 374.386 230.286 375.064 230.664C375.985 231.173 375.727 232.796 375.059 236.419C374.766 238.005 374.294 240.565 374.448 241.405C374.5 241.372 374.564 241.326 374.642 241.265C378.401 238.268 392.895 226.746 392.895 226.746L393.723 227.788C393.723 227.788 379.231 239.308 375.471 242.305C374.807 242.835 374.229 242.958 373.754 242.674C372.721 242.055 373.061 239.912 373.75 236.177C373.99 234.877 374.33 233.034 374.336 232.141C370.826 235.457 362.768 251.404 364.341 254.361C364.514 254.686 364.39 255.089 364.066 255.261C363.967 255.314 363.86 255.34 363.755 255.34Z" fill="white"/>
<path d="M352.361 325.602C352.342 325.602 352.322 325.601 352.302 325.599C343.308 324.809 330.226 318.836 317.575 313.059C307.394 308.411 297.778 304.02 290.581 302.375C288.175 301.825 286.602 301.897 286.033 302.584C285.061 303.756 286.512 307.088 287.792 310.028C289.403 313.731 290.925 317.228 289.366 319.11C288.353 320.334 286.334 320.553 283.011 319.799C266.889 316.137 245.113 303.318 189.809 264.931C189.507 264.721 189.433 264.307 189.642 264.005C189.851 263.703 190.266 263.627 190.569 263.838C251.754 306.308 269.224 315.303 283.307 318.5C285.969 319.106 287.71 319.022 288.341 318.261C289.379 317.008 287.887 313.582 286.571 310.559C285 306.947 283.514 303.535 285.009 301.733C285.959 300.588 287.824 300.38 290.878 301.078C298.208 302.752 307.884 307.17 318.128 311.848C330.676 317.578 343.652 323.503 352.419 324.273C352.785 324.305 353.056 324.628 353.023 324.994C352.992 325.34 352.702 325.602 352.361 325.602Z" fill="white"/>
<path d="M166.462 291.468C166.451 291.468 166.441 291.468 166.43 291.467C166.063 291.45 165.779 291.138 165.797 290.771C165.806 290.571 166.739 270.621 166.598 250.774C166.344 215.02 162.907 210.657 161.441 210.442C161.077 210.389 160.826 210.05 160.879 209.687C160.932 209.323 161.274 209.068 161.634 209.125C164.212 209.504 167.669 214.235 167.928 250.769C168.069 270.651 167.135 290.634 167.126 290.833C167.109 291.19 166.815 291.468 166.462 291.468Z" fill="white"/>
<path d="M415.473 160.906C415.323 160.906 415.174 160.856 415.049 160.754C411.307 157.666 392.638 142.079 392.644 138.431C392.644 138.053 392.81 137.709 393.11 137.464C394.513 136.316 399.413 137.228 407.29 138.81C412.16 139.788 420.31 141.425 421.065 140.436C421.054 140.436 421.01 139.768 418.585 137.61C410.171 130.123 388.143 117.181 383.52 117.724C383.143 117.771 382.825 117.505 382.782 117.141C382.739 116.775 383.001 116.445 383.366 116.403C389.238 115.703 415.362 131.966 421.071 138.166C422.095 139.277 422.492 140.065 422.361 140.717C421.928 142.874 417.356 142.189 407.028 140.115C402.198 139.144 394.924 137.683 393.976 138.472C394.119 140.776 406.844 152.259 415.897 159.727C416.18 159.961 416.22 160.381 415.987 160.664C415.855 160.824 415.665 160.906 415.473 160.906Z" fill="white"/>
<path d="M240.534 101.078C234.352 108.201 225.706 113.584 216.505 116.6C216.096 118.468 215.699 121.051 215.312 123.974C225.752 119.089 234.712 111.033 240.534 101.078Z" fill="#474747"/>
</g>
</svg>
