<svg width="111" height="33" viewBox="0 0 111 33" fill="none" xmlns="http://www.w3.org/2000/svg">
<path fill-rule="evenodd" clip-rule="evenodd" d="M51.128 1.27896V6.57457C50.3715 6.82674 49.5519 5.81805 48.4172 5.37675C45.8324 4.36806 39.7803 3.92676 40.4107 8.27672C40.6629 10.2941 44.0672 11.4289 46.1476 12.3745C49.9302 14.0767 54.028 16.2201 54.5954 20.8223C56.1715 32.7374 42.1759 34.4395 32.5304 30.9722C32.026 28.8287 31.5847 26.6222 31.0173 24.4788C31.6478 24.3527 32.0891 25.0461 32.6565 25.3614C34.7369 26.5592 38.1412 28.1983 41.8607 27.757C43.4368 27.5679 45.8324 26.6853 45.9585 24.6048C46.2107 20.444 38.9607 19.3723 35.4934 16.9136C31.8369 14.3288 29.7565 7.89846 33.3499 3.61155C36.6282 -0.297113 45.1389 -0.927541 51.128 1.27896Z" fill="#898D90"/>
<path fill-rule="evenodd" clip-rule="evenodd" d="M75.7777 1.27897V6.70066C73.7603 5.12459 65.5647 2.72896 65.0604 7.33109C64.8082 9.72672 66.9517 10.5463 68.5277 11.2398C73.319 13.4463 79.4342 15.4636 79.4342 22.4614C79.4342 32.9265 66.4473 34.2504 57.18 30.9091C56.7387 28.7026 56.2974 26.4961 55.667 24.4157C56.2974 24.2266 56.7387 24.9831 57.3061 25.2983C59.3235 26.4961 62.7908 28.0722 66.5104 27.6939C68.0234 27.5679 70.419 26.6853 70.6082 24.6679C71.0495 20.1288 62.5387 18.8049 59.2604 16.031C57.5583 14.6441 56.0453 11.9963 56.1083 9.09629C56.1713 0.333328 67.393 -1.68405 75.7777 1.27897Z" fill="#898D90"/>
<path fill-rule="evenodd" clip-rule="evenodd" d="M0 0.963752C3.71953 0.585495 8.13254 0.900709 12.1042 0.837666C12.2303 1.34201 11.0325 2.28765 10.7173 3.2333C10.1499 5.25067 10.5912 9.60063 10.5912 13.5093C10.5912 19.6245 9.39339 26.307 13.7434 27.1266C20.4259 28.3874 19.3542 18.8679 19.3542 12.6267C19.3542 7.39413 19.9216 2.60287 17.7151 0.837666H29.6932C29.8193 1.27897 28.6845 2.03548 28.3063 2.98112C27.3606 5.75501 27.9911 11.1137 27.9911 16.2832C27.9911 22.7766 27.0454 29.3331 29.9454 32.0439H19.3542V28.3874C17.3368 30.4048 15.1303 32.5482 11.1586 32.6113C5.79995 32.6743 2.26954 29.5222 1.95433 24.4157C1.51303 18.6158 2.6478 9.78976 1.95433 4.17894C1.7652 2.792 1.19782 1.65722 0 0.963752Z" fill="#898D90"/>
<path fill-rule="evenodd" clip-rule="evenodd" d="M105.282 3.86373C100.112 -0.234063 89.6471 0.900709 80.6319 0.837667C83.0906 3.10721 82.4602 8.84412 82.4602 15.3375C82.4602 21.2636 83.4689 28.3244 81.3884 31.0983C81.1363 31.4135 80.3167 31.5396 80.6319 31.9809C87.3145 31.8548 91.9166 32.233 97.1492 31.8548C104.273 31.3504 108.623 26.9374 110.325 21.2636C112.153 14.8332 110.199 7.77239 105.282 3.86373ZM91.097 26.8744V6.13327C105.597 1.08984 105.534 31.9178 91.097 26.8744Z" fill="#898D90"/>
</svg>
