<svg width="120" height="186" viewBox="0 0 120 186" fill="none" xmlns="http://www.w3.org/2000/svg">
<path d="M109.984 107.514V67.1802H115.263V107.514V113.432V114.482C115.263 115.536 114.408 116.391 113.353 116.391H99.608C98.239 116.391 97.1289 115.281 97.1289 113.912V107.514L109.984 107.514Z" fill="#2E3542"/>
<path d="M115.262 113.432V113.503C114.503 114.417 113.495 114.951 113.495 114.951V72.0852H115.262V107.514V113.432Z" fill="#5E5E5E"/>
<path d="M11.3349 107.514V67.1802H6.05664V107.514V113.432V114.482C6.05664 115.536 6.91186 116.391 7.96622 116.391H21.7114C23.0804 116.391 24.1905 115.281 24.1905 113.912V107.514L11.3349 107.514Z" fill="#2E3542"/>
<path d="M41.7945 172.897H41.7897C39.8588 172.897 38.293 174.463 38.293 176.394V181.393C38.293 183.324 39.8588 184.89 41.7897 184.89H41.7945C43.7254 184.89 45.2912 183.324 45.2912 181.393V176.394C45.2912 174.463 43.726 172.897 41.7945 172.897Z" fill="#5E5E5E"/>
<path d="M42.4868 173.59H42.4821C40.5512 173.59 38.9854 175.156 38.9854 177.087V182.085C38.9854 182.874 39.2497 183.599 39.6906 184.184C40.2756 184.625 41.001 184.89 41.7899 184.89H41.7946C43.7255 184.89 45.2913 183.324 45.2913 181.393V176.394C45.2913 175.606 45.027 174.88 44.5861 174.295C44.0011 173.854 43.2757 173.59 42.4868 173.59Z" fill="#2E3542"/>
<path d="M57.8165 154.298L42.3301 160.714C41.7043 160.974 41.2959 161.585 41.2959 162.263V176H43.5866V167.917C43.5866 167.157 44.098 166.491 44.8324 166.296L58.1899 162.754C58.4465 162.686 58.6249 162.454 58.6249 162.188V154.84C58.6249 154.422 58.2018 154.139 57.8165 154.298Z" fill="#5E5E5E"/>
<path d="M58.3136 154.896L42.8272 161.312C42.2013 161.572 41.793 162.183 41.793 162.861V175.999H43.5858V167.917C43.5858 167.156 44.0973 166.491 44.8316 166.296L58.1891 162.753C58.4458 162.685 58.6241 162.453 58.6241 162.187V154.86C58.524 154.845 58.4179 154.854 58.3136 154.896Z" fill="#2E3542"/>
<path d="M68.6029 76.7234H53.6748V103.594H68.6029V76.7234Z" fill="#2E3542"/>
<path d="M64.7084 115.431H57.5703V148.183H64.7084V115.431Z" fill="#5E5E5E"/>
<path d="M58.6276 115.431H57.5703V148.183H58.6276V115.431Z" fill="#878787"/>
<path d="M63.9151 115.431H59.3545V148.183H63.9151V115.431Z" fill="#2E3542"/>
<path d="M52.1826 105.194V119.91C52.1826 120.881 52.9703 121.669 53.9422 121.669H68.3376C69.3095 121.669 70.0972 120.882 70.0972 119.91V105.194H52.1826Z" fill="#5E5E5E"/>
<path d="M55.3799 105.194V119.243C55.3799 120.17 55.886 120.923 56.5107 120.923H65.7646C66.3893 120.923 66.8954 120.17 66.8954 119.243V105.194H55.3799Z" fill="#2E3542"/>
<path d="M65.8732 168.474V143.985C65.8732 143.383 65.3848 142.895 64.7827 142.895H55.86C55.2579 142.895 54.7695 143.383 54.7695 143.985V168.474H65.8732Z" fill="#5E5E5E"/>
<path d="M67.5089 168.474V143.985C67.5089 143.383 67.0206 142.895 66.4184 142.895H57.4958C56.8936 142.895 56.4053 143.383 56.4053 143.985V168.474H67.5089Z" fill="#5E5E5E"/>
<path d="M57.4958 142.896H55.86C55.2579 142.896 54.7695 143.384 54.7695 143.986V168.474H56.4053V143.986C56.4053 143.384 56.8937 142.896 57.4958 142.896Z" fill="#878787"/>
<path d="M65.5258 168.474V144.399C65.5258 143.824 65.2117 143.358 64.8247 143.358H59.0888C58.7018 143.358 58.3877 143.824 58.3877 144.399V168.474H65.5258Z" fill="#2E3542"/>
<path d="M101.228 77.4417L96.1526 7.18738C95.8906 3.55848 92.8698 0.748047 89.2314 0.748047H61.1389H33.0464C29.4081 0.748047 26.3872 3.55848 26.1253 7.18738L21.0497 77.4417C20.7593 81.4606 23.9413 84.8808 27.9708 84.8808H61.1389H94.307C98.3365 84.8808 101.519 81.4606 101.228 77.4417Z" fill="black"/>
<path d="M27.9711 84.881H61.1392H94.3072C98.3368 84.881 101.519 81.4607 101.228 77.4419L96.1528 7.18757C96.0947 6.38332 95.8944 5.62293 95.5892 4.92121C94.3819 3.91486 92.835 3.30737 91.1513 3.30737H63.0588H34.9663C31.3279 3.30737 28.3071 6.1178 28.0452 9.74671L22.9696 80.001C22.8854 81.1632 23.0934 82.2751 23.5273 83.269C24.7274 84.2723 26.2737 84.881 27.9711 84.881Z" fill="#21438D"/>
<path d="M104.332 95.5442H17.9462C14.2953 95.5442 11.335 98.504 11.335 102.155V110.359C11.335 111.835 12.5316 113.032 14.0079 113.032H108.27C109.746 113.032 110.943 111.835 110.943 110.359V102.155C110.943 98.504 107.983 95.5442 104.332 95.5442Z" fill="black"/>
<path d="M105.613 99.0627H19.2264C15.5756 99.0627 12.6152 102.023 12.6152 105.674V112.637C13.0212 112.886 13.4971 113.032 14.0086 113.032H108.271C109.747 113.032 110.944 111.835 110.944 110.359V102.155C110.944 102.018 110.932 101.884 110.923 101.749C109.719 100.122 107.792 99.0627 105.613 99.0627Z" fill="#21438D"/>
<path d="M53.8594 154.298L28.9561 160.714C28.3302 160.974 27.9219 161.585 27.9219 162.263V176H30.2125V167.917C30.2125 167.157 30.724 166.491 31.4583 166.296L54.2328 162.754C54.4894 162.686 54.6678 162.454 54.6678 162.188V154.84C54.6678 154.422 54.2446 154.139 53.8594 154.298Z" fill="#5E5E5E"/>
<path d="M54.3575 154.896L29.4541 161.312C28.8283 161.572 28.4199 162.183 28.4199 162.861V175.999H30.2127V167.917C30.2127 167.156 30.7242 166.491 31.4585 166.296L54.233 162.753C54.4896 162.685 54.668 162.453 54.668 162.187V154.86C54.5678 154.845 54.4618 154.854 54.3575 154.896Z" fill="#2E3542"/>
<path d="M25.1711 185.035C28.3991 185.035 31.016 182.285 31.016 178.893C31.016 175.502 28.3991 172.752 25.1711 172.752C21.943 172.752 19.3262 175.502 19.3262 178.893C19.3262 182.285 21.943 185.035 25.1711 185.035Z" fill="#5E5E5E"/>
<path d="M25.7672 172.784C22.8193 173.097 20.5186 175.713 20.5186 178.894C20.5186 182.074 22.8193 184.69 25.7672 185.004C28.7152 184.69 31.0159 182.074 31.0159 178.894C31.0159 175.713 28.7152 173.098 25.7672 172.784Z" fill="#2E3542"/>
<path d="M68.4178 154.298L93.3211 160.714C93.9469 160.974 94.3553 161.585 94.3553 162.263V176H92.0646V167.917C92.0646 167.157 91.5532 166.491 90.8189 166.296L68.0444 162.754C67.7878 162.686 67.6094 162.454 67.6094 162.188V154.84C67.6094 154.422 68.0325 154.139 68.4178 154.298Z" fill="#5E5E5E"/>
<path d="M67.9199 154.896L92.8232 161.312C93.4491 161.572 93.8575 162.183 93.8575 162.861V175.999H92.0646V167.917C92.0646 167.156 91.5532 166.491 90.8189 166.296L68.0444 162.753C67.7878 162.685 67.6094 162.453 67.6094 162.187V154.86C67.7095 154.845 67.8156 154.854 67.9199 154.896Z" fill="#2E3542"/>
<path d="M64.4617 154.298L79.9481 160.714C80.574 160.974 80.9823 161.585 80.9823 162.263V176H78.6917V167.917C78.6917 167.157 78.1802 166.491 77.4459 166.296L64.0883 162.754C63.8317 162.686 63.6533 162.454 63.6533 162.188V154.84C63.6533 154.422 64.0765 154.139 64.4617 154.298Z" fill="#5E5E5E"/>
<path d="M63.9639 154.896L79.4503 161.312C80.0762 161.572 80.4845 162.183 80.4845 162.861V175.999H78.6917V167.917C78.6917 167.156 78.1802 166.491 77.4459 166.296L64.0883 162.753C63.8317 162.685 63.6533 162.453 63.6533 162.187V154.86C63.7535 154.845 63.8596 154.854 63.9639 154.896Z" fill="#2E3542"/>
<path d="M79.3014 173.521H79.3062C81.2371 173.521 82.8029 175.087 82.8029 177.018V182.017C82.8029 183.948 81.2371 185.514 79.3062 185.514H79.3014C77.3705 185.514 75.8047 183.948 75.8047 182.017V177.018C75.8047 175.087 77.3705 173.521 79.3014 173.521Z" fill="#5E5E5E"/>
<path d="M78.6092 174.213H78.6139C80.5449 174.213 82.1107 175.779 82.1107 177.71V182.708C82.1107 183.497 81.8464 184.223 81.4054 184.808C80.8204 185.249 80.095 185.513 79.3062 185.513H79.3014C77.3705 185.513 75.8047 183.947 75.8047 182.016V177.018C75.8047 176.229 76.069 175.503 76.51 174.918C77.0949 174.478 77.8203 174.213 78.6092 174.213Z" fill="#2E3542"/>
<path d="M97.1066 185.035C100.335 185.035 102.952 182.285 102.952 178.893C102.952 175.502 100.335 172.752 97.1066 172.752C93.8786 172.752 91.2617 175.502 91.2617 178.893C91.2617 182.285 93.8786 185.035 97.1066 185.035Z" fill="#5E5E5E"/>
<path d="M96.5114 172.784C99.4593 173.097 101.76 175.713 101.76 178.894C101.76 182.074 99.4593 184.69 96.5114 185.004C93.5634 184.69 91.2627 182.074 91.2627 178.894C91.2621 175.713 93.5629 173.098 96.5114 172.784Z" fill="#2E3542"/>
<path d="M20.6587 60.5688H3.61177C2.34583 60.5688 1.31934 61.5953 1.31934 62.8613V64.887C1.31934 66.153 2.34583 67.1795 3.61177 67.1795H20.6587C21.9246 67.1795 22.9511 66.153 22.9511 64.887V62.8613C22.9511 61.5953 21.9246 60.5688 20.6587 60.5688Z" fill="black"/>
<path d="M4.62349 61.6353C3.35755 61.6353 2.33105 62.6618 2.33105 63.9277V65.954C2.33105 66.2984 2.40928 66.6237 2.545 66.9165C2.86327 67.0843 3.22539 67.1803 3.61062 67.1803H20.6575C21.9235 67.1803 22.95 66.1538 22.95 64.8878V62.8621C22.95 62.5177 22.8717 62.1924 22.736 61.8996C22.4172 61.7319 22.055 61.6359 21.6704 61.6359H4.62349V61.6353Z" fill="#21438D"/>
<path d="M6.05664 113.432V113.503C6.81585 114.417 7.82339 114.951 7.82339 114.951V72.0852H6.05664V107.514V113.432Z" fill="#5E5E5E"/>
<path d="M117.708 60.5688H100.661C99.3947 60.5688 98.3682 61.5953 98.3682 62.8613V64.887C98.3682 66.153 99.3947 67.1795 100.661 67.1795H117.708C118.973 67.1795 120 66.153 120 64.887V62.8613C120 61.5953 118.973 60.5688 117.708 60.5688Z" fill="black"/>
<path d="M101.673 61.6353C100.407 61.6353 99.3809 62.6618 99.3809 63.9277V65.954C99.3809 66.2984 99.4591 66.6237 99.5948 66.9165C99.9131 67.0843 100.275 67.1803 100.66 67.1803H117.707C118.973 67.1803 120 66.1538 120 64.8878V62.8621C120 62.5177 119.922 62.1924 119.786 61.8996C119.467 61.7319 119.105 61.6359 118.72 61.6359H101.673V61.6353Z" fill="#21438D"/>
<path d="M45.4971 26.02C44.2999 26.02 43.3291 26.9908 43.3291 28.188C43.3291 29.3852 44.2999 30.356 45.4971 30.356C46.6943 30.356 47.6651 29.3852 47.6651 28.188C47.6651 26.9908 46.6943 26.02 45.4971 26.02Z" fill="white"/>
<path d="M45.4971 59.6092C46.6944 59.6092 47.6651 58.6385 47.6651 57.4412C47.6651 56.2438 46.6944 55.2732 45.4971 55.2732C44.2997 55.2732 43.3291 56.2438 43.3291 57.4412C43.3291 58.6385 44.2997 59.6092 45.4971 59.6092Z" fill="white"/>
<path d="M76.7793 30.3567C77.9765 30.3567 78.9473 29.3859 78.9473 28.1887C78.9473 26.9915 77.9765 26.0208 76.7793 26.0208C75.5821 26.0208 74.6113 26.9915 74.6113 28.1887C74.6113 29.3859 75.5821 30.3567 76.7793 30.3567Z" fill="white"/>
<path d="M76.7793 55.2732C75.5821 55.2732 74.6113 56.244 74.6113 57.4412C74.6113 58.6384 75.5821 59.6092 76.7793 59.6092C77.9765 59.6092 78.9473 58.6384 78.9473 57.4412C78.9473 56.244 77.9771 55.2732 76.7793 55.2732Z" fill="white"/>
<path d="M26.3608 5.82666C16.6108 14.3048 3.53238 29.3159 2.79688 30.1622L3.24434 30.551C3.42096 30.3471 16.3897 15.4605 26.1723 6.78738C26.215 6.45963 26.2742 6.13781 26.3608 5.82666Z" fill="white"/>
<path d="M34.6149 0.234577C34.2243 0.340664 33.7893 0.516685 33.3193 0.748418H35.0333C45.2462 -1.45749 85.0035 20.4896 85.4071 20.7136L85.694 20.195C84.0221 19.2681 44.6269 -2.48162 34.6149 0.234577Z" fill="white"/>
<path d="M85.013 17.7575L2.92668 26.462C1.1303 26.6522 -0.17179 28.2631 0.0184569 30.0601L2.38142 52.3468C2.57226 54.1431 4.18313 55.4452 5.97951 55.255L88.0652 46.5505C89.8616 46.3602 91.1637 44.7494 90.9734 42.9524L88.6105 20.6657C88.4208 18.8687 86.8099 17.5672 85.013 17.7575Z" fill="#CB2C54"/>
<path d="M23.3424 35.2838L21.2143 35.5096C21.0235 34.9109 20.7461 34.3965 20.3823 33.9665C20.0243 33.5358 19.6054 33.1869 19.1258 32.9196C18.6513 32.6459 18.1367 32.4576 17.5819 32.3544C17.0272 32.2513 16.458 32.2307 15.8745 32.2926C14.8104 32.4055 13.875 32.7766 13.0682 33.4061C12.2671 34.0349 11.6676 34.8997 11.2695 36.0006C10.8771 37.101 10.7617 38.412 10.9231 39.9337C11.0846 41.4555 11.4725 42.7131 12.087 43.7066C12.7073 44.6995 13.475 45.4193 14.3901 45.866C15.311 46.3121 16.3035 46.4787 17.3676 46.3658C17.9511 46.3039 18.5033 46.1644 19.024 45.9471C19.5448 45.7299 20.0087 45.4406 20.4159 45.0792C20.8281 44.7115 21.1641 44.2796 21.4239 43.7834C21.6887 43.2809 21.8519 42.7198 21.9135 42.1L24.0416 41.8742C23.9767 42.7894 23.7702 43.6241 23.4221 44.3784C23.0741 45.1327 22.6118 45.7921 22.0353 46.3566C21.4582 46.9153 20.7914 47.365 20.035 47.7056C19.2843 48.0456 18.4655 48.2626 17.5788 48.3567C16.08 48.5157 14.7082 48.291 13.4634 47.6826C12.2187 47.0741 11.19 46.1303 10.3775 44.8512C9.56488 43.5721 9.06026 42.0058 8.86361 40.1522C8.66696 38.2987 8.83169 36.6614 9.35778 35.2402C9.88388 33.8191 10.6916 32.6805 11.781 31.8244C12.8703 30.9683 14.1644 30.4608 15.6633 30.3018C16.55 30.2077 17.3961 30.2481 18.2014 30.423C19.0125 30.5973 19.7591 30.8999 20.4412 31.3308C21.1226 31.7561 21.7127 32.3009 22.2113 32.9654C22.7093 33.6241 23.0863 34.3969 23.3424 35.2838ZM27.9492 29.2413L29.8138 46.8157L27.7886 47.0305L25.9241 29.4561L27.9492 29.2413ZM38.9069 46.1286C37.7169 46.2549 36.6428 46.0825 35.6846 45.6114C34.732 45.1397 33.95 44.4214 33.3386 43.4565C32.7328 42.491 32.3577 41.3275 32.2133 39.9659C32.0676 38.5929 32.1893 37.368 32.5784 36.2912C32.9731 35.2137 33.5867 34.3445 34.4191 33.6835C35.2572 33.0218 36.2712 32.6279 37.4611 32.5016C38.651 32.3754 39.7223 32.5481 40.6748 33.0198C41.6331 33.4908 42.4154 34.212 43.0217 35.1832C43.6338 36.1538 44.0127 37.3256 44.1584 38.6986C44.3028 40.0602 44.1773 41.2768 43.7819 42.3485C43.3923 43.4197 42.7784 44.286 41.9403 44.9477C41.1079 45.6087 40.0968 46.0024 38.9069 46.1286ZM38.7138 44.3094C39.6177 44.2135 40.3369 43.9029 40.8712 43.3776C41.4056 42.8523 41.7729 42.1972 41.9731 41.4123C42.1733 40.6274 42.2266 39.7945 42.1332 38.9135C42.0397 38.0325 41.8125 37.2264 41.4514 36.4953C41.0904 35.7642 40.5932 35.195 39.9599 34.7878C39.3266 34.3806 38.558 34.2249 37.6541 34.3208C36.7502 34.4167 36.0314 34.7302 35.4976 35.2612C34.9639 35.7922 34.5972 36.453 34.3976 37.2436C34.198 38.0343 34.145 38.8701 34.2384 39.7511C34.3319 40.6321 34.5589 41.4353 34.9193 42.1607C35.2797 42.8861 35.7763 43.4496 36.409 43.851C37.0417 44.2525 37.81 44.4053 38.7138 44.3094ZM56.1928 33.673L54.4282 34.3809C54.2817 34.0898 54.0816 33.8131 53.8282 33.5507C53.5798 33.282 53.2569 33.0733 52.8592 32.9246C52.4616 32.7759 51.9682 32.7328 51.379 32.7953C50.5723 32.8809 49.9199 33.1381 49.4216 33.567C48.9284 33.9896 48.7118 34.4841 48.7719 35.0504C48.8253 35.5539 49.0506 35.932 49.4477 36.185C49.8447 36.4379 50.4426 36.6203 51.2413 36.7323L53.2488 37.0053C54.4576 37.1663 55.3822 37.5107 56.0225 38.0387C56.6622 38.5609 57.031 39.2825 57.1287 40.2036C57.2088 40.9587 57.063 41.6569 56.6914 42.298C56.3254 42.9384 55.7745 43.4713 55.0386 43.8965C54.3027 44.3217 53.4227 44.5886 52.3987 44.6972C51.0543 44.8399 49.9107 44.6661 48.9678 44.1761C48.0248 43.686 47.3766 42.8928 47.0231 41.7964L48.8943 41.1119C49.1526 41.8019 49.5552 42.2972 50.102 42.5979C50.6545 42.8979 51.3455 43.004 52.175 42.916C53.119 42.8158 53.8472 42.5361 54.3596 42.0767C54.8771 41.6111 55.1059 41.0951 55.0458 40.5287C54.9972 40.071 54.7964 39.7047 54.4432 39.4298C54.0895 39.1492 53.5726 38.9668 52.8926 38.8827L50.6412 38.6009C49.4037 38.443 48.47 38.0937 47.8399 37.5531C47.2149 37.0061 46.8542 36.2779 46.7577 35.3683C46.6788 34.6246 46.8178 33.9445 47.1747 33.3281C47.5373 32.7111 48.0646 32.201 48.7566 31.7979C49.4543 31.3941 50.2665 31.143 51.1932 31.0447C52.4976 30.9063 53.552 31.0837 54.3564 31.5769C55.1665 32.0695 55.7787 32.7682 56.1928 33.673ZM66.1223 43.2412C64.8523 43.376 63.727 43.2119 62.7464 42.749C61.771 42.2797 60.9807 41.5652 60.3756 40.6054C59.7756 39.6393 59.4039 38.4812 59.2607 37.1311C59.1175 35.781 59.2372 34.5649 59.6199 33.483C60.0078 32.3947 60.6144 31.5146 61.4399 30.8427C62.2704 30.1645 63.2806 29.7623 64.4706 29.6361C65.1571 29.5632 65.8471 29.6057 66.5408 29.7635C67.2344 29.9214 67.8831 30.2286 68.4869 30.6852C69.0901 31.1361 69.5994 31.7647 70.0147 32.5711C70.43 33.3774 70.7029 34.3956 70.8334 35.6256L70.9244 36.4837L60.7643 37.5616L60.5785 35.8111L68.6792 34.9516C68.6003 34.2079 68.3812 33.5601 68.0218 33.0081C67.6681 32.4556 67.2016 32.0393 66.6223 31.7595C66.0488 31.479 65.3959 31.3776 64.6636 31.4553C63.857 31.5409 63.1803 31.8151 62.6335 32.2781C62.0918 32.7348 61.6974 33.2973 61.4501 33.9657C61.2028 34.6341 61.1177 35.3315 61.1948 36.0581L61.3186 37.2251C61.4243 38.2206 61.6854 39.0462 62.1021 39.702C62.5239 40.3515 63.0628 40.8236 63.7189 41.1185C64.3744 41.4076 65.1112 41.5088 65.9293 41.422C66.4613 41.3656 66.934 41.2402 67.3472 41.0459C67.7656 40.8454 68.1161 40.5768 68.3986 40.2402C68.6804 39.8979 68.8829 39.4888 69.006 39.0129L71.0208 39.3545C70.8852 40.04 70.601 40.6602 70.1682 41.2153C69.7347 41.7646 69.1753 42.2173 68.4899 42.5735C67.8039 42.924 67.0147 43.1465 66.1223 43.2412ZM79.6377 41.8073C78.5393 41.9239 77.5402 41.7493 76.6404 41.2836C75.7399 40.8122 74.9983 40.0925 74.4154 39.1245C73.8319 38.1509 73.4662 36.9661 73.3181 35.5702C73.1712 34.1858 73.2811 32.9592 73.6479 31.8906C74.0147 30.8219 74.592 29.9652 75.3798 29.3204C76.1676 28.6757 77.1165 28.2944 78.2263 28.1767C79.0844 28.0856 79.7775 28.1567 80.3056 28.39C80.8388 28.6169 81.256 28.8966 81.5574 29.2291C81.864 29.5552 82.1037 29.8248 82.2767 30.0379L82.4484 30.0197L81.7601 23.5323L83.7853 23.3174L85.6498 40.8918L83.6933 41.0994L83.4784 39.0742L83.2381 39.0997C83.1149 39.3557 82.9354 39.6814 82.6996 40.0767C82.4633 40.4662 82.1057 40.831 81.6269 41.1711C81.1475 41.5054 80.4844 41.7175 79.6377 41.8073ZM79.7193 39.959C80.5317 39.8728 81.1957 39.5883 81.7115 39.1055C82.2266 38.6169 82.59 37.9796 82.8016 37.1935C83.0126 36.4017 83.0654 35.508 82.9597 34.5126C82.8554 33.5286 82.621 32.6828 82.2566 31.9752C81.8917 31.2618 81.4071 30.7289 80.8027 30.3765C80.1978 30.0184 79.4834 29.883 78.6596 29.9704C77.8015 30.0614 77.1097 30.3576 76.5844 30.8588C76.0642 31.3536 75.7008 31.991 75.4942 32.7707C75.2928 33.5442 75.2413 34.3943 75.3396 35.3211C75.4391 36.2593 75.6726 37.0965 76.04 37.8328C76.4125 38.5627 76.9059 39.1236 77.5202 39.5154C78.1396 39.9009 78.8726 40.0488 79.7193 39.959Z" fill="white"/>
</svg>
