<svg width="324" height="371" viewBox="0 0 324 371" fill="none" xmlns="http://www.w3.org/2000/svg">
<mask id="mask0_64_525" style="mask-type:luminance" maskUnits="userSpaceOnUse" x="0" y="0" width="324" height="371">
<path d="M324 0H0V370.514H324V0Z" fill="white"/>
</mask>
<g mask="url(#mask0_64_525)">
<path d="M61.4534 332.362C57.0969 337.251 20.0729 381.684 11.2828 397.64C9.66958 400.57 68.5206 450.34 74.6104 451.626C80.6994 452.913 161.148 452.405 162.559 449.61C167.72 439.39 168.763 375.097 168.763 375.097L61.4534 332.362Z" fill="#4573CA"/>
<path d="M74.6105 451.625C74.32 451.564 73.9065 451.39 73.3871 451.117C83.3406 425.921 93.7112 397.417 93.815 397.131C94.0662 396.444 94.825 396.089 95.512 396.34C96.1989 396.59 96.5531 397.349 96.3041 398.036C96.2011 398.32 85.9519 426.486 76.0459 451.594C75.4019 451.675 74.9128 451.689 74.6105 451.625ZM159.595 395.087C131.656 399.386 97.3949 386.858 93.0013 383.737C93.2503 382.948 93.606 381.735 94.0506 380.217C95.0481 376.809 97.114 369.758 97.8328 368.688C98.3138 368.22 98.3716 367.455 97.9462 366.918C97.4912 366.345 96.662 366.25 96.0862 366.702C95.2104 367.396 94.3122 369.903 91.5097 379.473C91.3296 380.087 91.1592 380.668 91.0028 381.199C86.0031 378.959 67.384 369.485 49.9876 346.054C49.4237 346.741 48.8479 347.445 48.2603 348.163C66.3784 372.359 85.3628 381.666 90.2195 383.757C90.1551 384.085 90.1639 384.613 90.6404 385.167C93.6949 388.716 130.173 402.341 160.039 397.7C159.892 396.827 159.744 395.954 159.595 395.087ZM97.8877 378.355C96.3775 379.038 95.7061 380.816 96.3893 382.326C97.0718 383.837 98.8503 384.508 100.361 383.825C101.871 383.141 102.542 381.364 101.859 379.854C101.176 378.343 99.3979 377.672 97.8877 378.355Z" fill="#7FC1E2"/>
<path d="M211.054 181.594C196.513 176.138 159.016 165.867 159.016 165.867L56.7434 333.15C56.7434 333.15 69.8893 363.295 104.297 376.61C138.706 389.924 159.185 383.073 159.185 383.073C159.185 383.073 182.03 309.713 197.752 256.895C213.473 204.077 211.054 181.594 211.054 181.594Z" fill="white"/>
<path d="M210.951 181.556C210.256 190.865 205.244 199.933 197.27 204.868C185.983 211.857 169.91 209.843 160.693 200.28C154.522 193.878 151.851 184.535 152.975 175.748L150.107 180.438C150.285 188.42 153.237 196.361 158.787 202.119C167.964 211.64 183.371 214.297 195.354 208.88C196.49 208.367 197.597 207.779 198.665 207.119C204.17 203.711 208.379 198.493 210.92 192.548C211.425 185.097 211.055 181.594 211.055 181.594C211.021 181.582 210.984 181.568 210.951 181.556Z" fill="#F8E8E0"/>
<path d="M110.567 25.1855C90.1091 26.741 54.7724 37.7341 58.9296 81.2481C62.179 105.138 76.3652 159.905 77.6554 166.202C79.9689 177.497 22.7511 259.022 23.6107 282.21C23.9352 290.973 31.5738 302.507 30.786 304.468C28.1576 311.006 26.4221 315.769 26.0257 317.936C23.5299 331.574 43.7844 353.444 50.1276 356.832C56.4709 360.219 159.017 165.868 159.017 165.868C159.017 165.868 118.737 49.4431 110.567 25.1855Z" fill="#1B8748"/>
<path d="M49.2192 290.411C49.0273 290.411 48.8421 290.336 48.7028 290.201L29.7665 271.775C29.4731 271.489 29.4664 271.02 29.7517 270.727C30.0377 270.434 30.5061 270.427 30.7995 270.712L49.0473 288.47L68.5334 254.086C68.7357 253.731 69.1878 253.606 69.5434 253.806C69.8999 254.008 70.0244 254.461 69.8228 254.816L49.8625 290.035C49.7491 290.235 49.5498 290.371 49.3223 290.404C49.2889 290.409 49.2541 290.411 49.2192 290.411Z" fill="white"/>
<path d="M211.054 181.594C206.732 235.995 144.583 390.155 145.399 399.409C146.215 408.664 169.513 425.077 175.686 422.767C181.86 420.458 192.737 406.202 192.737 406.202C192.737 406.202 219.277 417.016 232.396 407.716C245.514 398.418 256.14 243.972 256.14 243.972L211.054 181.594Z" fill="#1B8748"/>
<path d="M84.9033 167.905C84.6921 167.905 84.478 167.871 84.2623 167.801C81.0077 166.75 78.1118 156.914 77.5642 154.954C77.4545 154.56 77.685 154.151 78.0785 154.041C78.4719 153.928 78.8817 154.161 78.9914 154.555C80.1763 158.799 82.7788 165.765 84.7166 166.391C84.8678 166.439 85.0397 166.457 85.2857 166.26C86.6359 165.181 86.0401 153.003 85.6043 144.111C85.0093 131.954 84.4468 120.472 86.289 117.104C86.4854 116.746 86.936 116.614 87.2954 116.81C87.654 117.006 87.7867 117.457 87.5896 117.816C85.9474 120.817 86.5521 133.154 87.0849 144.038C87.8274 159.215 87.9697 166.011 86.2105 167.417C85.8074 167.741 85.3628 167.905 84.9033 167.905Z" fill="white"/>
<path d="M221.564 316.147C209.892 376.598 217.027 396.411 221.874 411.292C225.76 410.89 229.423 409.823 232.395 407.716C232.793 407.435 233.188 407.013 233.58 406.474C221.16 387.505 219.068 351.233 221.564 316.147Z" fill="#1B8748"/>
<path d="M219.653 217.823C220.821 220.405 219.673 223.445 217.092 224.612C214.51 225.779 211.47 224.632 210.303 222.05C209.136 219.468 210.283 216.429 212.865 215.262C215.447 214.094 218.486 215.242 219.653 217.823ZM199.648 254.934C197.066 256.101 195.919 259.14 197.086 261.723C198.253 264.304 201.292 265.451 203.875 264.284C206.456 263.117 207.604 260.078 206.436 257.496C205.269 254.913 202.23 253.767 199.648 254.934ZM188.072 295.199C185.491 296.366 184.343 299.405 185.511 301.988C186.678 304.57 189.717 305.717 192.299 304.55C194.881 303.383 196.028 300.344 194.861 297.761C193.694 295.179 190.655 294.032 188.072 295.199ZM174.191 334.046C171.609 335.213 170.462 338.252 171.629 340.834C172.796 343.416 175.836 344.563 178.417 343.396C180.999 342.229 182.146 339.189 180.979 336.607C179.812 334.026 176.772 332.878 174.191 334.046ZM161.975 372.535C159.393 373.702 158.246 376.741 159.413 379.323C160.58 381.905 163.62 383.052 166.202 381.885C168.783 380.718 169.93 377.679 168.763 375.096C167.596 372.514 164.557 371.368 161.975 372.535Z" fill="white"/>
<path d="M134.106 178.711C135.105 178.618 135.995 178.748 136.854 178.945C137.707 179.153 138.518 179.449 139.292 179.819C140.067 180.187 140.802 180.639 141.495 181.18C142.183 181.728 142.837 182.347 143.379 183.197C143.842 183.921 143.629 184.883 142.905 185.345C142.696 185.479 142.458 185.557 142.226 185.581C141.223 185.684 140.332 185.555 139.474 185.356C138.621 185.149 137.811 184.853 137.041 184.473C136.269 184.097 135.534 183.644 134.842 183.104C134.155 182.553 133.5 181.936 132.953 181.095C132.488 180.379 132.691 179.42 133.407 178.955C133.623 178.814 133.867 178.734 134.106 178.711ZM114.539 212.639C113.801 213.1 113.576 214.072 114.036 214.81C114.544 215.623 115.157 216.21 115.801 216.73C116.451 217.241 117.143 217.663 117.87 218.008C118.596 218.356 119.361 218.621 120.168 218.796C120.98 218.964 121.824 219.06 122.777 218.925C122.983 218.894 123.194 218.822 123.382 218.707C124.128 218.25 124.362 217.274 123.905 216.529C123.402 215.707 122.79 215.117 122.144 214.599C121.494 214.089 120.803 213.668 120.071 213.331C119.341 212.991 118.576 212.727 117.769 212.551C116.957 212.386 116.113 212.287 115.163 212.414C114.951 212.444 114.734 212.518 114.539 212.639ZM97.349 249.101C96.5679 249.484 96.2456 250.428 96.6287 251.209C97.0503 252.069 97.6009 252.716 98.1893 253.3C98.7836 253.873 99.429 254.363 100.117 254.781C100.804 255.201 101.538 255.543 102.323 255.799C103.113 256.048 103.943 256.23 104.906 256.192C105.113 256.183 105.331 256.132 105.53 256.037C106.318 255.658 106.65 254.712 106.272 253.923C105.855 253.055 105.305 252.406 104.716 251.825C104.121 251.251 103.476 250.762 102.783 250.352C102.092 249.939 101.357 249.598 100.572 249.342C99.7803 249.095 98.9511 248.911 97.9937 248.941C97.7795 248.948 97.555 249 97.349 249.101ZM78.0178 282.07C77.2708 282.471 76.99 283.402 77.3916 284.149C77.877 285.052 78.4913 285.743 79.1441 286.371C79.8029 286.989 80.5128 287.523 81.2664 287.986C82.0186 288.452 82.8189 288.838 83.6703 289.14C84.5262 289.435 85.4236 289.662 86.4544 289.671C86.6989 289.672 86.9546 289.615 87.1858 289.493C87.9394 289.096 88.2291 288.163 87.8319 287.409C87.3518 286.498 86.7389 285.804 86.0846 285.179C85.4258 284.561 84.7152 284.026 83.9571 283.571C83.2005 283.114 82.3995 282.728 81.548 282.426C80.6907 282.133 79.7948 281.904 78.7692 281.887C78.518 281.884 78.2556 281.942 78.0178 282.07ZM55.549 320.297C54.811 320.718 54.5538 321.656 54.974 322.394C55.4794 323.282 56.1085 323.953 56.774 324.561C57.4453 325.158 58.1656 325.671 58.9274 326.111C59.6877 326.553 60.4939 326.916 61.3491 327.192C62.2087 327.461 63.1075 327.661 64.1339 327.639C64.3762 327.633 64.6281 327.569 64.8541 327.443C65.5989 327.027 65.8656 326.086 65.4492 325.341C64.9482 324.445 64.3206 323.771 63.6537 323.166C62.9823 322.569 62.262 322.057 61.4958 321.625C60.731 321.19 59.9241 320.829 59.0689 320.552C58.2078 320.286 57.3105 320.083 56.2893 320.097C56.0403 320.1 55.7817 320.165 55.549 320.297Z" fill="white"/>
<path d="M211.054 181.594C242.281 185.28 271.31 205.357 279.991 219.236C288.671 233.115 322.645 390.1 260.923 414.35C199.202 438.6 229.778 254.927 229.778 254.927L211.054 181.594Z" fill="#1B8748"/>
<path d="M172.65 396.564C172.58 396.564 172.509 396.554 172.44 396.534C172.047 396.418 171.823 396.005 171.939 395.613C179.969 368.457 188.556 341.932 196.861 316.278C209.431 277.449 221.303 240.772 230.442 204.738C230.543 204.341 230.948 204.104 231.343 204.202C231.74 204.303 231.98 204.707 231.88 205.103C222.728 241.183 210.848 277.881 198.271 316.735C189.97 342.378 181.386 368.896 173.361 396.033C173.265 396.356 172.97 396.564 172.65 396.564Z" fill="white"/>
<path d="M237.2 69.9986C237.128 69.9986 237.057 69.9882 236.984 69.966C236.593 69.8459 236.372 69.4317 236.492 69.0404C239.517 59.1358 240.514 48.4598 239.374 38.1647C239.329 37.7579 239.622 37.3918 240.029 37.3466C240.453 37.3029 240.803 37.5956 240.847 38.0017C242.008 48.4946 240.992 59.3774 237.909 69.4732C237.812 69.7933 237.518 69.9986 237.2 69.9986Z" fill="#C164A6"/>
<path d="M58.7594 339.484C58.5882 339.484 58.4156 339.425 58.2755 339.304C49.4417 331.669 42.0492 320.7 35.5267 311.02C34.8909 310.077 34.264 309.147 33.6467 308.236C33.417 307.897 33.5059 307.437 33.8445 307.206C34.1839 306.977 34.6441 307.065 34.8738 307.404C35.4918 308.316 36.1195 309.247 36.756 310.193C43.2267 319.794 50.5607 330.677 59.2448 338.182C59.5545 338.45 59.5886 338.918 59.3211 339.228C59.1736 339.397 58.9669 339.484 58.7594 339.484Z" fill="white"/>
<path d="M192.647 54.6014C187.887 54.6014 177.827 50.0114 166.196 44.7042C154.057 39.1657 140.299 32.8877 132.642 32.2527C132.235 32.2186 131.931 31.8607 131.965 31.4531C131.998 31.0448 132.357 30.7358 132.764 30.7758C140.679 31.4324 153.964 37.494 166.811 43.3555C177.812 48.3752 188.21 53.1193 192.641 53.1193C192.681 53.1193 192.72 53.1193 192.76 53.1178C193.255 53.1082 193.491 53.0408 193.591 52.9993C193.336 51.7654 188.042 47.7906 184.153 44.8709C175.68 38.5099 169.678 33.7525 169.614 30.4631C169.599 29.6769 169.925 28.9907 170.556 28.4771C170.875 28.2193 171.341 28.2674 171.599 28.5846C171.857 28.9025 171.808 29.3686 171.491 29.6272C171.211 29.854 171.09 30.1029 171.096 30.4342C171.15 33.2553 179.18 39.2836 185.043 43.6853C192.72 49.449 195.57 51.7884 195.019 53.4972C194.675 54.5621 193.256 54.5902 192.789 54.5999C192.743 54.6006 192.695 54.6014 192.647 54.6014Z" fill="#C164A6"/>
<path d="M98.5701 353.181C94.4789 354.321 96.2403 368.409 92.3847 363.064C88.5291 357.72 91.8912 339.19 88.0378 341.64C86.9063 342.36 86.1608 344.974 85.9303 348.482C85.1412 360.529 92.2343 371.796 103.448 376.271C103.497 376.291 103.547 376.31 103.596 376.33C101.731 368.785 101.814 352.276 98.5701 353.181Z" fill="#F8E8E0"/>
<path d="M120.242 381.693C128.566 383.902 138.04 364.334 144.627 368.965C150.756 373.274 141.417 379.781 135.95 381.767C130.483 383.752 120.242 381.693 120.242 381.693Z" fill="#F8E8E0"/>
<path opacity="0.4" d="M183.956 445.236C148.236 370.743 131.797 287.102 136.67 204.632C137.497 190.636 139.014 176.346 145.044 163.688C148.205 166.445 152.127 169.371 155.289 172.128C142.918 265.043 159.498 361.337 206.216 442.601L183.956 445.236Z" fill="#8E79B0"/>
<path d="M186.477 431.696C150.756 357.203 134.318 273.563 139.191 191.092C140.018 177.096 141.534 162.806 147.565 150.149C150.727 152.905 154.647 155.832 157.809 158.588C145.439 251.504 162.019 347.797 208.737 429.061" fill="#ECBB2C"/>
<path d="M291.747 50.7709C290.676 50.0869 281.629 42.5832 279.512 41.9808C277.394 41.3783 250.794 41.1553 250.794 41.1553L253.092 66.949C253.092 66.949 266.612 81.0804 269.359 83.1449C272.106 85.2094 281.832 87.7178 283.274 87.7556C284.173 87.7793 288.814 85.3139 292.193 83.448C294.142 82.3713 294.717 79.8392 293.427 78.0237C292.464 76.6691 290.721 76.1148 289.152 76.6646L282.516 78.9907L278.429 75.1418L283.755 75.9577L290.057 67.3129L290.018 53.1029L291.747 50.7709Z" fill="#BA623B"/>
<path d="M276.505 64.1666L287.797 63.1825L290.047 63.267L290.019 53.103L291.748 50.7717C290.696 50.1004 281.963 42.862 279.64 42.0261C279.128 49.7462 270.439 56.0212 270.439 56.0212C274.172 63.075 274.309 71.17 274.309 71.17C277.031 67.7932 276.505 64.1666 276.505 64.1666Z" fill="#9B3D2F"/>
<path d="M307.867 80.6655L283.729 75.9837C281.961 75.7258 280.703 74.1318 280.863 72.3519C281.033 70.4697 282.718 69.0965 284.595 69.31L308.752 73.7243C310.551 73.9288 311.865 75.519 311.727 77.3234L311.707 77.5917C311.559 79.5354 309.796 80.9471 307.867 80.6655Z" fill="#BA623B"/>
<path d="M309.393 71.1115L288.778 70.4082C286.991 70.4134 285.512 69.021 285.409 67.2374C285.3 65.3507 286.764 63.7442 288.653 63.6797L309.249 64.1147C311.058 64.0524 312.592 65.4322 312.721 67.2374L312.74 67.5056C312.879 69.4501 311.342 71.1055 309.393 71.1115Z" fill="#BA623B"/>
<path d="M290.408 63.9051L280.28 63.9266C278.494 63.9317 277.015 62.5401 276.911 60.7557C276.802 58.869 278.266 57.2625 280.155 57.198L290.264 56.909C292.072 56.8468 293.606 58.2266 293.735 60.0317L293.755 60.3C293.895 62.2437 292.358 63.8991 290.408 63.9051Z" fill="#BA623B"/>
<path d="M290.149 57.3499L283.465 57.3669C281.678 57.3721 280.199 55.9797 280.095 54.1961C279.986 52.3094 281.451 50.7029 283.34 50.6384L290.004 50.3531C291.813 50.2909 293.347 51.6707 293.477 53.4758L293.496 53.7441C293.635 55.6885 292.099 57.344 290.149 57.3499Z" fill="#BA623B"/>
<path d="M235.365 35.168C235.365 35.168 247.998 31.76 255.336 38.6604C259.309 42.3952 260.303 57.7263 254.76 68.6484C249.218 79.5697 229.184 74.026 229.184 74.026L235.365 35.168Z" fill="#1B8748"/>
<path d="M118.313 64.3599C120.079 73.2308 122.538 86.1439 124.139 95.0467C127.67 93.1533 129.517 87.8572 130.739 87.4815C139.508 84.7879 216.793 90.928 229.233 81.9304C241.672 72.9336 250.094 43.9586 236.592 29.5249C223.089 15.0911 110.567 25.1847 110.567 25.1847C113.045 38.2638 115.715 51.3052 118.313 64.3599Z" fill="#1B8748"/>
<path d="M285.704 236.148C274.913 221.543 252.391 208.138 235.616 201.186C217.075 193.502 198.484 185.8 179.177 180.319C170.596 177.882 161.949 175.425 153.232 173.574C130.82 168.814 114.246 149.643 112.58 126.792C112.56 126.514 112.54 126.237 112.52 125.959C110.915 102.716 125.817 80.8169 147.937 73.6222C195.948 58.008 241.072 88.6051 272.486 121.976C286.907 137.295 296.5 157.09 299.659 177.886C302.722 198.049 295.17 218.474 285.704 236.148Z" fill="#202020"/>
<path d="M258.121 212.741C262.143 202.094 267.93 181.715 265.848 156.316C263.317 125.436 252.064 106.122 243.299 95.6929C239.795 93.083 236.202 90.5998 232.527 88.2737C258.666 108.692 263.896 175.342 246.6 206.28C250.402 208.22 254.292 210.389 258.121 212.741Z" fill="#474747"/>
<path d="M150.117 136.759C150.117 136.759 143.447 129.245 137.519 135.636C131.592 142.026 143.22 158.19 150.77 156.216C154.517 155.235 154.661 149.28 154.661 149.28L150.117 136.759Z" fill="#BA623B"/>
<path opacity="0.4" d="M139.199 140.67C144.165 141.231 148.849 144.781 150.53 149.538C150.818 150.351 150.906 151.266 150.597 152.07C150.288 152.874 149.525 153.529 148.666 153.544C147.456 153.566 146.562 152.421 146.031 151.326C145.12 149.443 144.656 147.346 144.689 145.255C143.356 143.749 141.018 141.519 139.199 140.67Z" fill="#6C3317"/>
<path d="M150.117 136.759C150.117 136.759 143.447 129.245 137.519 135.636C136.812 136.398 136.361 137.304 136.116 138.298C137.484 137.405 139.055 136.783 140.643 136.497C143.824 135.925 147.06 136.4 150.243 137.104L150.117 136.759Z" fill="#CC744F"/>
<path d="M211.749 123.34C211.749 123.34 214.691 113.732 222.74 117.08C230.788 120.428 226.932 139.963 219.244 141.306C215.429 141.972 212.822 136.615 212.822 136.615L211.749 123.34Z" fill="#BA623B"/>
<path opacity="0.4" d="M223.304 122.357C219.021 124.933 216.237 130.109 216.686 135.133C216.763 135.992 217.063 136.862 217.679 137.464C218.294 138.066 219.26 138.346 220.047 138.003C221.158 137.519 221.494 136.106 221.521 134.89C221.567 132.799 221.117 130.698 220.218 128.81C220.804 126.885 222.003 123.886 223.304 122.357Z" fill="#6C3317"/>
<path d="M211.749 123.34C211.749 123.34 214.691 113.732 222.74 117.08C223.7 117.48 224.487 118.116 225.122 118.918C223.508 118.675 221.819 118.762 220.257 119.163C217.126 119.964 214.38 121.742 211.778 123.707L211.749 123.34Z" fill="#CC744F"/>
<path d="M203.4 161.69L199.944 185.723C198.48 195.907 189.089 203.182 178.906 201.713C178.543 201.661 178.18 201.602 177.815 201.537C167.008 199.597 160.321 188.619 163.249 178.037L168.49 159.096L203.4 161.69Z" fill="#BA623B"/>
<path opacity="0.4" d="M162.79 186.01C176.887 185.758 190.917 180.79 201.922 171.971L203.401 161.691L193.866 160.983C188.187 161.268 182.508 161.553 176.829 161.839C173.652 161.999 170.419 162.179 167.388 163.083L163.25 178.037C162.507 180.721 162.385 183.429 162.79 186.01Z" fill="#6C3317"/>
<path d="M142.441 118.614C140.867 106.333 146.728 89.1799 170.941 83.9083C195.154 78.6366 207.616 91.7995 211.29 103.623C212.208 106.575 213.487 112.075 214.365 118.78C217 138.897 216.029 169.865 190.873 175.446C165.673 180.829 151.914 153.068 145.947 133.677C143.958 127.214 142.835 121.68 142.441 118.614Z" fill="#BA623B"/>
<path d="M190.873 175.447C180.773 177.604 172.515 174.432 165.856 168.615L164.76 172.58C171.028 177.274 178.603 179.617 187.654 177.683C192.304 176.652 196.124 174.748 199.251 172.211C196.812 173.642 194.034 174.745 190.873 175.447Z" fill="#202020"/>
<path d="M156.613 135.097C156.613 135.097 158.289 128.935 165.313 128.163C172.616 127.361 176.855 134.265 176.855 134.265C176.855 134.265 173.395 130.689 168.263 130.492C163.226 130.298 156.613 135.097 156.613 135.097Z" fill="#CC744F"/>
<path d="M181.639 136.013C182.483 133.431 189.498 142.68 189.498 142.68C189.498 142.68 187.733 146.635 184.257 147.392C180.782 148.148 177.436 145.06 177.436 145.06C177.436 145.06 179.157 143.613 181.639 136.013Z" fill="#BA623B"/>
<path d="M177.433 145.064C177.433 145.064 179.695 147.143 182.433 147.466C182.446 147.463 182.449 147.474 182.461 147.471C183.039 147.541 183.639 147.525 184.254 147.391C187.735 146.633 189.502 142.677 189.502 142.677C189.529 142.789 186.255 144.057 183.231 144.625C180.206 145.193 177.433 145.064 177.433 145.064Z" fill="#9B3D2F"/>
<path d="M187.217 145.146C187.557 144.876 187.956 144.679 188.37 144.506C187.851 145.188 187.152 145.931 186.276 146.511C186.432 145.996 186.756 145.511 187.217 145.146Z" fill="#77312E"/>
<path d="M205.256 124.506C205.256 124.506 201.169 119.599 194.461 121.817C187.485 124.123 186.5 132.165 186.5 132.165C186.5 132.165 188.16 127.475 192.747 125.162C197.245 122.892 205.256 124.506 205.256 124.506Z" fill="#CC744F"/>
<path d="M172.94 154.323C172.364 155.138 171.472 156.01 170.344 156.281C170.089 156.342 169.803 156.326 169.626 156.191C169.263 155.914 169.703 155.215 169.941 154.906C170.331 154.401 170.891 153.993 171.44 153.594C171.913 153.25 172.622 152.888 173.042 153.188C173.395 153.44 173.204 153.95 172.94 154.323Z" fill="#B35133"/>
<path d="M197.717 148.929C198.581 149.43 199.755 149.852 200.892 149.63C201.15 149.579 201.403 149.446 201.509 149.249C201.723 148.846 201.031 148.394 200.688 148.212C200.123 147.915 199.445 147.776 198.779 147.641C198.205 147.526 197.41 147.491 197.153 147.939C196.937 148.314 197.323 148.699 197.717 148.929Z" fill="#B35133"/>
<path d="M175.553 154.588C177.188 153.722 180.063 150.26 185.849 152.049C190.366 148.016 194.421 149.97 196.268 150.077C198.115 150.185 200.132 148.433 200.132 148.433C200.132 148.433 196.488 154.067 186.749 156.188C177.012 158.308 171.354 154.699 171.354 154.699C171.354 154.699 173.918 155.454 175.553 154.588Z" fill="#802727"/>
<path d="M173.121 155.274C173.121 155.274 175.997 157.667 186.571 155.365C197.283 153.033 198.766 149.689 198.766 149.689L200.133 148.433C200.133 148.433 197.485 158.885 187.797 160.994C178.11 163.103 171.356 154.699 171.356 154.699L173.121 155.274Z" fill="#802727"/>
<path d="M186.571 155.365C190.372 154.537 192.05 155.131 195.503 152.643C194.04 154.006 191.242 155.592 186.83 156.553C182.417 157.515 179.213 157.234 177.316 156.603C181.789 157.7 182.769 156.193 186.571 155.365Z" fill="#202020"/>
<path d="M199.473 141.088C199.899 143.047 202.508 144.142 205.3 143.534C208.092 142.926 210.009 140.845 209.582 138.886C209.156 136.927 206.546 135.832 203.755 136.44C200.963 137.048 199.046 139.128 199.473 141.088Z" fill="#CC744F"/>
<path d="M168.766 147.773C169.193 149.732 167.276 151.813 164.483 152.421C161.692 153.029 159.083 151.933 158.656 149.975C158.229 148.015 160.147 145.935 162.938 145.327C165.73 144.719 168.34 145.814 168.766 147.773Z" fill="#CC744F"/>
<path d="M183.382 117.843C183.475 117.634 183.856 117.3 184.436 116.894C183.954 118.542 183.8 119.9 183.971 120.817C183.971 120.817 184.178 118.69 185.334 116.304C187.773 114.786 191.969 112.716 195.005 111.849C199.383 110.599 203.704 113.32 204.146 113.916C204.588 114.513 200.35 114.05 198.988 114.545C197.626 115.039 184.913 123.995 183.98 123.182C182.563 121.947 182.939 118.83 183.382 117.843ZM205.718 113.892C205.879 113.905 203.587 112.007 202.883 111.663C202.179 111.32 201.615 111.311 201.298 111.38C200.983 111.449 203.373 112.55 204.021 112.938C204.668 113.327 205.718 113.892 205.718 113.892Z" fill="#202020"/>
<path d="M196.722 111.552C197.112 111.524 197.495 111.526 197.873 111.545C196.511 112.565 195.3 113.794 194.257 115.143C193.311 116.367 192.507 117.69 191.783 119.06C191.46 119.266 191.137 119.472 190.813 119.675C192.098 116.548 194.142 113.735 196.722 111.552Z" fill="#331111"/>
<path d="M188.431 117.139C188.803 116.036 189.244 114.951 189.773 113.914C190.769 113.441 191.792 112.994 192.775 112.612C190.594 115.262 188.892 118.299 187.763 121.54C187.556 121.661 187.354 121.779 187.156 121.89C187.514 120.289 187.906 118.694 188.431 117.139Z" fill="#474747"/>
<path d="M175.412 125.046C174.901 126.174 159.615 123.314 158.171 123.431C156.727 123.547 153.064 125.73 153.219 125.004C153.374 124.278 156.172 120.007 160.674 119.324C163.793 118.851 168.471 118.989 171.32 119.355C173.364 121.044 174.437 122.893 174.437 122.893C174.211 121.988 173.506 120.817 172.383 119.518C173.079 119.647 173.564 119.792 173.736 119.943C174.55 120.657 176.188 123.335 175.412 125.046ZM152.926 124.063C153.353 123.441 155.07 121.445 154.754 121.514C154.439 121.583 153.929 121.826 153.432 122.431C152.934 123.035 151.638 125.715 151.78 125.636C151.78 125.636 152.499 124.686 152.926 124.063Z" fill="#202020"/>
<path d="M158.987 119.768C158.621 119.904 158.273 120.065 157.938 120.24C159.601 120.6 161.214 121.215 162.723 122.008C164.092 122.728 165.374 123.598 166.6 124.542C166.981 124.595 167.36 124.647 167.738 124.698C165.27 122.389 162.242 120.681 158.987 119.768Z" fill="#331111"/>
<path d="M168.851 121.403C168.054 120.554 167.202 119.75 166.29 119.028C165.187 119.012 164.072 119.03 163.018 119.092C166.103 120.595 168.915 122.65 171.288 125.129C171.528 125.153 171.76 125.175 171.986 125.195C170.995 123.885 169.975 122.599 168.851 121.403Z" fill="#474747"/>
<path d="M156.684 134.685C159.135 132.016 163.68 129.956 167.085 129.863C170.828 129.762 174.435 131.57 176.855 134.265C173.568 132.372 170.521 131.649 166.975 132.21C163.668 132.733 160.806 134.282 158.139 136.86L154.047 134.625L156.684 134.685Z" fill="#202020"/>
<path d="M193.556 124.1C196.69 122.768 201.68 122.752 205.02 124.16L207.394 123.01L204.602 126.744C201.104 125.509 197.858 125.289 194.632 126.189C191.174 127.153 188.703 129.077 186.5 132.166C187.581 128.707 190.109 125.564 193.556 124.1Z" fill="#202020"/>
<path d="M180.268 129.181C180.966 131.089 181.035 133.225 180.742 135.257C180.446 137.3 179.802 139.264 179.132 141.146C178.796 142.081 178.461 143.023 178.271 143.896C178.176 144.318 178.149 144.76 178.208 144.966C178.266 145.178 178.506 145.49 178.849 145.731C179.536 146.226 180.436 146.597 181.35 146.882C182.277 147.149 183.233 147.37 184.254 147.39C183.304 147.803 182.223 147.881 181.182 147.807C180.657 147.773 180.132 147.689 179.613 147.546C179.09 147.411 178.571 147.223 178.07 146.919C177.584 146.617 177.032 146.223 176.747 145.478C176.5 144.719 176.614 144.129 176.711 143.578C176.943 142.49 177.332 141.554 177.683 140.61C178.411 138.74 179.158 136.928 179.652 135.037C180.171 133.153 180.417 131.199 180.268 129.181Z" fill="#6C3317"/>
<path d="M146.847 136.482C148.957 142.29 152.206 145.678 151.612 136.916C151.018 128.155 148.75 121.527 148.75 121.527C148.75 121.527 165.868 113.099 163.682 97.0231C163.682 97.0231 179.058 121.788 207.674 110.828C207.674 110.828 212.593 135.581 214.665 121.692C216.737 107.804 210.966 70.4387 166.813 82.9421C121.251 95.8441 146.847 136.482 146.847 136.482Z" fill="#202020"/>
<path opacity="0.4" d="M207.673 110.827C176.441 125.31 163.681 97.0222 163.681 97.0222C168.832 116.373 148.749 121.527 148.749 121.527C148.749 121.527 165.868 113.098 163.681 97.0222C163.682 97.0222 179.058 121.787 207.673 110.827Z" fill="#6C3317"/>
<path d="M254.484 255.146C254.484 255.146 256.388 228.37 257.012 223.4C257.637 218.43 253.991 215.344 251.512 221.273C249.032 227.201 245.01 244.818 245.01 244.818L254.484 255.146Z" fill="#BA623B"/>
<path d="M211.431 266.401L238.553 272.58C240.742 273.079 242.92 271.708 243.418 269.52L257.447 207.938C257.946 205.749 256.576 203.572 254.388 203.073L227.265 196.894C225.077 196.395 222.898 197.766 222.4 199.954L208.371 261.536C207.873 263.725 209.243 265.903 211.431 266.401Z" fill="#ECBB2C"/>
<path d="M250.888 217.816L252.367 211.323C252.893 209.012 251.447 206.712 249.136 206.186C246.826 205.66 244.525 207.107 243.999 209.417L242.52 215.91C241.994 218.22 243.44 220.521 245.751 221.047C248.062 221.573 250.362 220.126 250.888 217.816Z" fill="#E38D21"/>
<path d="M246.06 210.027C245.792 211.206 246.529 212.379 247.708 212.647C248.887 212.915 250.06 212.178 250.328 210.999C250.597 209.82 249.859 208.647 248.68 208.379C247.502 208.111 246.329 208.848 246.06 210.027Z" fill="#202020"/>
<path d="M244.639 216.262C244.371 217.441 245.108 218.614 246.287 218.882C247.466 219.15 248.639 218.413 248.908 217.234C249.176 216.055 248.439 214.882 247.26 214.614C246.081 214.345 244.908 215.083 244.639 216.262Z" fill="#F9F9EF"/>
<path d="M254.432 286.378C254.432 286.378 254.845 257.376 254.423 254.452C254.001 251.528 232.016 230.854 230.217 228.693C227.401 225.311 225.222 230.144 228.102 234.606C230.517 238.346 241.552 254.305 241.552 254.305C241.552 254.305 221.7 243.786 218.174 242.422C214.649 241.059 214.144 245.812 219.727 250.114C225.31 254.415 237.99 263.512 237.99 263.512C237.99 263.512 218.282 259.707 216.268 259.607C212.314 259.411 209.928 263.637 220.707 266.594C228.764 268.805 234.467 272.619 234.467 272.619C234.467 272.619 231.743 276.498 236.468 283.02L236.223 287.584L244.795 285.782L254.432 286.378Z" fill="#BA623B"/>
<path d="M283.281 375.386C283.269 375.386 283.257 375.386 283.244 375.385C282.835 375.365 282.52 375.018 282.54 374.609C282.563 374.159 284.644 329.465 276.071 315.454C271.065 307.275 263.213 306.364 263.133 306.356C262.73 306.313 262.436 305.956 262.472 305.552C262.801 301.947 263.03 292.115 260.183 289.953C253.708 285.035 238.087 285.397 232.78 290.59C230.629 292.696 229.424 295.926 229.635 306.204C229.643 306.614 229.317 306.952 228.909 306.961C228.519 306.953 228.162 306.644 228.152 306.236C227.93 295.366 229.243 291.98 231.744 289.531C237.567 283.833 254.019 283.407 261.08 288.774C264.707 291.528 264.226 301.978 264.005 304.997C266.187 305.418 272.801 307.272 277.335 314.682C281.048 320.75 283.301 332.704 284.029 350.215C284.569 363.196 284.025 374.568 284.02 374.681C284.002 375.078 283.673 375.386 283.281 375.386Z" fill="white"/>
<path d="M231.977 404.511C231.959 404.511 231.941 404.51 231.922 404.508C231.514 404.479 231.207 404.123 231.237 403.716C231.224 403.511 230.868 402.697 230.49 401.836C228.107 396.411 221.78 381.995 220.161 346.793C219.599 334.566 220.38 313.681 222.835 310.064C229.305 300.524 258.129 304.501 259.351 304.676C259.757 304.733 260.038 305.108 259.981 305.514C259.923 305.919 259.551 306.205 259.143 306.144C258.852 306.102 230.018 302.118 224.06 310.897C222.046 313.865 221.029 333.405 221.641 346.725C223.247 381.653 229.494 395.884 231.846 401.241C232.468 402.66 232.753 403.307 232.714 403.825C232.687 404.214 232.361 404.511 231.977 404.511Z" fill="white"/>
<path d="M50.5692 220.827C46.1897 226.031 35.7864 233.025 35.7864 236.148C35.7864 239.272 65.1052 260.394 68.2575 261.024C71.4099 261.655 84.8862 246.207 84.8862 246.207L50.5692 220.827Z" fill="white"/>
</g>
</svg>
